<svg width="271" height="69" viewBox="0 0 271 69" fill="none" xmlns="http://www.w3.org/2000/svg">
<path d="M4.585 27H0.455L11.06 2.5H14.245L24.885 27H20.755L18.585 21.96H6.755L4.585 27ZM17.045 18.32L12.67 8.065L8.295 18.32H17.045ZM31.1371 34.875H27.4971V8.8H31.1371V10.76C32.8171 9.15 34.8355 8.345 37.1921 8.345C39.7355 8.345 41.8705 9.255 43.5971 11.075C45.3005 12.8717 46.1521 15.1467 46.1521 17.9C46.1521 20.6533 45.3005 22.9283 43.5971 24.725C41.8705 26.545 39.7355 27.455 37.1921 27.455C34.8355 27.455 32.8171 26.65 31.1371 25.04V34.875ZM36.7721 11.985C35.2088 11.985 33.8905 12.5567 32.8171 13.7C31.7438 14.7967 31.2071 16.1967 31.2071 17.9C31.2071 19.58 31.7438 20.9917 32.8171 22.135C33.8905 23.255 35.2088 23.815 36.7721 23.815C38.3355 23.815 39.6655 23.255 40.7621 22.135C41.8355 20.9917 42.3721 19.58 42.3721 17.9C42.3721 16.1967 41.8355 14.7967 40.7621 13.7C39.6888 12.5567 38.3588 11.985 36.7721 11.985ZM53.3198 34.875H49.6798V8.8H53.3198V10.76C54.9998 9.15 57.0181 8.345 59.3748 8.345C61.9181 8.345 64.0531 9.255 65.7798 11.075C67.4831 12.8717 68.3348 15.1467 68.3348 17.9C68.3348 20.6533 67.4831 22.9283 65.7798 24.725C64.0531 26.545 61.9181 27.455 59.3748 27.455C57.0181 27.455 54.9998 26.65 53.3198 25.04V34.875ZM58.9548 11.985C57.3914 11.985 56.0731 12.5567 54.9998 13.7C53.9264 14.7967 53.3898 16.1967 53.3898 17.9C53.3898 19.58 53.9264 20.9917 54.9998 22.135C56.0731 23.255 57.3914 23.815 58.9548 23.815C60.5181 23.815 61.8481 23.255 62.9448 22.135C64.0181 20.9917 64.5548 19.58 64.5548 17.9C64.5548 16.1967 64.0181 14.7967 62.9448 13.7C61.8714 12.5567 60.5414 11.985 58.9548 11.985ZM75.5024 27H71.8624V0.749998H75.5024V27ZM97.8863 19.23H82.7663C83.0463 20.6533 83.7346 21.82 84.8313 22.73C85.9513 23.6167 87.2696 24.06 88.7863 24.06C90.8396 24.06 92.4496 23.3017 93.6163 21.785L97.1863 22.87C96.3463 24.2933 95.1796 25.4133 93.6863 26.23C92.2163 27.0467 90.5829 27.455 88.7863 27.455C85.9863 27.455 83.6646 26.545 81.8213 24.725C79.9546 22.905 79.0213 20.63 79.0213 17.9C79.0213 15.1933 79.9196 12.9183 81.7163 11.075C83.5363 9.255 85.7996 8.345 88.5063 8.345C91.2129 8.345 93.4529 9.255 95.2263 11.075C97.0463 12.895 97.9563 15.17 97.9563 17.9C97.9563 17.9933 97.9329 18.4367 97.8863 19.23ZM82.8012 16.325H94.2113C93.8846 14.9717 93.1846 13.875 92.1113 13.035C91.0379 12.1717 89.8013 11.74 88.4013 11.74C87.0713 11.74 85.8813 12.1717 84.8313 13.035C83.8046 13.875 83.1279 14.9717 82.8012 16.325ZM114.125 27H110.485V8.8H114.125V27ZM110.59 6.105C110.147 5.63833 109.925 5.06667 109.925 4.39C109.925 3.71333 110.147 3.14167 110.59 2.675C111.057 2.20833 111.629 1.975 112.305 1.975C112.982 1.975 113.554 2.20833 114.02 2.675C114.487 3.14167 114.72 3.71333 114.72 4.39C114.72 5.06667 114.487 5.63833 114.02 6.105C113.554 6.57167 112.982 6.805 112.305 6.805C111.629 6.805 111.057 6.57167 110.59 6.105ZM122.579 17.97V27H118.659V2.5H129.509C131.843 2.5 133.791 3.235 135.354 4.705C136.941 6.175 137.734 8.01833 137.734 10.235C137.734 12.4517 136.941 14.295 135.354 15.765C133.791 17.235 131.843 17.97 129.509 17.97H122.579ZM129.509 6.14H122.579V14.33H129.509C130.676 14.33 131.656 13.945 132.449 13.175C133.243 12.3817 133.639 11.4017 133.639 10.235C133.639 9.06833 133.243 8.1 132.449 7.33C131.656 6.53667 130.676 6.14 129.509 6.14ZM141.384 27V0.749998H145.024V11.46C146.401 9.38333 148.431 8.345 151.114 8.345C153.261 8.345 155.022 9.02167 156.399 10.375C157.799 11.7517 158.499 13.455 158.499 15.485V27H154.859V16.535C154.859 15.1583 154.404 14.0383 153.494 13.175C152.584 12.265 151.441 11.81 150.064 11.81C148.641 11.81 147.439 12.265 146.459 13.175C145.502 14.085 145.024 15.2167 145.024 16.57V27H141.384ZM171.565 27.455C168.835 27.455 166.56 26.545 164.74 24.725C162.92 22.905 162.01 20.63 162.01 17.9C162.01 15.17 162.92 12.895 164.74 11.075C166.56 9.255 168.835 8.345 171.565 8.345C174.295 8.345 176.57 9.255 178.39 11.075C180.233 12.895 181.155 15.17 181.155 17.9C181.155 20.63 180.233 22.905 178.39 24.725C176.57 26.545 174.295 27.455 171.565 27.455ZM171.565 23.815C173.245 23.815 174.621 23.255 175.695 22.135C176.815 20.9917 177.375 19.58 177.375 17.9C177.375 16.22 176.815 14.82 175.695 13.7C174.621 12.5567 173.245 11.985 171.565 11.985C169.931 11.985 168.555 12.5567 167.435 13.7C166.338 14.8433 165.79 16.2433 165.79 17.9C165.79 19.5567 166.338 20.9683 167.435 22.135C168.555 23.255 169.931 23.815 171.565 23.815ZM184.69 27V8.8H188.33V11.46C189.66 9.38333 191.655 8.345 194.315 8.345C196.415 8.345 198.141 9.02167 199.495 10.375C200.871 11.7517 201.56 13.455 201.56 15.485V27H197.92V16.535C197.92 15.1817 197.476 14.0617 196.59 13.175C195.703 12.265 194.583 11.81 193.23 11.81C191.83 11.81 190.663 12.265 189.73 13.175C188.796 14.085 188.33 15.2167 188.33 16.57V27H184.69ZM223.941 19.23H208.821C209.101 20.6533 209.789 21.82 210.886 22.73C212.006 23.6167 213.324 24.06 214.841 24.06C216.894 24.06 218.504 23.3017 219.671 21.785L223.241 22.87C222.401 24.2933 221.234 25.4133 219.741 26.23C218.271 27.0467 216.638 27.455 214.841 27.455C212.041 27.455 209.719 26.545 207.876 24.725C206.009 22.905 205.076 20.63 205.076 17.9C205.076 15.1933 205.974 12.9183 207.771 11.075C209.591 9.255 211.854 8.345 214.561 8.345C217.268 8.345 219.508 9.255 221.281 11.075C223.101 12.895 224.011 15.17 224.011 17.9C224.011 17.9933 223.988 18.4367 223.941 19.23ZM208.856 16.325H220.266C219.939 14.9717 219.239 13.875 218.166 13.035C217.093 12.1717 215.856 11.74 214.456 11.74C213.126 11.74 211.936 12.1717 210.886 13.035C209.859 13.875 209.183 14.9717 208.856 16.325ZM242.245 7.225L237.66 9.57L236.015 6.21L243.33 2.5H246.025V27H242.245V7.225ZM264.479 9.57C264.479 8.49667 264.035 7.58667 263.149 6.84C262.262 6.07 261.2 5.685 259.964 5.685C258.797 5.685 257.77 6.02333 256.884 6.7C255.997 7.37667 255.309 8.31 254.819 9.5L251.284 7.82C252.054 6.04667 253.209 4.64667 254.749 3.62C256.289 2.57 258.027 2.045 259.964 2.045C262.32 2.045 264.315 2.78 265.949 4.25C267.605 5.69667 268.434 7.435 268.434 9.465C268.434 10.7483 268.014 12.055 267.174 13.385C266.357 14.6917 265.039 16.2083 263.219 17.935L257.549 23.36H268.679V27H251.704V24.165L260.804 15.38C263.254 13 264.479 11.0633 264.479 9.57ZM6.3 68H2.38V43.5H6.3L15.61 59.845L24.885 43.5H28.84V68H24.885V50.955L16.905 65.095H14.315L6.3 50.955V68ZM37.0161 68H33.3761V49.8H37.0161V68ZM33.4811 47.105C33.0377 46.6383 32.8161 46.0667 32.8161 45.39C32.8161 44.7133 33.0377 44.1417 33.4811 43.675C33.9477 43.2083 34.5194 42.975 35.1961 42.975C35.8727 42.975 36.4444 43.2083 36.9111 43.675C37.3777 44.1417 37.6111 44.7133 37.6111 45.39C37.6111 46.0667 37.3777 46.6383 36.9111 47.105C36.4444 47.5717 35.8727 47.805 35.1961 47.805C34.5194 47.805 33.9477 47.5717 33.4811 47.105ZM41.3399 68V49.8H44.9799V52.46C46.3099 50.3833 48.3049 49.345 50.9649 49.345C53.0649 49.345 54.7916 50.0217 56.1449 51.375C57.5216 52.7517 58.2099 54.455 58.2099 56.485V68H54.5699V57.535C54.5699 56.1817 54.1266 55.0617 53.2399 54.175C52.3533 53.265 51.2333 52.81 49.8799 52.81C48.4799 52.81 47.3133 53.265 46.3799 54.175C45.4466 55.085 44.9799 56.2167 44.9799 57.57V68H41.3399ZM66.1713 68H62.5313V49.8H66.1713V68ZM62.6363 47.105C62.193 46.6383 61.9713 46.0667 61.9713 45.39C61.9713 44.7133 62.193 44.1417 62.6363 43.675C63.103 43.2083 63.6747 42.975 64.3513 42.975C65.028 42.975 65.5997 43.2083 66.0663 43.675C66.533 44.1417 66.7663 44.7133 66.7663 45.39C66.7663 46.0667 66.533 46.6383 66.0663 47.105C65.5997 47.5717 65.028 47.805 64.3513 47.805C63.6747 47.805 63.103 47.5717 62.6363 47.105ZM85.4971 48.225L80.9121 50.57L79.2671 47.21L86.5821 43.5H89.2771V68H85.4971V48.225ZM107.731 50.57C107.731 49.4967 107.287 48.5867 106.401 47.84C105.514 47.07 104.452 46.685 103.216 46.685C102.049 46.685 101.022 47.0233 100.136 47.7C99.2489 48.3767 98.5605 49.31 98.0705 50.5L94.5355 48.82C95.3055 47.0467 96.4605 45.6467 98.0005 44.62C99.5405 43.57 101.279 43.045 103.216 43.045C105.572 43.045 107.567 43.78 109.201 45.25C110.857 46.6967 111.686 48.435 111.686 50.465C111.686 51.7483 111.266 53.055 110.426 54.385C109.609 55.6917 108.291 57.2083 106.471 58.935L100.801 64.36H111.931V68H94.9555V65.165L104.056 56.38C106.506 54 107.731 52.0633 107.731 50.57ZM115.222 61.245C115.222 59.985 115.561 58.83 116.237 57.78C116.914 56.73 117.859 55.8783 119.072 55.225C116.879 53.895 115.782 52.0867 115.782 49.8C115.782 47.8867 116.587 46.2883 118.197 45.005C119.854 43.6983 121.884 43.045 124.287 43.045C126.667 43.045 128.674 43.6983 130.307 45.005C131.941 46.2883 132.757 47.8983 132.757 49.835C132.757 52.1217 131.661 53.9183 129.467 55.225C130.681 55.8783 131.626 56.73 132.302 57.78C133.002 58.83 133.352 59.985 133.352 61.245C133.352 63.2983 132.489 65.0133 130.762 66.39C129.036 67.7667 126.877 68.455 124.287 68.455C121.697 68.455 119.539 67.7667 117.812 66.39C116.086 65.0133 115.222 63.2983 115.222 61.245ZM119.142 60.895C119.142 62.015 119.621 62.9483 120.577 63.695C121.557 64.4417 122.794 64.815 124.287 64.815C125.757 64.815 126.971 64.4533 127.927 63.73C128.907 62.9833 129.397 62.05 129.397 60.93C129.397 59.8333 128.907 58.9117 127.927 58.165C126.971 57.4183 125.757 57.045 124.287 57.045C122.841 57.045 121.616 57.4183 120.612 58.165C119.632 58.8883 119.142 59.7983 119.142 60.895ZM119.737 50.08C119.737 51.0833 120.169 51.9117 121.032 52.565C121.896 53.2183 122.981 53.545 124.287 53.545C125.594 53.545 126.679 53.2183 127.542 52.565C128.406 51.9117 128.837 51.0833 128.837 50.08C128.837 49.1467 128.394 48.3417 127.507 47.665C126.644 47.0117 125.571 46.685 124.287 46.685C122.981 46.685 121.896 47.0117 121.032 47.665C120.169 48.3183 119.737 49.1233 119.737 50.08ZM149.397 43.045C151.894 43.045 154.146 43.64 156.152 44.83C158.182 46.02 159.734 47.6417 160.807 49.695L156.992 51.095C156.246 49.765 155.196 48.7267 153.842 47.98C152.489 47.21 151.007 46.825 149.397 46.825C146.877 46.825 144.766 47.6767 143.062 49.38C141.382 51.1067 140.542 53.23 140.542 55.75C140.542 58.2933 141.359 60.4167 142.992 62.12C144.626 63.8233 146.632 64.675 149.012 64.675C150.949 64.675 152.699 64.0917 154.262 62.925C155.779 61.7817 156.771 60.265 157.237 58.375H148.557V54.735H161.682C161.729 55.3417 161.752 55.715 161.752 55.855C161.706 59.4483 160.481 62.4467 158.077 64.85C155.674 67.2533 152.687 68.455 149.117 68.455C145.524 68.455 142.514 67.2417 140.087 64.815C137.684 62.4117 136.482 59.39 136.482 55.75C136.482 52.11 137.707 49.0883 140.157 46.685C142.654 44.2583 145.734 43.045 149.397 43.045ZM178.081 68H165.656V43.5H177.381C179.458 43.5 181.196 44.13 182.596 45.39C183.996 46.6033 184.696 48.155 184.696 50.045C184.696 52.0983 183.833 53.7783 182.106 55.085C183.25 55.6917 184.148 56.5317 184.801 57.605C185.455 58.655 185.781 59.81 185.781 61.07C185.781 63.0533 185.046 64.71 183.576 66.04C182.083 67.3467 180.251 68 178.081 68ZM178.081 57.15H169.576V64.36H178.081C179.108 64.36 179.971 64.0217 180.671 63.345C181.371 62.645 181.721 61.7817 181.721 60.755C181.721 59.7283 181.371 58.8767 180.671 58.2C179.971 57.5 179.108 57.15 178.081 57.15ZM177.381 47.14H169.576V53.51H177.381C178.315 53.51 179.085 53.2067 179.691 52.6C180.298 51.9933 180.601 51.235 180.601 50.325C180.601 49.415 180.298 48.6567 179.691 48.05C179.085 47.4433 178.315 47.14 177.381 47.14ZM211.407 68H198.982V43.5H210.707C212.783 43.5 214.522 44.13 215.922 45.39C217.322 46.6033 218.022 48.155 218.022 50.045C218.022 52.0983 217.158 53.7783 215.432 55.085C216.575 55.6917 217.473 56.5317 218.127 57.605C218.78 58.655 219.107 59.81 219.107 61.07C219.107 63.0533 218.372 64.71 216.902 66.04C215.408 67.3467 213.577 68 211.407 68ZM211.407 57.15H202.902V64.36H211.407C212.433 64.36 213.297 64.0217 213.997 63.345C214.697 62.645 215.047 61.7817 215.047 60.755C215.047 59.7283 214.697 58.8767 213.997 58.2C213.297 57.5 212.433 57.15 211.407 57.15ZM210.707 47.14H202.902V53.51H210.707C211.64 53.51 212.41 53.2067 213.017 52.6C213.623 51.9933 213.927 51.235 213.927 50.325C213.927 49.415 213.623 48.6567 213.017 48.05C212.41 47.4433 211.64 47.14 210.707 47.14ZM226.44 68H222.8V41.75H226.44V68ZM230.729 61.28V49.8H234.369V60.265C234.369 61.595 234.812 62.7267 235.699 63.66C236.632 64.5467 237.752 64.99 239.059 64.99C240.435 64.99 241.602 64.535 242.559 63.625C243.492 62.715 243.959 61.5833 243.959 60.23V49.8H247.599V68H243.959V65.41C242.559 67.44 240.575 68.455 238.009 68.455C235.885 68.455 234.147 67.7783 232.794 66.425C231.417 65.0483 230.729 63.3333 230.729 61.28ZM270.015 60.23H254.895C255.175 61.6533 255.863 62.82 256.96 63.73C258.08 64.6167 259.398 65.06 260.915 65.06C262.968 65.06 264.578 64.3017 265.745 62.785L269.315 63.87C268.475 65.2933 267.308 66.4133 265.815 67.23C264.345 68.0467 262.712 68.455 260.915 68.455C258.115 68.455 255.793 67.545 253.95 65.725C252.083 63.905 251.15 61.63 251.15 58.9C251.15 56.1933 252.048 53.9183 253.845 52.075C255.665 50.255 257.928 49.345 260.635 49.345C263.342 49.345 265.582 50.255 267.355 52.075C269.175 53.895 270.085 56.17 270.085 58.9C270.085 58.9933 270.062 59.4367 270.015 60.23ZM254.93 57.325H266.34C266.013 55.9717 265.313 54.875 264.24 54.035C263.167 53.1717 261.93 52.74 260.53 52.74C259.2 52.74 258.01 53.1717 256.96 54.035C255.933 54.875 255.257 55.9717 254.93 57.325Z" fill="black"/>
</svg>
