<svg width="333" height="76" viewBox="0 0 333 76" fill="none" xmlns="http://www.w3.org/2000/svg">
<path d="M4.585 27H0.455L11.06 2.5H14.245L24.885 27H20.755L18.585 21.96H6.755L4.585 27ZM17.045 18.32L12.67 8.065L8.295 18.32H17.045ZM31.1371 34.875H27.4971V8.8H31.1371V10.76C32.8171 9.15 34.8355 8.345 37.1921 8.345C39.7355 8.345 41.8705 9.255 43.5971 11.075C45.3005 12.8717 46.1521 15.1467 46.1521 17.9C46.1521 20.6533 45.3005 22.9283 43.5971 24.725C41.8705 26.545 39.7355 27.455 37.1921 27.455C34.8355 27.455 32.8171 26.65 31.1371 25.04V34.875ZM36.7721 11.985C35.2088 11.985 33.8905 12.5567 32.8171 13.7C31.7438 14.7967 31.2071 16.1967 31.2071 17.9C31.2071 19.58 31.7438 20.9917 32.8171 22.135C33.8905 23.255 35.2088 23.815 36.7721 23.815C38.3355 23.815 39.6655 23.255 40.7621 22.135C41.8355 20.9917 42.3721 19.58 42.3721 17.9C42.3721 16.1967 41.8355 14.7967 40.7621 13.7C39.6888 12.5567 38.3588 11.985 36.7721 11.985ZM53.3198 34.875H49.6798V8.8H53.3198V10.76C54.9998 9.15 57.0181 8.345 59.3748 8.345C61.9181 8.345 64.0531 9.255 65.7798 11.075C67.4831 12.8717 68.3348 15.1467 68.3348 17.9C68.3348 20.6533 67.4831 22.9283 65.7798 24.725C64.0531 26.545 61.9181 27.455 59.3748 27.455C57.0181 27.455 54.9998 26.65 53.3198 25.04V34.875ZM58.9548 11.985C57.3914 11.985 56.0731 12.5567 54.9998 13.7C53.9264 14.7967 53.3898 16.1967 53.3898 17.9C53.3898 19.58 53.9264 20.9917 54.9998 22.135C56.0731 23.255 57.3914 23.815 58.9548 23.815C60.5181 23.815 61.8481 23.255 62.9448 22.135C64.0181 20.9917 64.5548 19.58 64.5548 17.9C64.5548 16.1967 64.0181 14.7967 62.9448 13.7C61.8714 12.5567 60.5414 11.985 58.9548 11.985ZM75.5024 27H71.8624V0.749998H75.5024V27ZM97.8863 19.23H82.7663C83.0463 20.6533 83.7346 21.82 84.8313 22.73C85.9513 23.6167 87.2696 24.06 88.7863 24.06C90.8396 24.06 92.4496 23.3017 93.6163 21.785L97.1863 22.87C96.3463 24.2933 95.1796 25.4133 93.6863 26.23C92.2163 27.0467 90.5829 27.455 88.7863 27.455C85.9863 27.455 83.6646 26.545 81.8213 24.725C79.9546 22.905 79.0213 20.63 79.0213 17.9C79.0213 15.1933 79.9196 12.9183 81.7163 11.075C83.5363 9.255 85.7996 8.345 88.5063 8.345C91.2129 8.345 93.4529 9.255 95.2263 11.075C97.0463 12.895 97.9563 15.17 97.9563 17.9C97.9563 17.9933 97.9329 18.4367 97.8863 19.23ZM82.8012 16.325H94.2113C93.8846 14.9717 93.1846 13.875 92.1113 13.035C91.0379 12.1717 89.8013 11.74 88.4013 11.74C87.0713 11.74 85.8813 12.1717 84.8313 13.035C83.8046 13.875 83.1279 14.9717 82.8012 16.325ZM114.125 27H110.485V8.8H114.125V27ZM110.59 6.105C110.147 5.63833 109.925 5.06667 109.925 4.39C109.925 3.71333 110.147 3.14167 110.59 2.675C111.057 2.20833 111.629 1.975 112.305 1.975C112.982 1.975 113.554 2.20833 114.02 2.675C114.487 3.14167 114.72 3.71333 114.72 4.39C114.72 5.06667 114.487 5.63833 114.02 6.105C113.554 6.57167 112.982 6.805 112.305 6.805C111.629 6.805 111.057 6.57167 110.59 6.105ZM122.579 27H118.659V2.5H122.579L131.889 18.845L141.164 2.5H145.119V27H141.164V9.955L133.184 24.095H130.594L122.579 9.955V27ZM157.81 8.345C160.167 8.345 162.185 9.15 163.865 10.76V8.8H167.505V27H163.865V25.04C162.185 26.65 160.167 27.455 157.81 27.455C155.267 27.455 153.132 26.545 151.405 24.725C149.702 22.9283 148.85 20.6533 148.85 17.9C148.85 15.1467 149.702 12.8717 151.405 11.075C153.132 9.255 155.267 8.345 157.81 8.345ZM158.195 11.985C156.632 11.985 155.314 12.5567 154.24 13.7C153.167 14.7967 152.63 16.1967 152.63 17.9C152.63 19.58 153.167 20.9917 154.24 22.135C155.337 23.255 156.655 23.815 158.195 23.815C159.782 23.815 161.112 23.255 162.185 22.135C163.259 20.9917 163.795 19.58 163.795 17.9C163.795 16.1967 163.259 14.7967 162.185 13.7C161.112 12.5567 159.782 11.985 158.195 11.985ZM189.443 14.085L185.768 15.17C185.301 14.19 184.613 13.42 183.703 12.86C182.793 12.2767 181.755 11.985 180.588 11.985C178.955 11.985 177.578 12.5567 176.458 13.7C175.361 14.8433 174.813 16.2433 174.813 17.9C174.813 19.5567 175.361 20.9683 176.458 22.135C177.578 23.255 178.955 23.815 180.588 23.815C181.755 23.815 182.793 23.535 183.703 22.975C184.613 22.3917 185.301 21.61 185.768 20.63L189.443 21.715C188.72 23.465 187.565 24.865 185.978 25.915C184.415 26.9417 182.618 27.455 180.588 27.455C177.858 27.455 175.583 26.545 173.763 24.725C171.943 22.905 171.033 20.63 171.033 17.9C171.033 15.17 171.943 12.895 173.763 11.075C175.583 9.255 177.858 8.345 180.588 8.345C182.618 8.345 184.415 8.87 185.978 9.92C187.565 10.9467 188.72 12.335 189.443 14.085ZM206.046 17.97V27H202.126V2.5H212.976C215.309 2.5 217.258 3.235 218.821 4.705C220.408 6.175 221.201 8.01833 221.201 10.235C221.201 12.4517 220.408 14.295 218.821 15.765C217.258 17.235 215.309 17.97 212.976 17.97H206.046ZM212.976 6.14H206.046V14.33H212.976C214.143 14.33 215.123 13.945 215.916 13.175C216.709 12.3817 217.106 11.4017 217.106 10.235C217.106 9.06833 216.709 8.1 215.916 7.33C215.123 6.53667 214.143 6.14 212.976 6.14ZM228.217 8.8V11.46C229.594 9.38333 231.752 8.345 234.692 8.345V12.405C234.272 12.2183 233.747 12.125 233.117 12.125C231.717 12.125 230.551 12.58 229.617 13.49C228.684 14.3533 228.217 15.4733 228.217 16.85V27H224.577V8.8H228.217ZM245.461 27.455C242.731 27.455 240.456 26.545 238.636 24.725C236.816 22.905 235.906 20.63 235.906 17.9C235.906 15.17 236.816 12.895 238.636 11.075C240.456 9.255 242.731 8.345 245.461 8.345C248.191 8.345 250.466 9.255 252.286 11.075C254.129 12.895 255.051 15.17 255.051 17.9C255.051 20.63 254.129 22.905 252.286 24.725C250.466 26.545 248.191 27.455 245.461 27.455ZM245.461 23.815C247.141 23.815 248.518 23.255 249.591 22.135C250.711 20.9917 251.271 19.58 251.271 17.9C251.271 16.22 250.711 14.82 249.591 13.7C248.518 12.5567 247.141 11.985 245.461 11.985C243.828 11.985 242.451 12.5567 241.331 13.7C240.234 14.8433 239.686 16.2433 239.686 17.9C239.686 19.5567 240.234 20.9683 241.331 22.135C242.451 23.255 243.828 23.815 245.461 23.815ZM275.408 27H272.188L266.133 8.8H269.808L273.763 21.365L277.718 8.8H281.008L284.928 21.365L288.918 8.8H292.593L286.538 27H283.283L279.363 14.855L275.408 27ZM298.798 27H295.158V8.8H298.798V27ZM295.263 6.105C294.82 5.63833 294.598 5.06667 294.598 4.39C294.598 3.71333 294.82 3.14167 295.263 2.675C295.73 2.20833 296.302 1.975 296.978 1.975C297.655 1.975 298.227 2.20833 298.693 2.675C299.16 3.14167 299.393 3.71333 299.393 4.39C299.393 5.06667 299.16 5.63833 298.693 6.105C298.227 6.57167 297.655 6.805 296.978 6.805C296.302 6.805 295.73 6.57167 295.263 6.105ZM301.372 11.985V8.8H304.137V5.195H307.777V8.8H312.607V11.985H307.777V20.945C307.777 21.6683 308.01 22.275 308.477 22.765C308.944 23.255 309.527 23.5 310.227 23.5H312.607V27H309.947C308.314 27 306.937 26.475 305.817 25.425C304.697 24.3283 304.137 22.9983 304.137 21.435V11.985H301.372ZM315.803 27V0.749998H319.443V11.46C320.819 9.38333 322.849 8.345 325.533 8.345C327.679 8.345 329.441 9.02167 330.818 10.375C332.218 11.7517 332.918 13.455 332.918 15.485V27H329.278V16.535C329.278 15.1583 328.823 14.0383 327.913 13.175C327.003 12.265 325.859 11.81 324.483 11.81C323.059 11.81 321.858 12.265 320.878 13.175C319.921 14.085 319.443 15.2167 319.443 16.57V27H315.803ZM2.38 43.5H13.58C15.9133 43.5 17.8617 44.235 19.425 45.705C21.0117 47.175 21.805 49.0183 21.805 51.235C21.805 52.845 21.3617 54.2917 20.475 55.575C19.5883 56.835 18.41 57.7567 16.94 58.34L22.75 68H18.34L12.88 58.97H6.3V68H2.38V43.5ZM13.58 47.14H6.3V55.33H13.58C14.7467 55.33 15.7267 54.945 16.52 54.175C17.3133 53.3817 17.71 52.4017 17.71 51.235C17.71 50.0683 17.3133 49.1 16.52 48.33C15.7267 47.5367 14.7467 47.14 13.58 47.14ZM43.3013 60.23H28.1813C28.4613 61.6533 29.1496 62.82 30.2463 63.73C31.3663 64.6167 32.6846 65.06 34.2013 65.06C36.2546 65.06 37.8646 64.3017 39.0313 62.785L42.6013 63.87C41.7613 65.2933 40.5946 66.4133 39.1013 67.23C37.6313 68.0467 35.998 68.455 34.2013 68.455C31.4013 68.455 29.0796 67.545 27.2363 65.725C25.3696 63.905 24.4363 61.63 24.4363 58.9C24.4363 56.1933 25.3346 53.9183 27.1313 52.075C28.9513 50.255 31.2146 49.345 33.9213 49.345C36.628 49.345 38.868 50.255 40.6413 52.075C42.4613 53.895 43.3713 56.17 43.3713 58.9C43.3713 58.9933 43.348 59.4367 43.3013 60.23ZM28.2163 57.325H39.6263C39.2996 55.9717 38.5996 54.875 37.5263 54.035C36.453 53.1717 35.2163 52.74 33.8163 52.74C32.4863 52.74 31.2963 53.1717 30.2463 54.035C29.2196 54.875 28.543 55.9717 28.2163 57.325ZM44.7852 52.985V49.8H47.5502V46.195H51.1902V49.8H56.0202V52.985H51.1902V61.945C51.1902 62.6683 51.4236 63.275 51.8902 63.765C52.3569 64.255 52.9402 64.5 53.6402 64.5H56.0202V68H53.3602C51.7269 68 50.3502 67.475 49.2302 66.425C48.1102 65.3283 47.5502 63.9983 47.5502 62.435V52.985H44.7852ZM62.8559 68H59.2159V49.8H62.8559V68ZM59.3209 47.105C58.8776 46.6383 58.6559 46.0667 58.6559 45.39C58.6559 44.7133 58.8776 44.1417 59.3209 43.675C59.7876 43.2083 60.3592 42.975 61.0359 42.975C61.7126 42.975 62.2842 43.2083 62.7509 43.675C63.2176 44.1417 63.4509 44.7133 63.4509 45.39C63.4509 46.0667 63.2176 46.6383 62.7509 47.105C62.2842 47.5717 61.7126 47.805 61.0359 47.805C60.3592 47.805 59.7876 47.5717 59.3209 47.105ZM67.1798 68V49.8H70.8198V52.46C72.1498 50.3833 74.1448 49.345 76.8048 49.345C78.9048 49.345 80.6314 50.0217 81.9848 51.375C83.3614 52.7517 84.0498 54.455 84.0498 56.485V68H80.4098V57.535C80.4098 56.1817 79.9664 55.0617 79.0798 54.175C78.1931 53.265 77.0731 52.81 75.7198 52.81C74.3198 52.81 73.1531 53.265 72.2198 54.175C71.2864 55.085 70.8198 56.2167 70.8198 57.57V68H67.1798ZM96.5262 49.345C98.8828 49.345 100.901 50.15 102.581 51.76V49.8H106.221V68H102.581V66.04C100.901 67.65 98.8828 68.455 96.5262 68.455C93.9828 68.455 91.8478 67.545 90.1212 65.725C88.4178 63.9283 87.5662 61.6533 87.5662 58.9C87.5662 56.1467 88.4178 53.8717 90.1212 52.075C91.8478 50.255 93.9828 49.345 96.5262 49.345ZM96.9112 52.985C95.3478 52.985 94.0295 53.5567 92.9562 54.7C91.8828 55.7967 91.3462 57.1967 91.3462 58.9C91.3462 60.58 91.8828 61.9917 92.9562 63.135C94.0528 64.255 95.3712 64.815 96.9112 64.815C98.4978 64.815 99.8278 64.255 100.901 63.135C101.975 61.9917 102.511 60.58 102.511 58.9C102.511 57.1967 101.975 55.7967 100.901 54.7C99.8278 53.5567 98.4978 52.985 96.9112 52.985ZM128.006 68.455C125.929 68.455 124.086 67.93 122.476 66.88C120.889 65.8067 119.757 64.3833 119.081 62.61L122.861 61.56C123.304 62.5633 123.981 63.3567 124.891 63.94C125.801 64.5233 126.839 64.815 128.006 64.815C129.499 64.815 130.747 64.3833 131.751 63.52C132.777 62.6333 133.291 61.5483 133.291 60.265C133.291 58.9117 132.742 57.7917 131.646 56.905C130.549 56.0183 129.196 55.575 127.586 55.575H120.901L122.126 43.5H135.181V47H125.276L124.786 52.075H127.726C130.456 52.075 132.719 52.8567 134.516 54.42C136.336 56.0067 137.246 57.955 137.246 60.265C137.246 62.5983 136.359 64.5467 134.586 66.11C132.859 67.6733 130.666 68.455 128.006 68.455ZM141.15 68V43.5H145.07V55.225L155.325 43.5H160.33L149.865 55.47L161.03 68H156.025L145.07 55.715V68H141.15ZM182.976 68H173.176V43.5H182.976C186.593 43.5 189.614 44.6783 192.041 47.035C194.491 49.3917 195.716 52.2967 195.716 55.75C195.716 59.2033 194.491 62.1083 192.041 64.465C189.614 66.8217 186.593 68 182.976 68ZM182.976 47.14H177.096V64.36H182.976C185.426 64.36 187.479 63.5317 189.136 61.875C190.793 60.2183 191.621 58.1767 191.621 55.75C191.621 53.3233 190.793 51.2817 189.136 49.625C187.479 47.9683 185.426 47.14 182.976 47.14ZM203.061 68H199.421V49.8H203.061V68ZM199.526 47.105C199.083 46.6383 198.861 46.0667 198.861 45.39C198.861 44.7133 199.083 44.1417 199.526 43.675C199.993 43.2083 200.564 42.975 201.241 42.975C201.918 42.975 202.489 43.2083 202.956 43.675C203.423 44.1417 203.656 44.7133 203.656 45.39C203.656 46.0667 203.423 46.6383 202.956 47.105C202.489 47.5717 201.918 47.805 201.241 47.805C200.564 47.805 199.993 47.5717 199.526 47.105ZM220.3 53.965L216.87 54.56C216.45 53.2067 215.26 52.53 213.3 52.53C212.413 52.53 211.69 52.705 211.13 53.055C210.57 53.405 210.29 53.8833 210.29 54.49C210.29 55.2833 210.873 55.89 212.04 56.31L216.135 57.71C217.698 58.2933 218.83 59.005 219.53 59.845C220.253 60.685 220.615 61.7233 220.615 62.96C220.615 64.71 219.973 66.0633 218.69 67.02C217.407 67.9767 215.715 68.455 213.615 68.455C211.562 68.455 209.893 68.0117 208.61 67.125C207.327 66.215 206.557 64.9667 206.3 63.38L209.73 62.855C209.893 63.5783 210.325 64.1617 211.025 64.605C211.725 65.0483 212.612 65.27 213.685 65.27C214.688 65.27 215.505 65.0717 216.135 64.675C216.788 64.2783 217.115 63.7417 217.115 63.065C217.115 62.2017 216.38 61.5017 214.91 60.965L210.85 59.6C209.427 59.11 208.388 58.48 207.735 57.71C207.105 56.94 206.79 55.96 206.79 54.77C206.79 53.02 207.408 51.6783 208.645 50.745C209.882 49.8117 211.527 49.345 213.58 49.345C215.423 49.345 216.94 49.765 218.13 50.605C219.32 51.4217 220.043 52.5417 220.3 53.965ZM227.636 75.875H223.996V49.8H227.636V51.76C229.316 50.15 231.335 49.345 233.691 49.345C236.235 49.345 238.37 50.255 240.096 52.075C241.8 53.8717 242.651 56.1467 242.651 58.9C242.651 61.6533 241.8 63.9283 240.096 65.725C238.37 67.545 236.235 68.455 233.691 68.455C231.335 68.455 229.316 67.65 227.636 66.04V75.875ZM233.271 52.985C231.708 52.985 230.39 53.5567 229.316 54.7C228.243 55.7967 227.706 57.1967 227.706 58.9C227.706 60.58 228.243 61.9917 229.316 63.135C230.39 64.255 231.708 64.815 233.271 64.815C234.835 64.815 236.165 64.255 237.261 63.135C238.335 61.9917 238.871 60.58 238.871 58.9C238.871 57.1967 238.335 55.7967 237.261 54.7C236.188 53.5567 234.858 52.985 233.271 52.985ZM249.819 68H246.179V41.75H249.819V68ZM262.298 49.345C264.654 49.345 266.673 50.15 268.353 51.76V49.8H271.993V68H268.353V66.04C266.673 67.65 264.654 68.455 262.298 68.455C259.754 68.455 257.619 67.545 255.893 65.725C254.189 63.9283 253.338 61.6533 253.338 58.9C253.338 56.1467 254.189 53.8717 255.893 52.075C257.619 50.255 259.754 49.345 262.298 49.345ZM262.683 52.985C261.119 52.985 259.801 53.5567 258.728 54.7C257.654 55.7967 257.118 57.1967 257.118 58.9C257.118 60.58 257.654 61.9917 258.728 63.135C259.824 64.255 261.143 64.815 262.683 64.815C264.269 64.815 265.599 64.255 266.673 63.135C267.746 61.9917 268.283 60.58 268.283 58.9C268.283 57.1967 267.746 55.7967 266.673 54.7C265.599 53.5567 264.269 52.985 262.683 52.985ZM280.875 69.54L281.68 67.545L274.575 49.8H278.32L283.5 63.03L288.855 49.8H292.6L284.025 70.765C283.302 72.5383 282.357 73.8333 281.19 74.65C280.024 75.4667 278.53 75.875 276.71 75.875H275.94V72.375H276.71C277.784 72.375 278.647 72.1533 279.3 71.71C279.954 71.2667 280.479 70.5433 280.875 69.54Z" fill="black"/>
</svg>
