<svg width="377" height="34" viewBox="0 0 377 34" fill="none" xmlns="http://www.w3.org/2000/svg">
<path d="M0.312 2.2H4.12V22.464H16.564V26H0.312V2.2ZM26.989 7.878C29.2783 7.878 31.239 8.66 32.871 10.224V8.32H36.407V26H32.871V24.096C31.239 25.66 29.2783 26.442 26.989 26.442C24.5183 26.442 22.4443 25.558 20.767 23.79C19.1123 22.0447 18.285 19.8347 18.285 17.16C18.285 14.4853 19.1123 12.2753 20.767 10.53C22.4443 8.762 24.5183 7.878 26.989 7.878ZM27.363 11.414C25.8443 11.414 24.5637 11.9693 23.521 13.08C22.4783 14.1453 21.957 15.5053 21.957 17.16C21.957 18.792 22.4783 20.1633 23.521 21.274C24.5863 22.362 25.867 22.906 27.363 22.906C28.9043 22.906 30.1963 22.362 31.239 21.274C32.2817 20.1633 32.803 18.792 32.803 17.16C32.803 15.5053 32.2817 14.1453 31.239 13.08C30.1963 11.9693 28.9043 11.414 27.363 11.414ZM38.9158 11.414V8.32H41.6018V4.818H45.1378V8.32H49.8298V11.414H45.1378V20.118C45.1378 20.8207 45.3645 21.41 45.8178 21.886C46.2711 22.362 46.8378 22.6 47.5178 22.6H49.8298V26H47.2458C45.6591 26 44.3218 25.49 43.2338 24.47C42.1458 23.4047 41.6018 22.1127 41.6018 20.594V11.414H38.9158ZM70.4118 18.452H55.7238C55.9958 19.8347 56.6644 20.968 57.7298 21.852C58.8178 22.7133 60.0984 23.144 61.5718 23.144C63.5664 23.144 65.1304 22.4073 66.2638 20.934L69.7318 21.988C68.9158 23.3707 67.7824 24.4587 66.3318 25.252C64.9038 26.0453 63.3171 26.442 61.5718 26.442C58.8518 26.442 56.5964 25.558 54.8058 23.79C52.9924 22.022 52.0858 19.812 52.0858 17.16C52.0858 14.5307 52.9584 12.3207 54.7038 10.53C56.4718 8.762 58.6704 7.878 61.2998 7.878C63.9291 7.878 66.1051 8.762 67.8278 10.53C69.5958 12.298 70.4798 14.508 70.4798 17.16C70.4798 17.2507 70.4571 17.6813 70.4118 18.452ZM55.7578 15.63H66.8418C66.5244 14.3153 65.8444 13.25 64.8018 12.434C63.7591 11.5953 62.5578 11.176 61.1978 11.176C59.9058 11.176 58.7498 11.5953 57.7298 12.434C56.7324 13.25 56.0751 14.3153 55.7578 15.63ZM86.1657 12.366L82.8337 12.944C82.4257 11.6293 81.2697 10.972 79.3657 10.972C78.5044 10.972 77.8017 11.142 77.2577 11.482C76.7137 11.822 76.4417 12.2867 76.4417 12.876C76.4417 13.6467 77.0084 14.236 78.1417 14.644L82.1197 16.004C83.6384 16.5707 84.7377 17.262 85.4177 18.078C86.1204 18.894 86.4717 19.9027 86.4717 21.104C86.4717 22.804 85.8484 24.1187 84.6017 25.048C83.3551 25.9773 81.7117 26.442 79.6717 26.442C77.6771 26.442 76.0564 26.0113 74.8097 25.15C73.5631 24.266 72.8151 23.0533 72.5657 21.512L75.8977 21.002C76.0564 21.7047 76.4757 22.2713 77.1557 22.702C77.8357 23.1327 78.6971 23.348 79.7397 23.348C80.7144 23.348 81.5077 23.1553 82.1197 22.77C82.7544 22.3847 83.0717 21.8633 83.0717 21.206C83.0717 20.3673 82.3577 19.6873 80.9297 19.166L76.9857 17.84C75.6031 17.364 74.5944 16.752 73.9597 16.004C73.3477 15.256 73.0417 14.304 73.0417 13.148C73.0417 11.448 73.6424 10.1447 74.8437 9.238C76.0451 8.33133 77.6431 7.878 79.6377 7.878C81.4284 7.878 82.9017 8.286 84.0577 9.102C85.2137 9.89533 85.9164 10.9833 86.1657 12.366ZM88.0564 11.414V8.32H90.7424V4.818H94.2784V8.32H98.9704V11.414H94.2784V20.118C94.2784 20.8207 94.5051 21.41 94.9584 21.886C95.4118 22.362 95.9784 22.6 96.6584 22.6H98.9704V26H96.3864C94.7998 26 93.4624 25.49 92.3744 24.47C91.2864 23.4047 90.7424 22.1127 90.7424 20.594V11.414H88.0564ZM114.642 33.65H111.106V8.32H114.642V10.224C116.274 8.66 118.235 7.878 120.524 7.878C122.995 7.878 125.069 8.762 126.746 10.53C128.401 12.2753 129.228 14.4853 129.228 17.16C129.228 19.8347 128.401 22.0447 126.746 23.79C125.069 25.558 122.995 26.442 120.524 26.442C118.235 26.442 116.274 25.66 114.642 24.096V33.65ZM120.116 11.414C118.597 11.414 117.317 11.9693 116.274 13.08C115.231 14.1453 114.71 15.5053 114.71 17.16C114.71 18.792 115.231 20.1633 116.274 21.274C117.317 22.362 118.597 22.906 120.116 22.906C121.635 22.906 122.927 22.362 123.992 21.274C125.035 20.1633 125.556 18.792 125.556 17.16C125.556 15.5053 125.035 14.1453 123.992 13.08C122.949 11.9693 121.657 11.414 120.116 11.414ZM136.191 8.32V10.904C137.528 8.88667 139.625 7.878 142.481 7.878V11.822C142.073 11.6407 141.563 11.55 140.951 11.55C139.591 11.55 138.458 11.992 137.551 12.876C136.644 13.7147 136.191 14.8027 136.191 16.14V26H132.655V8.32H136.191ZM152.942 26.442C150.29 26.442 148.08 25.558 146.312 23.79C144.544 22.022 143.66 19.812 143.66 17.16C143.66 14.508 144.544 12.298 146.312 10.53C148.08 8.762 150.29 7.878 152.942 7.878C155.594 7.878 157.804 8.762 159.572 10.53C161.363 12.298 162.258 14.508 162.258 17.16C162.258 19.812 161.363 22.022 159.572 23.79C157.804 25.558 155.594 26.442 152.942 26.442ZM152.942 22.906C154.574 22.906 155.911 22.362 156.954 21.274C158.042 20.1633 158.586 18.792 158.586 17.16C158.586 15.528 158.042 14.168 156.954 13.08C155.911 11.9693 154.574 11.414 152.942 11.414C151.355 11.414 150.018 11.9693 148.93 13.08C147.865 14.1907 147.332 15.5507 147.332 17.16C147.332 18.7693 147.865 20.1407 148.93 21.274C150.018 22.362 151.355 22.906 152.942 22.906ZM173.614 7.878C175.903 7.878 177.864 8.66 179.496 10.224V0.499998H183.032V26H179.496V24.096C177.864 25.66 175.903 26.442 173.614 26.442C171.143 26.442 169.069 25.558 167.392 23.79C165.737 22.0447 164.91 19.8347 164.91 17.16C164.91 14.4853 165.737 12.2753 167.392 10.53C169.069 8.762 171.143 7.878 173.614 7.878ZM173.988 11.414C172.469 11.414 171.189 11.9693 170.146 13.08C169.103 14.1453 168.582 15.5053 168.582 17.16C168.582 18.792 169.103 20.1633 170.146 21.274C171.211 22.362 172.492 22.906 173.988 22.906C175.529 22.906 176.821 22.362 177.864 21.274C178.907 20.1633 179.428 18.792 179.428 17.16C179.428 15.5053 178.907 14.1453 177.864 13.08C176.821 11.9693 175.529 11.414 173.988 11.414ZM187.207 19.472V8.32H190.743V18.486C190.743 19.778 191.173 20.8773 192.035 21.784C192.941 22.6453 194.029 23.076 195.299 23.076C196.636 23.076 197.769 22.634 198.699 21.75C199.605 20.866 200.059 19.7667 200.059 18.452V8.32H203.595V26H200.059V23.484C198.699 25.456 196.772 26.442 194.279 26.442C192.216 26.442 190.527 25.7847 189.213 24.47C187.875 23.1327 187.207 21.4667 187.207 19.472ZM224.929 13.454L221.359 14.508C220.905 13.556 220.237 12.808 219.353 12.264C218.469 11.6973 217.46 11.414 216.327 11.414C214.74 11.414 213.403 11.9693 212.315 13.08C211.249 14.1907 210.717 15.5507 210.717 17.16C210.717 18.7693 211.249 20.1407 212.315 21.274C213.403 22.362 214.74 22.906 216.327 22.906C217.46 22.906 218.469 22.634 219.353 22.09C220.237 21.5233 220.905 20.764 221.359 19.812L224.929 20.866C224.226 22.566 223.104 23.926 221.563 24.946C220.044 25.9433 218.299 26.442 216.327 26.442C213.675 26.442 211.465 25.558 209.697 23.79C207.929 22.022 207.045 19.812 207.045 17.16C207.045 14.508 207.929 12.298 209.697 10.53C211.465 8.762 213.675 7.878 216.327 7.878C218.299 7.878 220.044 8.388 221.563 9.408C223.104 10.4053 224.226 11.754 224.929 13.454ZM226.314 11.414V8.32H229V4.818H232.536V8.32H237.228V11.414H232.536V20.118C232.536 20.8207 232.763 21.41 233.216 21.886C233.67 22.362 234.236 22.6 234.916 22.6H237.228V26H234.644C233.058 26 231.72 25.49 230.632 24.47C229.544 23.4047 229 22.1127 229 20.594V11.414H226.314ZM252.879 12.366L249.547 12.944C249.139 11.6293 247.983 10.972 246.079 10.972C245.217 10.972 244.515 11.142 243.971 11.482C243.427 11.822 243.155 12.2867 243.155 12.876C243.155 13.6467 243.721 14.236 244.855 14.644L248.833 16.004C250.351 16.5707 251.451 17.262 252.131 18.078C252.833 18.894 253.185 19.9027 253.185 21.104C253.185 22.804 252.561 24.1187 251.315 25.048C250.068 25.9773 248.425 26.442 246.385 26.442C244.39 26.442 242.769 26.0113 241.523 25.15C240.276 24.266 239.528 23.0533 239.279 21.512L242.611 21.002C242.769 21.7047 243.189 22.2713 243.869 22.702C244.549 23.1327 245.41 23.348 246.453 23.348C247.427 23.348 248.221 23.1553 248.833 22.77C249.467 22.3847 249.785 21.8633 249.785 21.206C249.785 20.3673 249.071 19.6873 247.643 19.166L243.699 17.84C242.316 17.364 241.307 16.752 240.673 16.004C240.061 15.256 239.755 14.304 239.755 13.148C239.755 11.448 240.355 10.1447 241.557 9.238C242.758 8.33133 244.356 7.878 246.351 7.878C248.141 7.878 249.615 8.286 250.771 9.102C251.927 9.89533 252.629 10.9833 252.879 12.366ZM271.247 26L263.801 8.32H267.439L272.913 21.478L278.353 8.32H281.991L274.545 26H271.247ZM288.029 26H284.493V8.32H288.029V26ZM284.595 5.702C284.164 5.24867 283.949 4.69333 283.949 4.036C283.949 3.37867 284.164 2.82333 284.595 2.37C285.048 1.91667 285.603 1.69 286.261 1.69C286.918 1.69 287.473 1.91667 287.927 2.37C288.38 2.82333 288.607 3.37867 288.607 4.036C288.607 4.69333 288.38 5.24867 287.927 5.702C287.473 6.15533 286.918 6.382 286.261 6.382C285.603 6.382 285.048 6.15533 284.595 5.702ZM309.773 18.452H295.085C295.357 19.8347 296.026 20.968 297.091 21.852C298.179 22.7133 299.46 23.144 300.933 23.144C302.928 23.144 304.492 22.4073 305.625 20.934L309.093 21.988C308.277 23.3707 307.144 24.4587 305.693 25.252C304.265 26.0453 302.678 26.442 300.933 26.442C298.213 26.442 295.958 25.558 294.167 23.79C292.354 22.022 291.447 19.812 291.447 17.16C291.447 14.5307 292.32 12.3207 294.065 10.53C295.833 8.762 298.032 7.878 300.661 7.878C303.29 7.878 305.466 8.762 307.189 10.53C308.957 12.298 309.841 14.508 309.841 17.16C309.841 17.2507 309.818 17.6813 309.773 18.452ZM295.119 15.63H306.203C305.886 14.3153 305.206 13.25 304.163 12.434C303.12 11.5953 301.919 11.176 300.559 11.176C299.267 11.176 298.111 11.5953 297.091 12.434C296.094 13.25 295.436 14.3153 295.119 15.63ZM319.66 26H316.532L310.65 8.32H314.22L318.062 20.526L321.904 8.32H325.1L328.908 20.526L332.784 8.32H336.354L330.472 26H327.31L323.502 14.202L319.66 26ZM355.759 18.452H341.071C341.343 19.8347 342.012 20.968 343.077 21.852C344.165 22.7133 345.446 23.144 346.919 23.144C348.914 23.144 350.478 22.4073 351.611 20.934L355.079 21.988C354.263 23.3707 353.13 24.4587 351.679 25.252C350.251 26.0453 348.665 26.442 346.919 26.442C344.199 26.442 341.944 25.558 340.153 23.79C338.34 22.022 337.433 19.812 337.433 17.16C337.433 14.5307 338.306 12.3207 340.051 10.53C341.819 8.762 344.018 7.878 346.647 7.878C349.277 7.878 351.453 8.762 353.175 10.53C354.943 12.298 355.827 14.508 355.827 17.16C355.827 17.2507 355.805 17.6813 355.759 18.452ZM341.105 15.63H352.189C351.872 14.3153 351.192 13.25 350.149 12.434C349.107 11.5953 347.905 11.176 346.545 11.176C345.253 11.176 344.097 11.5953 343.077 12.434C342.08 13.25 341.423 14.3153 341.105 15.63ZM366.889 7.878C369.179 7.878 371.139 8.66 372.771 10.224V0.499998H376.307V26H372.771V24.096C371.139 25.66 369.179 26.442 366.889 26.442C364.419 26.442 362.345 25.558 360.667 23.79C359.013 22.0447 358.185 19.8347 358.185 17.16C358.185 14.4853 359.013 12.2753 360.667 10.53C362.345 8.762 364.419 7.878 366.889 7.878ZM367.263 11.414C365.745 11.414 364.464 11.9693 363.421 13.08C362.379 14.1453 361.857 15.5053 361.857 17.16C361.857 18.792 362.379 20.1633 363.421 21.274C364.487 22.362 365.767 22.906 367.263 22.906C368.805 22.906 370.097 22.362 371.139 21.274C372.182 20.1633 372.703 18.792 372.703 17.16C372.703 15.5053 372.182 14.1453 371.139 13.08C370.097 11.9693 368.805 11.414 367.263 11.414Z" fill="black"/>
</svg>
