<svg width="339" height="50" viewBox="0 0 339 50" fill="none" xmlns="http://www.w3.org/2000/svg">
<path d="M35.6184 39.0539V39.1539C35.6184 39.1754 35.6184 39.1962 35.6171 39.2177C35.6171 39.162 35.6184 39.109 35.6184 39.0539Z" fill="url(#paint0_linear_6_60)"/>
<path d="M35.6164 39.2727V39.2794C35.6177 39.2807 35.6177 39.2821 35.6164 39.2834C35.6177 39.2848 35.6177 39.2861 35.6164 39.2888V39.3385L35.6137 39.3767C35.5781 40.7082 35.209 41.9585 34.5876 43.0451C34.3144 43.5256 33.9903 43.9739 33.6205 44.3826C33.4272 44.6014 33.2191 44.8081 33.0004 45.0027C32.9634 45.0376 32.9259 45.0719 32.8876 45.1041C31.5615 46.2443 29.8488 46.9503 27.973 46.9966H27.6233C26.024 46.9543 24.5932 46.2302 23.614 45.1041C23.1221 44.5403 22.7416 43.8739 22.5134 43.1424L22.3879 43.9075C22.3275 44.2725 22.2738 44.639 22.247 45.0081C22.1638 46.1584 21.6705 46.6584 21.1886 46.8698C20.9799 46.9631 20.7504 46.9993 20.5222 46.9993H13.256C12.6768 46.9993 12.3781 46.2859 12.8009 45.8913C12.8009 45.8913 12.8023 45.8913 12.8036 45.89C13.1318 45.5839 13.7835 45.2786 15.0089 45.0598C15.0089 45.0598 18.3733 44.441 18.3733 42.2411L18.3155 41.2995L18.282 40.7498L18.1565 38.6962C18.3216 38.5499 18.4833 38.4016 18.6397 38.2526C19.3571 37.566 19.9873 36.8345 20.5396 36.0835C20.5396 36.0835 20.5396 36.0835 20.5396 36.0822C20.8712 35.6312 21.1752 35.1748 21.453 34.7151C21.7503 34.2272 22.0181 33.7359 22.2604 33.248C22.3221 33.1225 22.3832 32.9984 22.4409 32.8749C22.5 32.7507 22.5577 32.6266 22.6127 32.5031C22.6691 32.3789 22.7228 32.2568 22.7718 32.1353C22.8268 32.0125 22.8772 31.8917 22.9241 31.7702C22.9718 31.6575 23.0154 31.5461 23.0584 31.436C23.2006 31.0682 23.3302 30.7072 23.4456 30.3582C23.4765 30.2662 23.506 30.1736 23.5342 30.083C23.5664 29.9844 23.5959 29.8871 23.6255 29.7897C23.6845 29.5965 23.7369 29.4079 23.7906 29.2233C23.8161 29.13 23.8402 29.0388 23.8637 28.9502C23.8751 28.9079 23.8865 28.8656 23.8959 28.8247C23.9281 28.7019 23.9577 28.5824 23.9858 28.4649C23.9885 28.4509 23.9926 28.4368 23.9959 28.424C24.0295 28.4368 24.0637 28.4509 24.0986 28.4649C24.1436 28.4831 24.1899 28.5032 24.2395 28.5227C24.2858 28.5421 24.3355 28.5636 24.3879 28.5858C24.4905 28.6294 24.6006 28.6804 24.7147 28.7341C24.7556 28.7522 24.7966 28.7723 24.8388 28.7918C25.0576 28.8958 25.2986 29.0173 25.5643 29.1582C25.7516 29.2582 25.9502 29.3669 26.163 29.4864C26.2193 29.5186 26.2784 29.5515 26.3348 29.5851C26.3952 29.6186 26.4562 29.6542 26.5166 29.6891C26.8227 29.8669 27.1535 30.0669 27.5119 30.2877C27.5488 30.3105 27.5851 30.3327 27.622 30.3568C27.7039 30.4078 27.7857 30.4595 27.8716 30.5132C28.3408 30.8105 28.8481 31.1461 29.4052 31.5226C29.483 31.5749 29.5615 31.6279 29.6407 31.683C29.6407 31.683 29.6615 31.6944 29.6998 31.7165C29.7065 31.7192 29.7125 31.7239 29.7179 31.7293C29.7266 31.7333 29.7347 31.738 29.7434 31.7434C29.7743 31.7628 29.8112 31.7857 29.8561 31.8138C29.887 31.8333 29.9212 31.8548 29.9575 31.8776C29.9803 31.8917 30.0051 31.9071 30.0293 31.9253C30.0743 31.9521 30.1206 31.983 30.1702 32.0152C30.2716 32.0816 30.3816 32.1561 30.5045 32.2407C30.534 32.2601 30.5662 32.2816 30.5991 32.3038C30.881 32.5011 31.2138 32.7434 31.5675 33.0239C31.6071 33.0534 31.6467 33.0856 31.6856 33.1185C31.7252 33.1494 31.7648 33.1816 31.8058 33.2158C31.8467 33.248 31.8863 33.2823 31.9272 33.3158C31.9682 33.3494 32.0091 33.3836 32.05 33.4198C32.1306 33.4863 32.2091 33.5554 32.2896 33.6259C32.3729 33.7004 32.4614 33.7782 32.546 33.8581C32.5883 33.895 32.6306 33.9339 32.6728 33.9735C32.7547 34.0514 32.8393 34.1312 32.9225 34.2131C33.1299 34.4158 33.3366 34.6285 33.5359 34.8513C33.5768 34.895 33.6164 34.9399 33.654 34.9849C33.6923 35.0272 33.7299 35.0695 33.7641 35.1131C33.7654 35.1144 33.7681 35.1158 33.7681 35.1171L33.7708 35.1211C33.803 35.158 33.8359 35.1943 33.8641 35.2325C33.8822 35.2533 33.9023 35.2762 33.9178 35.2976C33.9473 35.3325 33.9768 35.3681 34.0023 35.403C34.0419 35.4493 34.0782 35.4963 34.1137 35.5439C34.1507 35.5916 34.1869 35.6399 34.2225 35.6876C34.2594 35.7352 34.2943 35.7849 34.3278 35.8339C34.3627 35.8835 34.3983 35.9325 34.4319 35.9822C34.5345 36.1305 34.6318 36.2822 34.7225 36.4372C34.7547 36.4896 34.7862 36.5399 34.8137 36.5922C34.8433 36.6446 34.8714 36.6963 34.901 36.7499C34.9305 36.8023 34.9573 36.854 34.9842 36.9077C35.0097 36.9613 35.0379 37.015 35.062 37.0681C35.0916 37.1271 35.1184 37.1862 35.1439 37.2459C35.1889 37.3472 35.2325 37.4499 35.2721 37.5546V37.556C35.309 37.656 35.3439 37.756 35.3761 37.8573C35.3969 37.9264 35.4184 37.9955 35.4352 38.0647C35.452 38.117 35.4647 38.1687 35.4775 38.221C35.4788 38.2251 35.4801 38.2298 35.4801 38.2325C35.4902 38.2707 35.4969 38.3069 35.5057 38.3452C35.5157 38.3848 35.5238 38.4244 35.5312 38.4633C35.5352 38.4814 35.5379 38.5002 35.5412 38.517C35.5479 38.5526 35.554 38.5861 35.558 38.6197C35.5647 38.6606 35.5707 38.7016 35.5761 38.7425C35.5828 38.7915 35.5889 38.8412 35.5942 38.8902C35.5996 38.9492 35.603 39.0083 35.6083 39.0693C35.611 39.1398 35.6137 39.2063 35.6164 39.2727Z" fill="url(#paint1_linear_6_60)"/>
<path d="M29.6992 31.7179C29.6609 31.6951 29.6401 31.6843 29.6401 31.6843C29.5609 31.6293 29.4824 31.5756 29.4045 31.5239C29.5019 31.5897 29.6005 31.6548 29.6992 31.7179Z" fill="url(#paint2_linear_6_60)"/>
<path d="M23.9959 28.4247C23.9932 28.4375 23.9885 28.4516 23.9858 28.4657C23.9476 28.622 23.9066 28.7844 23.863 28.9502C23.8402 29.0388 23.8154 29.1307 23.7899 29.2234C23.7375 29.4079 23.6845 29.5965 23.6248 29.7898C23.5952 29.8871 23.5657 29.9844 23.5328 30.0831C23.5046 30.173 23.4751 30.2663 23.4442 30.3575C23.3288 30.7072 23.2006 31.0676 23.057 31.436C23.0147 31.5461 22.9711 31.6575 22.9248 31.7703C22.8751 31.8917 22.8248 32.0125 22.7724 32.1353C22.7201 32.2582 22.6671 32.3803 22.612 32.5031C22.557 32.6273 22.4993 32.7514 22.4402 32.8749C22.3825 32.9991 22.3221 33.1232 22.2597 33.2481C21.3282 35.1239 20.0134 37.0587 18.1571 38.6962L17.8276 33.2957C17.8276 33.2957 17.8263 33.2293 17.8303 33.1112C17.8303 33.0816 17.8316 33.0494 17.8343 33.0138C17.8357 32.9742 17.8383 32.932 17.843 32.887C17.8444 32.8588 17.8471 32.8293 17.8504 32.7984C17.8504 32.7897 17.8518 32.7803 17.8531 32.7702C17.8571 32.7253 17.8618 32.6769 17.8685 32.6266C17.8699 32.6125 17.8712 32.5984 17.8726 32.5843C17.8739 32.5816 17.8739 32.5769 17.8739 32.5729C17.8793 32.532 17.8853 32.4897 17.892 32.4461C17.8974 32.3984 17.9061 32.3488 17.9149 32.2978C17.9236 32.2528 17.9316 32.2045 17.9417 32.1568C17.943 32.1515 17.943 32.1441 17.9444 32.1387C17.9471 32.1206 17.9498 32.1018 17.9558 32.0837C17.9612 32.0528 17.9685 32.0219 17.9753 31.989C17.9853 31.9414 17.9981 31.8904 18.0102 31.8407C18.0216 31.7897 18.0357 31.7394 18.0497 31.687C18.0638 31.6347 18.0779 31.583 18.0947 31.5307C18.1101 31.477 18.1269 31.4233 18.1457 31.3703C18.1625 31.3179 18.1813 31.2662 18.2008 31.2126C18.2008 31.2112 18.2021 31.2085 18.2034 31.2052C18.2289 31.136 18.2558 31.0669 18.284 30.9978C18.2927 30.9736 18.3034 30.9515 18.3135 30.9273C18.3236 30.9045 18.335 30.881 18.3444 30.8569C18.3712 30.7965 18.4007 30.7354 18.4303 30.675C18.4471 30.6381 18.4652 30.6032 18.484 30.5676C18.4893 30.5549 18.4967 30.5434 18.5034 30.5327C18.5316 30.4804 18.5598 30.4287 18.5907 30.3763C18.6202 30.324 18.6511 30.2737 18.6853 30.2213C18.7175 30.1703 18.7517 30.12 18.7866 30.069C18.8189 30.0213 18.8531 29.9743 18.8866 29.9294C18.9262 29.877 18.9672 29.8253 19.0095 29.7743C19.0631 29.7092 19.1195 29.6462 19.1772 29.5824C19.2121 29.5441 19.249 29.5079 19.286 29.471C19.3282 29.4287 19.3719 29.3864 19.4168 29.3455C19.4195 29.3428 19.4242 29.3381 19.4269 29.3368V29.3354C19.4477 29.316 19.4692 29.2958 19.492 29.2791C19.5175 29.2562 19.543 29.2341 19.5698 29.2126C19.6007 29.1871 19.6302 29.1616 19.6631 29.1381C19.698 29.1099 19.7349 29.0817 19.7732 29.0549C19.8014 29.0334 19.8296 29.014 19.8591 28.9945C19.8926 28.9703 19.9269 28.9482 19.9618 28.9254C20.0014 28.8985 20.0423 28.873 20.0846 28.8495C20.1155 28.8314 20.1463 28.8126 20.1792 28.7945C20.2114 28.7764 20.2443 28.7596 20.2765 28.7408C20.343 28.7059 20.4101 28.6717 20.4792 28.6408C20.5128 28.624 20.5483 28.6086 20.5832 28.5932C20.655 28.5623 20.7269 28.5328 20.802 28.5046C20.8389 28.4905 20.8765 28.4764 20.9161 28.4636H20.9175C20.9262 28.4596 20.9342 28.4563 20.943 28.4536C20.9483 28.4522 20.953 28.4495 20.9584 28.4482C20.9638 28.4469 20.9685 28.4455 20.9738 28.4442C20.9906 28.4375 21.0087 28.4314 21.0275 28.4261C21.0517 28.4173 21.0752 28.4106 21.098 28.4032C21.1799 28.3777 21.2644 28.3542 21.3503 28.3328C21.4 28.32 21.4503 28.3086 21.5027 28.2979C21.5617 28.2838 21.6208 28.271 21.6832 28.2596C21.7154 28.2542 21.7483 28.2482 21.7819 28.2428C21.8188 28.2355 21.8564 28.2301 21.8946 28.2247C22.0127 28.2066 22.1355 28.1912 22.261 28.1798C22.4879 28.1569 22.7261 28.1462 22.9771 28.1475C22.9751 28.1482 23.2449 28.1328 23.9959 28.4247Z" fill="url(#paint3_linear_6_60)"/>
<path d="M24.4858 25.5496C24.4858 25.5496 24.41 26.708 23.9966 28.4247C23.9939 28.4374 23.9899 28.4515 23.9865 28.4656C23.9778 28.5025 23.9684 28.5388 23.9583 28.577C23.9288 28.6985 23.8979 28.8233 23.8637 28.9502C23.8396 29.0388 23.8161 29.1307 23.7906 29.2233C23.7369 29.4079 23.6852 29.5965 23.6255 29.7898C23.5959 29.8871 23.5664 29.9844 23.5342 30.083C23.506 30.173 23.4765 30.2663 23.4456 30.3582C23.3302 30.7079 23.2006 31.0682 23.0584 31.436C23.0161 31.5461 22.9725 31.6575 22.9241 31.7702C22.8765 31.8917 22.8241 32.0125 22.7718 32.1353C22.7208 32.2581 22.6664 32.3803 22.6127 32.5031C22.5577 32.6273 22.5 32.7514 22.4409 32.8749C22.3832 32.9991 22.3228 33.1232 22.2604 33.248C21.3275 35.1238 20.0142 37.0587 18.1565 38.6969C17.7001 39.1029 17.2109 39.4888 16.6854 39.8512C16.5532 39.9425 16.419 40.0317 16.2821 40.1203C15.9579 40.3304 15.6452 40.5586 15.3432 40.8008L9.2742 45.7195C8.25275 46.5483 6.97829 46.9993 5.66222 46.9993H1.87575C1.56033 46.9993 1.25429 46.8483 1.09054 46.5779C0.944236 46.3329 0.911351 46.0088 1.35563 45.6772C1.38919 45.6504 1.4261 45.6262 1.46301 45.6041C1.46301 45.6041 1.46972 45.6 1.48248 45.5927C1.63348 45.5014 1.8026 45.439 1.97575 45.3967C2.014 45.388 2.05494 45.3786 2.10125 45.3672C2.12675 45.3618 2.15225 45.3544 2.1791 45.3477C2.30997 45.3155 2.46634 45.2745 2.64419 45.2262C3.62402 44.9584 5.25552 44.4397 6.81454 43.6196C8.08833 42.9471 9.31312 42.0733 10.091 40.97C10.091 40.97 14.2868 35.7849 15.6297 31.2682H15.6311C15.7633 30.8213 15.8693 30.3817 15.9371 29.9535C15.9398 29.9535 15.9398 29.9522 15.9398 29.9522C15.9512 29.879 15.9626 29.8059 15.972 29.732C15.9975 29.5388 16.0129 29.3475 16.0183 29.1542C16.027 28.9032 16.0183 28.6522 16.0029 28.4019C15.9874 28.175 15.9707 27.861 15.966 27.4885C15.9592 26.816 15.9888 25.955 16.1264 25.0698C16.1364 25.0047 16.1472 24.9402 16.1586 24.8751C16.17 24.81 16.1814 24.7456 16.1935 24.6805C16.2176 24.5483 16.2472 24.4141 16.2794 24.2819C16.2908 24.2295 16.3022 24.1792 16.3176 24.1282C16.3344 24.0537 16.3559 23.9805 16.3753 23.9067C16.4102 23.7785 16.4512 23.653 16.4935 23.5275C16.5384 23.3967 16.5867 23.2651 16.6384 23.1383C16.6565 23.0906 16.678 23.0423 16.6988 22.996C16.7028 22.9846 16.7075 22.9732 16.7129 22.9624C16.7337 22.9161 16.7552 22.8692 16.778 22.8242C16.8599 22.6484 16.9512 22.4792 17.0532 22.3168C17.08 22.2692 17.1095 22.2222 17.1431 22.1772C17.1726 22.1323 17.2035 22.0873 17.2377 22.0417C17.3236 21.9215 17.4196 21.8061 17.5196 21.698C17.5297 21.6866 17.5404 21.6739 17.5518 21.6631C17.584 21.6296 17.6169 21.5967 17.6491 21.5645C17.6558 21.5578 17.6646 21.5491 17.6719 21.5417C17.7089 21.5068 17.7464 21.4712 17.7847 21.4376C17.8283 21.3994 17.8706 21.3645 17.9142 21.3289C18.0015 21.2598 18.0934 21.1967 18.186 21.1356C18.2296 21.1075 18.2746 21.0806 18.3196 21.0538C18.3659 21.0269 18.4155 21.0001 18.4679 20.9746C18.5115 20.9518 18.5565 20.931 18.6014 20.9115C18.6209 20.9014 18.641 20.8934 18.6592 20.886C18.6618 20.8833 18.6618 20.8833 18.6645 20.8833C18.7028 20.8665 18.7404 20.8511 18.78 20.837C18.835 20.8142 18.8927 20.7961 18.9518 20.7766C18.9545 20.7752 18.9571 20.7753 18.9618 20.7739C18.9706 20.7712 18.9813 20.7685 18.9914 20.7652C19.0142 20.7565 19.039 20.7511 19.0632 20.7444C19.0699 20.743 19.08 20.7404 19.0873 20.737C19.0941 20.7357 19.1001 20.7343 19.1041 20.733C19.131 20.7276 19.1551 20.7202 19.1813 20.7149C19.2108 20.7075 19.2404 20.7008 19.2712 20.6954C19.539 20.643 19.8169 20.6276 20.0927 20.6417C20.1645 20.643 20.2363 20.6484 20.3081 20.6558C20.439 20.6712 20.59 20.694 20.7564 20.7249C20.79 20.7323 20.8242 20.7377 20.8591 20.7457C20.9363 20.7612 21.0155 20.7793 21.096 20.8008H21.0974C21.1624 20.8162 21.2296 20.8343 21.2987 20.8544C21.3437 20.8672 21.3906 20.8813 21.4356 20.8954C21.4383 20.8967 21.441 20.8967 21.4443 20.8981C21.4477 20.8994 21.451 20.9007 21.4571 20.9021C21.4826 20.9095 21.5067 20.9175 21.5316 20.9263C21.7685 21.0041 22.0134 21.1041 22.257 21.2276C23.461 21.8417 24.6181 23.0738 24.4858 25.5496Z" fill="url(#paint4_linear_6_60)"/>
<path d="M35.6178 30.5132V39.0539C35.6178 39.109 35.6164 39.1627 35.6164 39.2177C35.6178 39.2358 35.6164 39.2546 35.6151 39.2727C35.6137 39.2063 35.6111 39.1405 35.6064 39.0741C35.6037 39.015 35.5976 38.9546 35.5923 38.8949C35.5869 38.8459 35.5809 38.7962 35.5742 38.7472C35.5701 38.7063 35.5627 38.6654 35.556 38.6244C35.552 38.5909 35.546 38.5566 35.5393 38.5217C35.5366 38.505 35.5339 38.4868 35.5292 38.468C35.5225 38.4284 35.5137 38.3889 35.5037 38.3499C35.4963 38.3117 35.4882 38.2754 35.4782 38.2372C35.4782 38.2345 35.4768 38.2298 35.4755 38.2258C35.4641 38.1734 35.45 38.1217 35.4346 38.0694C35.4164 38.0003 35.3963 37.9311 35.3742 37.862C35.3433 37.7607 35.3077 37.6607 35.2701 37.5607V37.5593C35.2305 37.4553 35.1883 37.352 35.1419 37.2506C35.1164 37.1916 35.0896 37.1325 35.0601 37.0728C35.0359 37.0191 35.0091 36.9654 34.9829 36.9124C34.956 36.8587 34.9292 36.807 34.8997 36.7547C34.8728 36.701 34.8433 36.6486 34.8124 36.597C34.7842 36.5446 34.7534 36.4943 34.7225 36.4419C34.6312 36.2869 34.5339 36.1346 34.4306 35.9869C34.397 35.9372 34.3614 35.8883 34.3265 35.8386C34.293 35.7889 34.2574 35.7399 34.2212 35.6923C34.1863 35.6446 34.1494 35.5963 34.1124 35.5487C34.0775 35.501 34.0406 35.454 34.001 35.4077C33.9755 35.3728 33.9474 35.3373 33.9165 35.3024C33.901 35.2816 33.8829 35.2587 33.8628 35.2373C33.8346 35.199 33.8024 35.1628 33.7715 35.1259L33.7675 35.1218C33.7675 35.1205 33.7648 35.1191 33.7635 35.1178C33.7299 35.0742 33.6917 35.0319 33.6534 34.9896C33.6151 34.9447 33.5755 34.8997 33.5353 34.8561C33.4031 34.7078 33.2675 34.5641 33.1306 34.4245C33.0601 34.3541 32.991 34.2849 32.9219 34.2172C32.8387 34.1339 32.7554 34.0554 32.6722 33.9776C32.6299 33.938 32.5877 33.8984 32.5467 33.8621C32.4608 33.7816 32.3736 33.7044 32.289 33.6299C32.2085 33.5595 32.13 33.4903 32.0494 33.4239C32.0085 33.387 31.9675 33.3534 31.9266 33.3199C31.8857 33.2863 31.8461 33.2521 31.8051 33.2199C31.7642 33.1863 31.7246 33.1534 31.685 33.1226C31.6454 33.0903 31.6058 33.0575 31.5669 33.0279C31.2132 32.7474 30.8817 32.5051 30.5985 32.3078C30.5662 32.285 30.5347 32.2642 30.5052 32.2447C30.3824 32.1602 30.2709 32.0857 30.1709 32.0192C30.1199 31.987 30.0736 31.9555 30.03 31.9293C30.0045 31.9112 29.979 31.8958 29.9569 31.8817C29.9199 31.8575 29.8864 31.8367 29.8555 31.8179C29.8106 31.7897 29.7736 31.7669 29.7428 31.7474C29.7341 31.7421 29.7273 31.7374 29.7186 31.7333C29.7119 31.728 29.7059 31.7233 29.6992 31.7206C29.6005 31.6575 29.5018 31.5924 29.4045 31.526C28.8495 31.1495 28.3408 30.8146 27.871 30.5166C27.7865 30.4629 27.7032 30.4112 27.6214 30.3602C27.5844 30.3361 27.5482 30.3139 27.5113 30.2911C27.1549 30.0696 26.8234 29.8696 26.516 29.6925C26.4556 29.6555 26.3945 29.622 26.3355 29.5884C26.2764 29.5549 26.2187 29.5207 26.1623 29.4898C25.6483 29.1992 25.2093 28.9723 24.8375 28.7952C24.7953 28.7757 24.7543 28.7556 24.7147 28.7375C24.5993 28.6838 24.4892 28.6334 24.3866 28.5891C24.3355 28.5663 24.2866 28.5455 24.2389 28.5261C24.1892 28.5066 24.1429 28.4865 24.098 28.4683C24.0631 28.4542 24.0288 28.4401 23.9953 28.4274C24.408 26.7107 24.4845 25.5523 24.4845 25.5523C24.5027 25.2181 24.4973 24.9067 24.4718 24.6168C24.3053 22.7551 23.298 21.7611 22.2591 21.2316C22.0155 21.1075 21.7698 21.0075 21.5336 20.9303C21.5014 20.9189 21.4705 20.9095 21.439 20.8994C21.3927 20.8853 21.3457 20.8712 21.3007 20.8585C21.2316 20.839 21.1652 20.8202 21.0994 20.8048L21.0148 20.784C20.9625 20.7712 20.9122 20.7598 20.8611 20.7504C20.8263 20.7417 20.792 20.7363 20.7585 20.7296C20.6612 20.7115 20.5665 20.6961 20.4806 20.6833C20.4202 20.6746 20.3638 20.6665 20.3102 20.6605C20.0988 20.635 19.9384 20.6283 19.8525 20.6269H19.8397C19.8048 20.6256 19.7847 20.6256 19.7847 20.6256C19.7337 20.6296 19.6833 20.6343 19.6323 20.641C19.5082 20.6551 19.3887 20.6733 19.2726 20.7001C19.2417 20.7055 19.2122 20.7129 19.1827 20.7196C19.1572 20.7249 19.1317 20.7323 19.1048 20.7377C19.1008 20.739 19.0948 20.7404 19.0894 20.7417C19.0807 20.7444 19.0726 20.7471 19.0639 20.7491C19.0397 20.7558 19.0162 20.7618 18.9921 20.7699C18.982 20.7726 18.9713 20.7753 18.9625 20.7786C18.9585 20.78 18.9552 20.78 18.9525 20.7813C18.8934 20.8008 18.837 20.8196 18.7807 20.8417C18.7411 20.8558 18.7035 20.8712 18.6652 20.888C18.6639 20.888 18.6626 20.888 18.6612 20.8907C18.6417 20.8981 18.6216 20.9061 18.6022 20.9162C18.5558 20.9357 18.5122 20.9571 18.4679 20.9793C18.4169 21.0048 18.3679 21.0303 18.3203 21.0585C18.274 21.084 18.2304 21.1122 18.1861 21.1404C18.0928 21.2008 18.0015 21.2645 17.9143 21.3336C17.8706 21.3685 17.8284 21.4041 17.7861 21.4424C17.7465 21.4759 17.7082 21.5101 17.672 21.5464C17.6653 21.5538 17.6565 21.5618 17.6492 21.5692C17.6156 21.6001 17.5827 21.6343 17.5518 21.6679C17.5404 21.6793 17.529 21.692 17.5196 21.7028C17.4183 21.8115 17.325 21.9256 17.2378 22.0464C17.2055 22.0913 17.1727 22.1363 17.1431 22.1819C17.1109 22.2269 17.0814 22.2732 17.0532 22.3215C16.9519 22.4833 16.8599 22.6524 16.7787 22.8289C16.7546 22.8739 16.7338 22.9208 16.7136 22.9672C16.7082 22.9786 16.7035 22.99 16.6995 23.0007C16.6787 23.047 16.6572 23.0953 16.6391 23.143C16.5868 23.2698 16.5391 23.4007 16.4942 23.5322C16.4888 23.5504 16.4814 23.5671 16.476 23.5859C16.4519 23.6577 16.4297 23.7322 16.4083 23.8061C16.3968 23.841 16.3868 23.8765 16.3774 23.9114C16.3566 23.9846 16.3364 24.0577 16.3183 24.1329C16.3042 24.1839 16.2915 24.2342 16.2801 24.2866C16.2479 24.4188 16.2197 24.553 16.1942 24.6852C16.1814 24.7503 16.17 24.8147 16.1593 24.8798C16.1479 24.9449 16.1365 25.0094 16.1271 25.0745C15.8834 24.394 15.1264 23.2638 12.7896 23.245C12.358 23.241 11.9272 23.2155 11.503 23.1437C10.5957 22.9913 9.20578 22.6477 8.56016 21.9135C8.49707 21.843 8.44204 21.7699 8.39506 21.692C8.40916 21.6947 8.41654 21.696 8.41654 21.696H11.0353C11.1876 21.696 11.3366 21.6732 11.4775 21.6229C11.497 21.6175 11.5171 21.6088 11.5366 21.6001C11.6493 21.5511 11.7708 21.4786 11.8621 21.3719C11.8829 21.3477 11.903 21.3222 11.9198 21.2961V21.2947C11.9466 21.2538 11.9674 21.2102 11.9849 21.1625C11.9889 21.1498 11.9936 21.1383 11.9963 21.1256C11.999 21.1169 12.0003 21.1088 12.0017 21.1001C12.0231 21.0155 12.0272 20.9209 12.0104 20.8128C12.0077 20.7833 12.0017 20.7524 11.9936 20.7209C11.9849 20.6887 11.9768 20.6558 11.9654 20.6223C11.9614 20.6068 11.9554 20.5914 11.95 20.5746C11.946 20.5619 11.9399 20.5478 11.9346 20.535C11.9245 20.5108 11.9151 20.4874 11.9037 20.4619C11.8923 20.4377 11.8809 20.4155 11.8688 20.3927C11.8574 20.3699 11.8446 20.3491 11.8319 20.3296C11.8232 20.3155 11.8151 20.3015 11.805 20.2874C11.7909 20.2666 11.7768 20.2451 11.7614 20.2256C11.7614 20.2243 11.7601 20.2229 11.7587 20.2216C11.7419 20.1974 11.7218 20.1739 11.7024 20.1498C11.6869 20.129 11.6688 20.1088 11.6487 20.0907C11.642 20.0807 11.6319 20.0713 11.6218 20.0612C11.5909 20.029 11.5581 19.9995 11.5245 19.9699C11.4373 19.8981 11.3245 19.7981 11.2158 19.678C11.2017 19.6625 11.1889 19.6485 11.1762 19.633C11.1534 19.6075 11.1339 19.582 11.1131 19.5558C11.0977 19.5364 11.0822 19.5149 11.0668 19.4941C11.0614 19.4887 11.0567 19.4813 11.0527 19.476C11.0514 19.4733 11.0487 19.4706 11.0473 19.4673C11.0332 19.4478 11.0192 19.4277 11.0064 19.4068C10.9936 19.3887 10.9822 19.3686 10.9715 19.3491C10.9587 19.331 10.9487 19.3109 10.9379 19.2901C10.8829 19.1861 10.8393 19.0733 10.8165 18.9559C10.8098 18.9263 10.8051 18.8955 10.8024 18.8646C10.7984 18.8337 10.797 18.8015 10.797 18.7686C10.797 18.6854 10.8084 18.6008 10.8339 18.5136C10.844 18.48 10.8567 18.4445 10.8708 18.4096C10.8762 18.3982 10.8809 18.3867 10.8863 18.376C10.8903 18.3646 10.8963 18.3518 10.903 18.3411C10.9084 18.3297 10.9145 18.3169 10.9212 18.3062C10.9299 18.2908 10.9379 18.2753 10.948 18.2599C10.9494 18.2572 10.9507 18.2559 10.952 18.2525C10.9735 18.2203 10.9957 18.1861 11.0212 18.1539C11.0212 18.1512 11.0238 18.1498 11.0252 18.1465C11.0393 18.1284 11.0534 18.1116 11.0688 18.0928C11.0983 18.0579 11.1326 18.021 11.1675 17.9854C11.1856 17.9673 11.2044 17.9505 11.2238 17.9317C11.2493 17.9076 11.2775 17.8841 11.3057 17.8599C11.3326 17.8371 11.3608 17.8149 11.3903 17.7921C11.4225 17.7693 11.4567 17.7458 11.4903 17.7217C11.5225 17.6988 11.5567 17.6767 11.5916 17.6539C11.593 17.6525 11.5943 17.6525 11.597 17.6512C11.6339 17.627 11.6715 17.6049 11.7111 17.5821C11.7379 17.5653 11.7661 17.5499 11.7943 17.5344C11.8044 17.5291 11.8151 17.523 11.8265 17.5176C11.8493 17.5049 11.8728 17.4921 11.897 17.4807C11.9211 17.468 11.9446 17.4552 11.9688 17.4438C12.0151 17.4197 12.0634 17.3975 12.1124 17.3747C12.1164 17.3734 12.1211 17.3707 12.1252 17.3673C12.5057 17.1915 12.8412 16.925 13.0708 16.5781C13.1258 16.4949 13.1761 16.4049 13.2191 16.3116C13.2292 16.2922 13.2372 16.272 13.2446 16.2526C13.2513 16.2358 13.2587 16.2177 13.2654 16.1989C13.2694 16.1848 13.2755 16.1707 13.2795 16.1553C13.2882 16.1284 13.2963 16.1002 13.3023 16.0734C13.3097 16.0506 13.3137 16.0284 13.3177 16.0056C13.3218 15.9801 13.3265 15.9546 13.3278 15.9311C13.3547 15.6774 13.2781 15.4184 13.0177 15.1882C12.9755 15.1499 12.9278 15.1137 12.8741 15.0781C12.8392 15.054 12.801 15.0305 12.76 15.0076C12.7191 14.9835 12.6768 14.9613 12.6305 14.9399C12.5855 14.917 12.5372 14.8962 12.4869 14.8748C12.4614 14.8647 12.4345 14.854 12.4077 14.8439C12.354 14.8231 12.2976 14.803 12.2386 14.7848C12.209 14.7748 12.1782 14.7667 12.1473 14.7566C12.0856 14.7385 12.0205 14.7197 11.9513 14.703C11.9178 14.6942 11.8822 14.6862 11.8473 14.6775H8.65814C8.40983 14.6775 8.16487 14.5828 8.00313 14.3942C7.76085 14.1137 7.65616 13.5996 8.55009 12.748C8.99974 12.3185 9.52658 11.9769 10.099 11.7332C10.1453 11.7138 10.195 11.6936 10.2453 11.6728C12.8768 10.6185 15.8096 11.2151 17.8753 13.0258C18.3196 13.4131 18.7236 13.8573 19.076 14.3533C19.2833 14.6466 19.4847 14.9647 19.6706 15.3117C19.9719 15.8794 20.3739 16.3841 20.8491 16.7969C21.4732 17.3411 22.2262 17.727 23.0564 17.8935C23.1242 17.9076 23.1933 17.9203 23.2638 17.9317C23.2651 17.9317 23.2651 17.9317 23.2665 17.9317C23.2691 17.9331 23.2738 17.9331 23.2765 17.9331H23.2805C23.3329 17.9344 23.3846 17.9358 23.4356 17.9371C23.7893 17.9472 24.1376 17.972 24.4812 18.0129C24.8389 18.0539 25.1926 18.1102 25.5422 18.1807C25.659 18.2049 25.7764 18.2297 25.8932 18.2565C27.4502 18.619 28.8965 19.2686 30.1716 20.1491C32.9736 22.0799 34.9534 25.1188 35.4809 28.6321C35.5701 29.2421 35.6178 29.8723 35.6178 30.5132Z" fill="url(#paint5_linear_6_60)"/>
<path d="M29.6992 31.7179C29.6609 31.6951 29.6401 31.6843 29.6401 31.6843C29.5609 31.6293 29.4824 31.5756 29.4045 31.5239C29.5019 31.5897 29.6005 31.6548 29.6992 31.7179Z" fill="url(#paint6_linear_6_60)"/>
<path d="M13.3258 15.925C13.3245 15.9492 13.3205 15.974 13.3158 15.9995C13.3117 16.0224 13.307 16.0445 13.3003 16.0673C13.295 16.0942 13.2862 16.1224 13.2775 16.1492C13.2735 16.1646 13.2674 16.1787 13.2634 16.1928C13.256 16.2109 13.2493 16.2297 13.2419 16.2465C13.2352 16.266 13.2265 16.2861 13.2164 16.3056C13.1742 16.3989 13.1231 16.4888 13.0681 16.572C12.8386 16.919 12.503 17.1854 12.1225 17.3612C12.1185 17.3639 12.1138 17.3666 12.1098 17.3686C12.0601 17.3914 12.0124 17.4136 11.9661 17.4377C11.942 17.4492 11.9185 17.4619 11.8943 17.4747C11.8702 17.4861 11.8467 17.4988 11.8239 17.5116C11.8124 17.5169 11.801 17.523 11.7916 17.5284C11.7635 17.5438 11.7353 17.5592 11.7084 17.576C11.6688 17.5988 11.6306 17.621 11.5943 17.6451C11.5916 17.6465 11.5903 17.6465 11.589 17.6478C11.5541 17.6706 11.5198 17.6928 11.4876 17.7156C11.4541 17.7398 11.4198 17.7632 11.3876 17.7861C11.3581 17.8089 11.3299 17.831 11.3031 17.8538C11.2749 17.878 11.2467 17.9015 11.2212 17.9257C11.2017 17.9438 11.1829 17.9606 11.1648 17.9793C11.1299 18.0142 11.0957 18.0512 11.0662 18.0867C11.0507 18.1048 11.0366 18.1216 11.0225 18.1404C10.9957 18.1753 10.9715 18.2109 10.9494 18.2458C10.948 18.2485 10.9467 18.2498 10.9454 18.2525C10.9353 18.2679 10.9272 18.2834 10.9185 18.2988C10.9111 18.3102 10.9058 18.323 10.9004 18.3337C10.893 18.3451 10.8876 18.3579 10.8836 18.3686C10.8782 18.38 10.8735 18.3914 10.8682 18.4022C10.8541 18.437 10.8413 18.4726 10.8313 18.5062C10.8058 18.5934 10.7944 18.678 10.7944 18.7612C10.7944 18.7934 10.7957 18.8263 10.7997 18.8572C10.8024 18.888 10.8071 18.9189 10.8138 18.9484C10.8366 19.0652 10.8803 19.178 10.9353 19.2827C10.9467 19.3041 10.9561 19.3236 10.9688 19.3417C10.9803 19.3612 10.9917 19.3813 11.0037 19.3994C11.0165 19.4209 11.0306 19.4404 11.0447 19.4598C11.046 19.4625 11.0487 19.4652 11.0501 19.4686C11.0541 19.4739 11.0588 19.4813 11.0641 19.4867C11.0796 19.5082 11.095 19.529 11.1105 19.5484C11.1313 19.5753 11.1514 19.6008 11.1735 19.6263C11.1863 19.6417 11.199 19.6558 11.2131 19.6712C11.3219 19.7914 11.4346 19.8914 11.5219 19.9632C11.5554 19.9927 11.5883 20.0222 11.6192 20.0551C11.6473 20.0833 11.6742 20.1128 11.6997 20.1437C11.7192 20.1679 11.738 20.1914 11.7561 20.2155C11.7574 20.2169 11.7588 20.2182 11.7588 20.2195C11.7742 20.239 11.7883 20.2605 11.8024 20.2813C11.8124 20.2954 11.8205 20.3095 11.8292 20.3236C11.842 20.343 11.8547 20.3645 11.8661 20.3867C11.8789 20.4095 11.8903 20.4316 11.901 20.4558C11.9124 20.4813 11.9218 20.5048 11.9319 20.5289C11.9433 20.5585 11.9534 20.588 11.9628 20.6162C11.9742 20.6497 11.9822 20.6826 11.991 20.7148C11.9983 20.7457 12.0037 20.7766 12.0077 20.8061C12.0245 20.9148 12.0205 21.0088 11.999 21.0933C11.9977 21.1021 11.9963 21.1101 11.9936 21.1189C11.991 21.1316 11.9863 21.143 11.9822 21.1558C11.9655 21.2034 11.944 21.249 11.9171 21.2893C11.9004 21.3162 11.8802 21.3417 11.8594 21.3652C11.7675 21.4725 11.6467 21.5443 11.5339 21.5933C11.5145 21.6021 11.4943 21.6101 11.4749 21.6162C11.3339 21.6672 11.1843 21.6893 11.0326 21.6893H8.41389C8.41389 21.6893 8.40717 21.688 8.39308 21.6853C8.25483 21.6625 7.45888 21.5094 6.86829 20.9779C6.84883 20.9625 6.83004 20.9457 6.81192 20.9269C6.59783 20.7209 6.41596 20.4645 6.31126 20.1417C6.22133 19.8639 6.18576 19.5397 6.23542 19.1592C6.24818 19.0518 6.26898 18.9424 6.29583 18.8263C6.29583 18.8263 6.5032 17.4169 7.57834 16.9183C8.04343 16.7029 8.42932 16.3405 8.65683 15.8794C8.89374 15.3975 9.02998 14.8593 8.60314 14.6687H11.8433C11.8782 14.6774 11.9138 14.6855 11.9473 14.6942C12.0165 14.711 12.0809 14.7291 12.1433 14.7479C12.1742 14.758 12.2051 14.766 12.2353 14.7761C12.2943 14.7955 12.3507 14.8157 12.4044 14.8351C12.4312 14.8452 12.4581 14.8559 12.4836 14.866C12.5346 14.8875 12.5822 14.9083 12.6272 14.9311C12.6735 14.9539 12.7158 14.9761 12.7567 14.9989C12.7977 15.0217 12.8359 15.0452 12.8708 15.0694C12.9245 15.1043 12.9721 15.1425 13.0144 15.1794C13.2762 15.4123 13.3527 15.6714 13.3258 15.925Z" fill="url(#paint7_linear_6_60)"/>
<path opacity="0.08" d="M13.3264 15.9257C13.325 15.9499 13.321 15.9754 13.3163 16.0002C13.3123 16.0231 13.3076 16.0452 13.3009 16.068C13.2955 16.0949 13.2868 16.1231 13.2781 16.1499C13.274 16.1653 13.268 16.1794 13.264 16.1935C13.2573 16.2116 13.2499 16.2304 13.2432 16.2472C13.2364 16.2667 13.2277 16.2868 13.2177 16.3063C13.1754 16.3996 13.1244 16.4895 13.07 16.5727C12.8405 16.9197 12.5049 17.1854 12.1244 17.3619C12.1204 17.3646 12.1157 17.3673 12.1116 17.3693C12.0627 17.3921 12.0143 17.4143 11.968 17.4385C11.9439 17.4499 11.9204 17.4626 11.8962 17.4754C11.8721 17.4868 11.8486 17.4995 11.8257 17.5123C11.8143 17.5176 11.8029 17.5237 11.7935 17.5291C11.7653 17.5445 11.7372 17.5599 11.7103 17.5767C11.6707 17.5995 11.6325 17.6217 11.5962 17.6458C11.5935 17.6472 11.5922 17.6472 11.5909 17.6485C11.556 17.6713 11.5217 17.6935 11.4895 17.7163C11.456 17.7405 11.4217 17.7639 11.3895 17.7868C11.36 17.8096 11.3318 17.8317 11.305 17.8545C11.2768 17.8787 11.2486 17.9022 11.2231 17.9264C11.2036 17.9445 11.1848 17.9613 11.1667 17.98C11.1318 18.0149 11.0976 18.0519 11.0681 18.0874C11.0526 18.1055 11.0385 18.1223 11.0244 18.1411C10.9976 18.176 10.9734 18.2116 10.9513 18.2465C10.9499 18.2492 10.9486 18.2505 10.9472 18.2539C10.9372 18.2693 10.9291 18.2847 10.9204 18.3002C10.9137 18.3116 10.9077 18.3243 10.9023 18.3351C10.8956 18.3465 10.8895 18.3592 10.8855 18.37C10.8801 18.3814 10.8754 18.3928 10.8701 18.4035C10.856 18.4384 10.8432 18.474 10.8332 18.5075C10.8077 18.5948 10.7962 18.6794 10.7962 18.7626C10.7962 18.7948 10.7976 18.8277 10.8016 18.8585C10.8043 18.8894 10.8083 18.9203 10.8157 18.9498C10.8385 19.0666 10.8822 19.1793 10.9372 19.284C10.9486 19.3048 10.958 19.325 10.9707 19.3431C10.9821 19.3626 10.9936 19.3827 11.0056 19.4008C11.0184 19.4216 11.0325 19.4417 11.0466 19.4612C11.0479 19.4639 11.0506 19.4666 11.0519 19.4699C11.056 19.4753 11.0607 19.4827 11.066 19.4881C11.0815 19.5095 11.0969 19.5303 11.1123 19.5498C11.1332 19.5766 11.1533 19.6021 11.1761 19.627C11.1889 19.6424 11.2016 19.6565 11.2157 19.6719C11.3244 19.7914 11.4372 19.8921 11.5244 19.9639C11.558 19.9934 11.5909 20.0229 11.6217 20.0552C11.6499 20.0833 11.6768 20.1129 11.7023 20.1437C11.7217 20.1679 11.7405 20.1914 11.7586 20.2156C11.76 20.2169 11.7613 20.2182 11.7613 20.2196C11.7768 20.239 11.7908 20.2605 11.8049 20.2813C11.815 20.2954 11.8231 20.3095 11.8318 20.3236C11.8445 20.3431 11.8573 20.3645 11.8687 20.3867C11.8815 20.4095 11.8929 20.4317 11.9036 20.4558C11.915 20.4813 11.9244 20.5048 11.9345 20.529C11.9459 20.5585 11.9553 20.588 11.9653 20.6162C11.9768 20.6498 11.9848 20.6827 11.9935 20.7149C12.0002 20.7457 12.0063 20.7766 12.0103 20.8068C12.0271 20.9155 12.0231 21.0095 12.0016 21.0941C12.0002 21.1028 11.9989 21.1108 11.9962 21.1196C11.9935 21.1323 11.9895 21.1437 11.9848 21.1565C11.968 21.2041 11.9466 21.2498 11.9197 21.29C11.9029 21.3169 11.8828 21.3424 11.862 21.3659C11.77 21.4732 11.6492 21.545 11.5365 21.594C11.517 21.6028 11.4969 21.6108 11.4774 21.6169C11.3365 21.6679 11.1868 21.69 11.0352 21.69H8.41645C8.41645 21.69 8.40974 21.6887 8.39564 21.686C8.39564 21.686 8.3943 21.686 8.39028 21.6846H8.38491C8.37954 21.6833 8.37484 21.682 8.36947 21.682C8.24263 21.6591 7.87754 21.5793 7.48292 21.3846C7.27689 21.2846 7.0628 21.1524 6.87153 20.9786C6.85207 20.9632 6.83327 20.9464 6.81515 20.9276C6.60107 20.7216 6.41919 20.4652 6.31517 20.1424C6.22524 19.8646 6.18967 19.5404 6.23933 19.1599C6.25208 19.0525 6.27289 18.9431 6.29973 18.827C6.29973 18.827 6.50711 17.4176 7.58225 16.919C8.04733 16.7036 8.43323 16.3412 8.66007 15.8801C8.89697 15.3982 9.03388 14.86 8.60638 14.6694H11.8466C11.8815 14.6781 11.917 14.6862 11.9506 14.6949C12.0197 14.7117 12.0848 14.7298 12.1465 14.7486C12.1774 14.7587 12.2083 14.7667 12.2378 14.7768C12.2969 14.7962 12.3532 14.8164 12.4069 14.8358C12.4338 14.8459 12.4606 14.8573 12.4861 14.8667C12.5371 14.8882 12.5848 14.909 12.6298 14.9318C12.6761 14.9546 12.7183 14.9768 12.7593 14.9996C12.8002 15.0224 12.8385 15.0459 12.8734 15.0701C12.9271 15.105 12.9747 15.1432 13.017 15.1801C13.2767 15.4123 13.3532 15.6721 13.3264 15.9257Z" fill="url(#paint8_linear_6_60)"/>
<path d="M12.2727 32.7554C12.6123 32.6373 12.9452 32.4917 13.2646 32.3226C12.9452 32.4904 12.6123 32.634 12.2727 32.7554ZM12.2727 32.7554C12.6123 32.6373 12.9452 32.4917 13.2646 32.3226C12.9452 32.4904 12.6123 32.634 12.2727 32.7554ZM12.2727 32.7554C12.6123 32.6373 12.9452 32.4917 13.2646 32.3226C12.9452 32.4904 12.6123 32.634 12.2727 32.7554ZM12.2727 32.7554C12.6123 32.6373 12.9452 32.4917 13.2646 32.3226C12.9452 32.4904 12.6123 32.634 12.2727 32.7554ZM12.2727 32.7554C12.6123 32.6373 12.9452 32.4917 13.2646 32.3226C12.9452 32.4904 12.6123 32.634 12.2727 32.7554ZM12.2727 32.7554C12.6123 32.6373 12.9452 32.4917 13.2646 32.3226C12.9452 32.4904 12.6123 32.634 12.2727 32.7554Z" fill="url(#paint9_linear_6_60)"/>
<path d="M43.0048 37.7654C42.9961 40.3109 41.9377 42.6189 40.2384 44.2893C39.9962 44.5276 39.7411 44.7531 39.4734 44.9645C38.866 45.445 38.1949 45.8537 37.4761 46.1739C36.2976 46.702 34.9903 46.9966 33.6145 46.9966H27.973C29.5159 46.9584 30.9481 46.4738 32.1461 45.6678C32.4038 45.4947 32.6521 45.3054 32.8876 45.1041H33.6151C35.0258 45.1041 36.348 44.7182 37.4768 44.0471C38.2419 43.592 38.9183 43.0068 39.474 42.3236C39.474 42.3236 39.4754 42.3209 39.4794 42.3162C39.4848 42.3109 39.4948 42.2995 39.5062 42.284C39.5727 42.2008 39.6371 42.1163 39.7009 42.0303C39.7123 42.0149 39.7237 41.9995 39.7344 41.9827C39.7458 41.9673 39.7572 41.9505 39.77 41.933C40.0633 41.5203 40.3143 41.0774 40.5156 40.6096C40.8961 39.7331 41.1089 38.7687 41.1116 37.7587C41.119 36.0392 40.5425 34.4118 39.474 33.0977C39.3136 32.8977 39.1385 32.7044 38.9539 32.5199C38.015 31.581 36.8694 30.9273 35.6198 30.5991V30.5132C35.6198 30.2763 35.6124 30.0414 35.6003 29.8086C35.5795 29.4099 35.5386 29.0153 35.4788 28.6274C36.9372 28.9039 38.3016 29.5253 39.474 30.4522C39.7586 30.6777 40.0304 30.9199 40.2915 31.181C40.6552 31.5434 40.9847 31.9306 41.278 32.3394C42.4075 33.9091 43.0115 35.7896 43.0048 37.7654Z" fill="url(#paint10_linear_6_60)"/>
<path d="M16.0176 29.1542C16.0122 29.3475 15.9968 29.5387 15.9713 29.732C15.9612 29.8052 15.9505 29.8783 15.9391 29.9522C15.9391 29.9522 15.9391 29.9535 15.9377 29.9535C15.9236 30.0394 15.9082 30.1253 15.8914 30.2112C15.825 30.5582 15.7364 30.9105 15.6304 31.2682H15.629C14.8438 31.5474 14.0734 31.8897 13.3204 32.2944C13.3009 32.3058 13.2835 32.3158 13.2653 32.3226C12.9452 32.4903 12.613 32.634 12.2734 32.7554C12.254 32.7628 12.2338 32.7682 12.2144 32.7749C12.0821 32.8212 11.9479 32.8621 11.8124 32.9004C11.1627 33.0823 10.4849 33.1782 9.79429 33.1782C9.71376 33.1782 9.63524 33.1769 9.5547 33.1742C9.50839 33.1742 9.46276 33.1715 9.41779 33.1668C9.38692 33.1668 9.35739 33.1655 9.32652 33.1641C9.27417 33.1615 9.22115 33.1568 9.16881 33.1514C9.13659 33.1501 9.10371 33.1474 9.07015 33.1413C9.03056 33.14 8.99096 33.136 8.95203 33.1299C8.56614 33.0863 8.18226 33.0118 7.80777 32.9084C7.76818 32.897 7.73059 32.8856 7.691 32.8749C7.45879 32.8071 7.23329 32.7286 7.01182 32.6407V32.6024C6.97357 32.6011 6.93464 32.597 6.89639 32.5923C6.08165 32.2514 5.34878 31.7736 4.72196 31.1904C3.16294 29.7461 2.25156 27.6583 2.34015 25.416C2.36565 24.7832 2.46967 24.1691 2.64618 23.5852C3.04818 22.2423 3.82131 21.0558 4.84343 20.1437C5.26892 19.7645 5.73669 19.435 6.23869 19.1612C6.18903 19.5417 6.2246 19.8659 6.31453 20.1437C6.41855 20.4665 6.60042 20.7229 6.81451 20.9289C6.83263 20.947 6.85142 20.9638 6.87089 20.9799C5.42932 21.8766 4.41995 23.4141 4.25217 25.1825C4.2421 25.2852 4.23539 25.3885 4.2307 25.4912C4.1515 27.5462 5.19308 29.426 6.87491 30.4575C6.91988 30.4857 6.96484 30.5125 7.01182 30.5394C7.35879 30.7407 7.72791 30.9045 8.12253 31.0273C8.14333 31.034 8.16615 31.0414 8.18897 31.0481C8.20038 31.0521 8.21313 31.0568 8.22387 31.0595C8.23393 31.0622 8.24333 31.0649 8.2534 31.0682C8.33393 31.0924 8.41514 31.1132 8.49701 31.1333C8.58694 31.1541 8.68023 31.1729 8.77217 31.191C8.81714 31.1998 8.86076 31.2065 8.90439 31.2139C8.92519 31.2179 8.94801 31.2212 8.96948 31.2239C8.97083 31.2239 8.97083 31.2239 8.97083 31.2239C9.00908 31.2293 9.04532 31.2353 9.08223 31.2394C9.1017 31.2421 9.12183 31.2447 9.14129 31.2461C9.19632 31.2535 9.25135 31.2588 9.30639 31.2642C9.32585 31.2655 9.34598 31.2669 9.36545 31.2682C9.43323 31.2736 9.50101 31.2783 9.56812 31.2796C9.56812 31.2796 9.56947 31.2796 9.57081 31.2796C9.6453 31.2837 9.72047 31.285 9.79496 31.285C9.87416 31.285 9.95268 31.2837 10.0319 31.2796C10.0815 31.2783 10.1292 31.2756 10.1782 31.2709H10.1835C10.2104 31.2696 10.2386 31.2669 10.2668 31.2655C10.2963 31.2629 10.3272 31.2602 10.3567 31.2555C10.3889 31.2528 10.4245 31.2501 10.4567 31.2454C10.4621 31.2441 10.4694 31.2441 10.4748 31.2427C10.4889 31.2414 10.5017 31.24 10.5157 31.2387C10.5386 31.2347 10.5594 31.2313 10.5822 31.2286C10.5963 31.2273 10.6117 31.2259 10.6258 31.2233C10.6332 31.2219 10.6412 31.2206 10.6513 31.2192C10.6668 31.2179 10.6835 31.2152 10.701 31.2105C10.7379 31.2051 10.7741 31.1978 10.811 31.1924C10.8278 31.1884 10.848 31.185 10.8661 31.181C10.9137 31.1709 10.9634 31.1615 11.0124 31.1501C11.0151 31.1501 11.0164 31.1501 11.0177 31.1488C11.0432 31.1447 11.0674 31.1387 11.0922 31.1333C11.1104 31.128 11.1292 31.1219 11.1473 31.1179C11.1573 31.1152 11.1681 31.1125 11.1781 31.1092C11.1936 31.1078 11.2077 31.1018 11.2218 31.0978C11.2835 31.0837 11.3473 31.0655 11.4104 31.0454C11.4144 31.0441 11.4191 31.0427 11.4231 31.0414C11.4412 31.036 11.4627 31.0286 11.4822 31.0233C11.5231 31.0119 11.5627 30.9978 11.6036 30.9823C11.6077 30.981 11.6137 30.9783 11.6204 30.977C11.6318 30.9743 11.6412 30.9696 11.6526 30.9642C11.6862 30.9528 11.7191 30.9414 11.7526 30.9273C11.7654 30.9246 11.7795 30.9172 11.7936 30.9132C11.8244 30.9018 11.854 30.889 11.8855 30.8783C12.0687 30.8052 12.2493 30.7219 12.4251 30.626C12.9606 30.3387 13.5063 30.079 14.0573 29.8495C14.7022 29.577 15.3565 29.3461 16.0176 29.1542Z" fill="url(#paint11_linear_6_60)"/>
<path opacity="0.07" d="M23.9959 28.4247C23.9932 28.4375 23.9885 28.4516 23.9858 28.4657C23.9476 28.622 23.9066 28.7844 23.863 28.9502C23.8402 29.0388 23.8154 29.1307 23.7899 29.2234C23.7375 29.4079 23.6845 29.5965 23.6248 29.7898C23.5952 29.8871 23.5657 29.9844 23.5328 30.0831C23.5046 30.173 23.4751 30.2663 23.4442 30.3575C23.3288 30.7072 23.2006 31.0676 23.057 31.436C23.0147 31.5461 22.9711 31.6575 22.9248 31.7703C22.8751 31.8917 22.8248 32.0125 22.7724 32.1353C22.7201 32.2582 22.6671 32.3803 22.612 32.5031C22.557 32.6273 22.4993 32.7514 22.4402 32.8749C22.3825 32.9991 22.3221 33.1232 22.2597 33.2481C21.3282 35.1239 20.0134 37.0587 18.1571 38.6962L17.8276 33.2957C17.8276 33.2957 17.8263 33.2293 17.8303 33.1112C17.8303 33.0816 17.8316 33.0494 17.8343 33.0138C17.8357 32.9742 17.8383 32.932 17.843 32.887C17.8444 32.8588 17.8471 32.8293 17.8504 32.7984C17.8504 32.7897 17.8518 32.7803 17.8531 32.7702C17.8571 32.7253 17.8618 32.6769 17.8685 32.6266C17.8699 32.6125 17.8712 32.5984 17.8726 32.5843C17.8739 32.5816 17.8739 32.5769 17.8739 32.5729C17.8793 32.532 17.8853 32.4897 17.892 32.4461C17.8974 32.3984 17.9061 32.3488 17.9149 32.2978C17.9236 32.2528 17.9316 32.2045 17.9417 32.1568C17.943 32.1515 17.943 32.1441 17.9444 32.1387C17.9471 32.1206 17.9498 32.1018 17.9558 32.0837C17.9612 32.0528 17.9685 32.0219 17.9753 31.989C17.9853 31.9414 17.9981 31.8904 18.0102 31.8407C18.0216 31.7897 18.0357 31.7394 18.0497 31.687C18.0638 31.6347 18.0779 31.583 18.0947 31.5307C18.1101 31.477 18.1269 31.4233 18.1457 31.3703C18.1625 31.3179 18.1813 31.2662 18.2008 31.2126C18.2008 31.2112 18.2021 31.2085 18.2034 31.2052C18.2289 31.136 18.2558 31.0669 18.284 30.9978C18.2927 30.9736 18.3034 30.9515 18.3135 30.9273C18.3236 30.9045 18.335 30.881 18.3444 30.8569C18.3712 30.7965 18.4007 30.7354 18.4303 30.675C18.4471 30.6381 18.4652 30.6032 18.484 30.5676C18.4893 30.5549 18.4967 30.5434 18.5034 30.5327C18.5316 30.4804 18.5598 30.4287 18.5907 30.3763C18.6202 30.324 18.6511 30.2737 18.6853 30.2213C18.7175 30.1703 18.7517 30.12 18.7866 30.069C18.8189 30.0213 18.8531 29.9743 18.8866 29.9294C18.9262 29.877 18.9672 29.8253 19.0095 29.7743C19.0631 29.7092 19.1195 29.6462 19.1772 29.5824C19.2121 29.5441 19.249 29.5079 19.286 29.471C19.3282 29.4287 19.3719 29.3864 19.4168 29.3455C19.4195 29.3428 19.4242 29.3381 19.4269 29.3368V29.3354C19.4477 29.316 19.4692 29.2958 19.492 29.2791C19.5175 29.2562 19.543 29.2341 19.5698 29.2126C19.6007 29.1871 19.6302 29.1616 19.6631 29.1381C19.698 29.1099 19.7349 29.0817 19.7732 29.0549C19.8014 29.0334 19.8296 29.014 19.8591 28.9945C19.8926 28.9703 19.9269 28.9482 19.9618 28.9254C20.0014 28.8985 20.0423 28.873 20.0846 28.8495C20.1155 28.8314 20.1463 28.8126 20.1792 28.7945C20.2114 28.7764 20.2443 28.7596 20.2765 28.7408C20.343 28.7059 20.4101 28.6717 20.4792 28.6408C20.5128 28.624 20.5483 28.6086 20.5832 28.5932C20.655 28.5623 20.7269 28.5328 20.802 28.5046C20.8389 28.4905 20.8765 28.4764 20.9161 28.4636H20.9175C20.9262 28.4596 20.9342 28.4563 20.943 28.4536C20.9483 28.4522 20.953 28.4495 20.9584 28.4482C20.9638 28.4469 20.9685 28.4455 20.9738 28.4442C20.9906 28.4375 21.0087 28.4314 21.0275 28.4261C21.0517 28.4173 21.0752 28.4106 21.098 28.4032C21.1799 28.3777 21.2644 28.3542 21.3503 28.3328C21.4 28.32 21.4503 28.3086 21.5027 28.2979C21.5617 28.2838 21.6208 28.271 21.6832 28.2596C21.7154 28.2542 21.7483 28.2482 21.7819 28.2428C21.8188 28.2355 21.8564 28.2301 21.8946 28.2247C22.0127 28.2066 22.1355 28.1912 22.261 28.1798C22.4879 28.1569 22.7261 28.1462 22.9771 28.1475C22.9751 28.1482 23.2449 28.1328 23.9959 28.4247Z" fill="url(#paint12_linear_6_60)"/>
<path opacity="0.2" d="M24.4858 25.5489C24.4858 25.5489 24.41 26.7073 23.9966 28.424C23.9939 28.4368 23.9892 28.4509 23.9865 28.465C23.9483 28.6213 23.9073 28.7837 23.8637 28.9495C23.8396 29.0381 23.8161 29.13 23.7906 29.2227C23.7369 29.4072 23.6852 29.5958 23.6255 29.7891C23.5959 29.8864 23.5664 29.9837 23.5342 30.0824C23.506 30.1723 23.4765 30.2656 23.4456 30.3575C23.3302 30.7072 23.2006 31.0676 23.0584 31.4353C23.0161 31.5454 22.9725 31.6568 22.9248 31.7696C22.8772 31.891 22.8248 32.0118 22.7725 32.1347C22.7215 32.2575 22.6671 32.3796 22.6134 32.5024C22.5584 32.6266 22.5007 32.7507 22.4416 32.8742C22.3839 32.9984 22.3235 33.1225 22.2611 33.2474C21.3282 35.1232 20.0148 37.058 18.1572 38.6962C17.586 39.2036 16.9619 39.6814 16.2827 40.1197C15.9586 40.3297 15.6458 40.5579 15.3438 40.8002L9.27487 45.7188C8.25342 46.5477 6.97896 46.9987 5.66289 46.9987H1.87575C1.56033 46.9987 1.25429 46.8477 1.09054 46.5772C0.944236 46.3322 0.911351 46.0081 1.35563 45.6765C1.38919 45.6497 1.4261 45.6255 1.46301 45.6034C1.46301 45.6034 1.46972 45.5994 1.48248 45.592C1.54288 45.5611 1.74891 45.4611 2.10125 45.3665C2.12675 45.3611 2.15225 45.3537 2.17843 45.347C2.66768 45.2256 3.41061 45.1222 4.41863 45.1974C6.28368 45.337 8.14537 44.8457 9.69633 43.8008C12.5204 41.8981 16.3525 38.6741 16.6666 35.0285C16.6666 35.0285 17.8558 36.6184 17.4545 37.9754C17.4545 37.9754 23.7187 30.3099 22.6295 25.6201C22.6664 25.6791 23.2584 26.659 23.3315 28.1482C23.3315 28.1482 25.3724 23.2208 21.1007 20.8014C21.1658 20.8169 21.2329 20.835 21.302 20.8551C21.347 20.8679 21.3933 20.882 21.4389 20.8961C21.4712 20.9061 21.502 20.9155 21.5349 20.9269C21.7718 21.0048 22.0168 21.1048 22.2604 21.2283C23.4617 21.841 24.6187 23.0732 24.4858 25.5489Z" fill="#380179"/>
<path d="M22.6764 38.2754L22.5147 43.1417L22.3892 43.9068C22.3288 44.2719 22.2751 44.6383 22.2483 45.0074C22.165 46.1577 21.6718 46.6577 21.1899 46.8691C20.9812 46.9624 20.7516 46.9987 20.5235 46.9987H13.2566C12.6774 46.9987 12.3787 46.2853 12.8015 45.8906C12.8015 45.8906 12.8029 45.8906 12.8042 45.8893C12.9002 45.8557 14.9411 45.1564 16.3867 45.6215C16.3867 45.6215 20.5852 46.1779 19.8819 42.3941C19.8819 42.3948 18.7047 38.6264 22.6764 38.2754Z" fill="url(#paint13_linear_6_60)"/>
<path opacity="0.3" d="M35.6185 33.8937V39.0532C35.6185 39.1083 35.6171 39.162 35.6171 39.217C35.6185 39.2351 35.6171 39.2539 35.6158 39.272C35.6144 39.2056 35.6118 39.1398 35.6071 39.0734C35.6044 39.0143 35.5983 38.9532 35.593 38.8942C35.5876 38.8452 35.5816 38.7955 35.5748 38.7465C35.5708 38.7056 35.5634 38.6647 35.5567 38.6237C35.5527 38.5902 35.5467 38.5559 35.5399 38.521C35.5373 38.5043 35.5346 38.4855 35.5299 38.4674C35.5232 38.4278 35.5144 38.3882 35.5044 38.3492C35.4977 38.311 35.4889 38.2747 35.4789 38.2365C35.4789 38.2338 35.4775 38.2291 35.4762 38.2251C35.4648 38.1727 35.4507 38.1211 35.4353 38.0687C35.4171 37.9996 35.397 37.9305 35.3749 37.8613C35.344 37.76 35.3084 37.66 35.2708 37.56V37.5587C35.2312 37.4546 35.189 37.3513 35.1426 37.2499C35.1171 37.1909 35.0903 37.1318 35.0608 37.0721C35.0366 37.0184 35.0098 36.9647 34.9829 36.9117C34.9561 36.858 34.9292 36.8063 34.8997 36.754C34.8729 36.7003 34.8433 36.6486 34.8125 36.5963C34.7843 36.5439 34.7534 36.4936 34.7225 36.4412C34.6306 36.2862 34.5339 36.1339 34.4306 35.9862C34.397 35.9366 34.3615 35.8876 34.3266 35.8379C34.293 35.7882 34.2574 35.7392 34.2212 35.6916C34.1863 35.6439 34.1494 35.5956 34.1125 35.548C34.0776 35.5003 34.0407 35.4533 34.0011 35.407C33.9756 35.3721 33.9474 35.3366 33.9165 35.3017C33.9011 35.2809 33.8829 35.2581 33.8628 35.2366C33.8346 35.1983 33.8024 35.1621 33.7715 35.1252L33.7675 35.1211C33.7675 35.1198 33.7648 35.1185 33.7635 35.1171C33.7299 35.0735 33.6917 35.0312 33.6534 34.9889C33.6152 34.944 33.5762 34.899 33.5353 34.8554C33.3367 34.6326 33.1293 34.4198 32.9219 34.2171C32.8387 34.1339 32.7555 34.0554 32.6722 33.9776C32.63 33.938 32.5877 33.8984 32.5467 33.8621C32.4608 33.7816 32.3736 33.7044 32.289 33.6299C32.2085 33.5594 32.13 33.4903 32.0494 33.4239C32.0085 33.387 31.9676 33.3534 31.9266 33.3199C31.8857 33.2863 31.8461 33.2521 31.8052 33.2199C31.7642 33.1863 31.7246 33.1534 31.685 33.1225C31.6454 33.0903 31.6058 33.0574 31.5669 33.0279C31.2132 32.7474 30.8817 32.5051 30.5985 32.3078C30.5663 32.285 30.5354 32.2642 30.5052 32.2447C30.3824 32.1602 30.271 32.0857 30.171 32.0192C30.12 31.987 30.0737 31.9555 30.03 31.9293C30.0045 31.9112 29.979 31.8957 29.9569 31.8816C29.92 31.8575 29.8864 31.8367 29.8555 31.8179C29.8106 31.7897 29.7737 31.7669 29.7428 31.7474C29.7341 31.742 29.7274 31.7373 29.7186 31.7333C29.7113 31.728 29.7059 31.7233 29.6992 31.7206C29.6005 31.6575 29.5019 31.5924 29.4046 31.5259C28.8495 31.1494 28.3408 30.8146 27.871 30.5166C27.7865 30.4629 27.7033 30.4112 27.6214 30.3602C27.5845 30.336 27.5482 30.3139 27.5113 30.2911C27.155 30.0696 26.8234 29.8696 26.516 29.6924C26.4556 29.6555 26.3946 29.622 26.3355 29.5884C26.2765 29.5549 26.2187 29.5206 26.1624 29.4898C25.6483 29.1992 25.2094 28.9723 24.8376 28.7951C24.7953 28.7757 24.7544 28.7556 24.7148 28.7374C24.5993 28.6837 24.4893 28.6334 24.3866 28.5891C24.3356 28.5663 24.2866 28.5455 24.2383 28.526C24.1886 28.5066 24.1423 28.4864 24.0973 28.4683C24.0624 28.4542 24.0282 28.4401 23.9946 28.4274C24.4074 26.7106 24.4839 25.5523 24.4839 25.5523C24.6174 23.0759 23.4591 21.8443 22.2584 21.2309C22.0148 21.1068 21.7692 21.0068 21.533 20.9296C21.5008 20.9182 21.4692 20.9088 21.4383 20.8987C21.392 20.8846 21.3451 20.8705 21.3001 20.8578C21.231 20.8383 21.1645 20.8195 21.0987 20.8041C21.0182 20.7833 20.9384 20.7645 20.8605 20.7491C20.8256 20.7403 20.7914 20.735 20.7578 20.7283C20.5927 20.6974 20.441 20.6746 20.3095 20.6591C20.0981 20.6336 19.9377 20.6269 19.8518 20.6256C21.0343 20.5746 26.5717 20.6961 25.9429 27.4536C25.9436 27.4502 32.2716 30.0756 35.6185 33.8937Z" fill="url(#paint14_linear_6_60)"/>
<path opacity="0.3" d="M25.5657 29.1582C23.9885 35.1789 20.3202 39.0083 18.282 40.7498L18.1565 38.6962C20.0142 37.0587 21.3275 35.1238 22.2604 33.2474C22.3221 33.1219 22.3832 32.9977 22.4409 32.8742C22.5 32.7501 22.5577 32.6259 22.6127 32.5024C22.6691 32.3783 22.7228 32.2561 22.7718 32.1346C22.8268 32.0118 22.8772 31.891 22.9241 31.7696C22.9718 31.6568 23.0154 31.5454 23.0577 31.4353C23.2 31.0676 23.3295 30.7065 23.4449 30.3575C23.4758 30.2656 23.5053 30.173 23.5335 30.0824C23.5657 29.9837 23.5953 29.8864 23.6248 29.7891C23.6839 29.5958 23.7362 29.4072 23.7899 29.2226C23.8154 29.1294 23.8396 29.0381 23.863 28.9495C23.9067 28.7831 23.9476 28.6213 23.9859 28.4649C23.9885 28.4509 23.9932 28.4368 23.9959 28.424C24.0295 28.4368 24.0637 28.4509 24.0986 28.4649C24.1436 28.4831 24.1899 28.5032 24.2395 28.5227C24.2858 28.5421 24.3355 28.5636 24.3872 28.5858C24.4899 28.6294 24.5999 28.6804 24.714 28.7341C24.755 28.7522 24.7959 28.7723 24.8382 28.7918C25.0583 28.8965 25.2992 29.0173 25.5657 29.1582Z" fill="url(#paint15_linear_6_60)"/>
<path d="M39.4726 30.4522V33.0977C39.3122 32.8977 39.137 32.7044 38.9525 32.5199C38.0136 31.581 36.868 30.9273 35.6184 30.5991V30.5132C35.6184 29.8723 35.5707 29.2421 35.4774 28.6274C36.9364 28.9032 38.3002 29.5247 39.4726 30.4522Z" fill="url(#paint16_linear_6_60)"/>
<path d="M39.4726 42.3229V44.9638C37.8646 46.2349 35.8264 46.996 33.6137 46.996H27.9723C29.8481 46.9496 31.5608 46.2436 32.8869 45.1034H33.6144C35.9808 45.1034 38.0975 44.0155 39.4726 42.3229Z" fill="url(#paint17_linear_6_60)"/>
<path d="M16.0177 29.1542C16.0123 29.3475 15.9969 29.5388 15.9714 29.732C15.9613 29.8052 15.9506 29.8783 15.9392 29.9522C15.9392 29.9522 15.9392 29.9535 15.9378 29.9535C15.8687 30.3817 15.7633 30.8219 15.6305 31.2682H15.6291C14.8439 31.5474 14.0735 31.8897 13.3205 32.2944C13.301 32.3058 13.2835 32.3159 13.2654 32.3226C12.9453 32.4904 12.6131 32.634 12.2735 32.7554C12.254 32.7628 12.2339 32.7682 12.2144 32.7749C12.0822 32.8212 11.948 32.8622 11.8124 32.9004C11.1628 33.0823 10.485 33.1783 9.79438 33.1783C9.71385 33.1783 9.63533 33.1769 9.55479 33.1742C9.50848 33.1742 9.46285 33.1715 9.41788 33.1668C9.38701 33.1668 9.35748 33.1655 9.32661 33.1642C9.27426 33.1615 9.22124 33.1568 9.1689 33.1514C9.13668 33.1501 9.1038 33.1474 9.07024 33.1413C9.03064 33.14 8.99105 33.136 8.95212 33.1299C8.56623 33.0863 8.18235 33.0118 7.80786 32.9085L8.12195 31.0273C8.14275 31.034 8.16557 31.0414 8.18839 31.0481C8.1998 31.0521 8.21255 31.0568 8.22329 31.0595C8.23335 31.0622 8.24275 31.0649 8.25281 31.0682C8.33335 31.0924 8.41455 31.1132 8.49643 31.1333C8.58636 31.1541 8.67965 31.1729 8.77159 31.1911C8.81656 31.1998 8.86018 31.2065 8.9038 31.2139C8.92461 31.2179 8.94743 31.2213 8.9689 31.2239C8.97024 31.2239 8.97024 31.2239 8.97024 31.2239C9.0085 31.2293 9.04474 31.2354 9.08165 31.2394C9.10111 31.2421 9.12125 31.2447 9.14071 31.2461C9.19574 31.2535 9.25077 31.2588 9.3058 31.2642C9.32527 31.2656 9.3454 31.2669 9.36486 31.2682C9.43265 31.2736 9.50043 31.2783 9.56754 31.2796C9.56754 31.2796 9.56888 31.2796 9.57023 31.2796C9.64472 31.2837 9.71989 31.285 9.79438 31.285C9.87357 31.285 9.95209 31.2837 10.0313 31.2796C10.0809 31.2783 10.1286 31.2756 10.1776 31.2709H10.183C10.2098 31.2696 10.238 31.2669 10.2662 31.2656C10.2957 31.2629 10.3266 31.2602 10.3561 31.2555C10.3883 31.2528 10.4239 31.2501 10.4561 31.2454C10.4615 31.2441 10.4689 31.2441 10.4742 31.2427C10.4883 31.2414 10.5011 31.2401 10.5152 31.2387C10.538 31.2347 10.5588 31.2313 10.5816 31.2286C10.5957 31.2273 10.6111 31.226 10.6252 31.2233C10.6326 31.2219 10.6407 31.2206 10.6507 31.2192C10.6662 31.2179 10.6829 31.2152 10.7004 31.2105C10.7373 31.2052 10.7735 31.1978 10.8105 31.1924C10.8272 31.1884 10.8474 31.185 10.8655 31.181C10.9131 31.1709 10.9628 31.1615 11.0118 31.1501C11.0145 31.1501 11.0158 31.1501 11.0172 31.1488C11.0427 31.1448 11.0668 31.1387 11.0917 31.1333C11.1098 31.128 11.1286 31.1219 11.1467 31.1179C11.1568 31.1152 11.1675 31.1125 11.1776 31.1092C11.193 31.1078 11.2071 31.1018 11.2212 31.0978C11.2829 31.0837 11.3467 31.0656 11.4098 31.0454C11.4138 31.0441 11.4185 31.0427 11.4225 31.0414C11.4406 31.036 11.4621 31.0286 11.4816 31.0233C11.5225 31.0119 11.5621 30.9978 11.6031 30.9823C11.6071 30.981 11.6131 30.9783 11.6198 30.977C11.6312 30.9743 11.6406 30.9696 11.652 30.9642C11.6856 30.9528 11.7185 30.9414 11.752 30.9273C11.7648 30.9246 11.7789 30.9172 11.793 30.9132C11.8239 30.9018 11.8534 30.8891 11.8849 30.8783C12.0681 30.8052 12.2487 30.7219 12.4245 30.626C12.9601 30.3387 13.5057 30.079 14.0567 29.8495C14.7023 29.577 15.3566 29.3461 16.0177 29.1542Z" fill="url(#paint18_linear_6_60)"/>
<path d="M6.86967 20.98C5.4281 21.8766 4.41873 23.4141 4.25095 25.1825L2.64429 23.5859C3.04629 22.243 3.81942 21.0565 4.84154 20.1444C5.26703 19.7652 5.7348 19.4357 6.2368 19.1619C6.18714 19.5424 6.22271 19.8666 6.31264 20.1444C6.41666 20.4672 6.59854 20.7236 6.81262 20.9296C6.83141 20.9478 6.84954 20.9645 6.86967 20.98Z" fill="url(#paint19_linear_6_60)"/>
<path d="M15.8907 30.2112C15.8243 30.5582 15.7357 30.9105 15.6296 31.2682H15.6283C14.8431 31.5474 14.0726 31.8897 13.3196 32.2944C13.3002 32.3058 13.2827 32.3158 13.2646 32.3226C12.9445 32.4903 12.6123 32.634 12.2727 32.7554C12.2532 32.7628 12.2331 32.7682 12.2136 32.7749C12.0814 32.8212 11.9472 32.8621 11.8116 32.9004C11.162 33.0823 10.4841 33.1782 9.79356 33.1782C9.71303 33.1782 9.63451 33.1769 9.55397 33.1742C9.50766 33.1742 9.46203 33.1715 9.41706 33.1668C9.38619 33.1668 9.35666 33.1655 9.32579 33.1641C9.27344 33.1615 9.22042 33.1568 9.16808 33.1514C9.13586 33.1501 9.10298 33.1474 9.06942 33.1413C9.02982 33.14 8.99023 33.136 8.9513 33.1299C8.56541 33.0863 8.18153 33.0118 7.80704 32.9084C7.76744 32.897 7.72986 32.8856 7.69027 32.8749C7.45806 32.8071 7.23256 32.7286 7.01109 32.6407V32.6024C6.97284 32.6011 6.93391 32.597 6.89566 32.5923C6.08092 32.2514 5.34805 31.7736 4.72122 31.1904C3.16221 29.7461 2.25083 27.6583 2.33941 25.416C2.36492 24.7832 2.46894 24.1691 2.64544 23.5852C3.04745 22.2423 3.82058 21.0558 4.8427 20.1437C5.26819 19.7645 5.73596 19.435 6.23796 19.1612C6.1883 19.5417 6.22387 19.8659 6.3138 20.1437C6.3138 20.1437 0.962271 23.9168 4.6125 29.1535C4.61116 29.1542 7.77818 34.9977 15.8907 30.2112Z" fill="url(#paint20_radial_6_60)"/>
<path d="M43.0048 37.7654C42.9961 40.3109 41.9377 42.6189 40.2384 44.2893C39.9962 44.5276 39.7411 44.7531 39.4734 44.9645C38.866 45.445 38.1949 45.8537 37.4761 46.1739C36.2976 46.702 34.9903 46.9966 33.6145 46.9966H27.973C29.5159 46.9584 30.9481 46.4738 32.1461 45.6678C41.7706 47.1054 41.9525 37.4728 41.9525 37.4728C41.6243 31.7004 37.2056 30.1736 35.599 29.8086C35.5782 29.4099 35.5372 29.0153 35.4775 28.6274C36.9359 28.9039 38.3002 29.5253 39.4727 30.4522C39.7572 30.6777 40.0291 30.9199 40.2901 31.181C40.6539 31.5434 40.9834 31.9306 41.2767 32.3394C42.4075 33.9091 43.0115 35.7896 43.0048 37.7654Z" fill="url(#paint21_radial_6_60)"/>
<path opacity="0.2" d="M34.5883 43.0444C34.1427 43.8236 33.5669 44.5202 32.8884 45.1034C31.5622 46.2437 29.8495 46.9497 27.9737 46.996H27.6241C26.0248 46.9537 24.594 46.2296 23.6148 45.1034C23.1229 44.5397 22.7423 43.8733 22.5142 43.1417L22.7282 36.7023C22.7282 36.7023 23.0296 43.3854 27.1496 43.1417C27.1496 43.1417 25.7161 44.2706 23.9967 43.2505C24.0504 43.3323 26.4449 46.8369 30.6656 44.2793C30.6656 44.2793 29.975 45.5605 28.5925 45.8987C28.5932 45.8987 32.7857 45.5517 34.5883 43.0444Z" fill="#380179"/>
<path opacity="0.18" d="M35.617 39.272V39.2787C35.6184 39.2801 35.6184 39.2814 35.617 39.2828C35.6184 39.2841 35.6184 39.2854 35.617 39.2881V39.3378L35.6143 39.376C35.5788 40.7082 35.2096 41.9579 34.5882 43.0444C34.1426 43.8236 33.5667 44.5202 32.8882 45.1034C31.5621 46.2436 29.8494 46.9497 27.9736 46.996C27.9736 46.996 32.3567 46.3128 34.3821 42.4283C36.4089 38.5439 32.8251 35.0943 32.8251 35.0943C29.8756 31.7514 25.7388 29.6502 23.8972 28.824C23.9294 28.7012 23.959 28.5817 23.9871 28.4643C23.9898 28.4502 23.9945 28.4361 23.9972 28.4233C24.0308 28.4361 24.065 28.4502 24.0999 28.4643C24.1449 28.4824 24.1912 28.5025 24.2408 28.522C24.2871 28.5415 24.3368 28.5629 24.3885 28.5851C24.4912 28.6287 24.6012 28.6797 24.7153 28.7334C24.7563 28.7515 24.7972 28.7717 24.8395 28.7911C25.0576 28.8951 25.2992 29.0166 25.565 29.1575C25.7522 29.2575 25.9508 29.3663 26.1636 29.4857C26.22 29.5179 26.279 29.5508 26.3354 29.5844C26.3958 29.6179 26.4569 29.6535 26.5173 29.6884C26.8233 29.8663 27.1542 30.0662 27.5119 30.287C27.5488 30.3099 27.585 30.332 27.6219 30.3562C27.7038 30.4072 27.7857 30.4589 27.8716 30.5125C28.3407 30.8098 28.8481 31.1454 29.4051 31.5219C29.4823 31.5743 29.5615 31.6273 29.6407 31.6823C29.6407 31.6823 29.6615 31.6937 29.6997 31.7159C29.7071 31.7185 29.7125 31.7232 29.7179 31.7286C29.7266 31.7326 29.7346 31.7373 29.7434 31.7427C29.7742 31.7622 29.8111 31.785 29.8561 31.8132C29.887 31.8326 29.9212 31.8541 29.9574 31.8769C29.9803 31.891 30.0051 31.9065 30.0293 31.9246C30.0742 31.9514 30.1205 31.9823 30.1702 32.0145C30.2715 32.081 30.3816 32.1554 30.5044 32.24C30.5339 32.2595 30.5662 32.2809 30.599 32.3031C30.8809 32.5004 31.2138 32.7427 31.5675 33.0232C31.6071 33.0527 31.6467 33.085 31.6856 33.1178C31.7252 33.1487 31.7648 33.1809 31.805 33.2151C31.846 33.2474 31.8856 33.2816 31.9265 33.3151C31.9675 33.3487 32.0084 33.3829 32.0493 33.4192C32.1299 33.4856 32.2084 33.5547 32.2889 33.6252C32.3721 33.6997 32.4607 33.7775 32.5453 33.8574C32.5876 33.8943 32.6299 33.9332 32.6721 33.9728C32.754 34.0507 32.8386 34.1306 32.9218 34.2124C33.1292 34.4151 33.3359 34.6279 33.5352 34.8507C33.5761 34.8943 33.6157 34.9393 33.6533 34.9842C33.6916 35.0265 33.7291 35.0688 33.7634 35.1124C33.7647 35.1138 33.7674 35.1151 33.7674 35.1164L33.7701 35.1205C33.8023 35.1574 33.8352 35.1936 33.8634 35.2319C33.8815 35.2527 33.9016 35.2755 33.9171 35.297C33.9466 35.3319 33.9761 35.3674 34.0016 35.4023C34.0412 35.4486 34.0775 35.4956 34.113 35.5433C34.1499 35.5909 34.1862 35.6392 34.2218 35.6869C34.2587 35.7345 34.2936 35.7842 34.3271 35.8332C34.362 35.8829 34.3976 35.9318 34.4311 35.9815C34.5338 36.1298 34.6311 36.2815 34.7217 36.4365C34.7539 36.4889 34.7848 36.5392 34.813 36.5916C34.8425 36.6439 34.8707 36.6956 34.9003 36.7493C34.9298 36.8016 34.9566 36.8533 34.9835 36.907C35.009 36.9607 35.0372 37.0144 35.0607 37.0674C35.0902 37.1264 35.117 37.1855 35.1425 37.2452C35.1875 37.3466 35.2311 37.4493 35.2707 37.5539V37.5553C35.3076 37.6553 35.3425 37.7553 35.3747 37.8566C35.3962 37.9258 35.417 37.9949 35.4338 38.064C35.4506 38.1164 35.4633 38.168 35.4761 38.2204C35.4774 38.2244 35.4788 38.2291 35.4788 38.2318C35.4888 38.27 35.4955 38.3063 35.5043 38.3445C35.5143 38.3841 35.5224 38.4237 35.5298 38.4627C35.5338 38.4808 35.5372 38.4996 35.5398 38.5163C35.5472 38.5512 35.5526 38.5855 35.5566 38.619C35.5633 38.66 35.5694 38.7009 35.5747 38.7418C35.5821 38.7908 35.5875 38.8405 35.5929 38.8895C35.5982 38.9485 35.6016 39.0076 35.6069 39.0687C35.611 39.1391 35.6143 39.2056 35.617 39.272Z" fill="white"/>
<path opacity="0.18" d="M16.6674 26.8892C17.1707 31.9461 14.6574 36.0654 14.6574 36.0654C10.7729 44.8061 2.64429 45.2262 2.64429 45.2262C3.62412 44.9584 5.25562 44.4397 6.81464 43.6196C8.08843 42.9471 9.31322 42.0733 10.0911 40.97C10.0911 40.97 14.2869 35.7849 15.6298 31.2682H15.6312C15.7634 30.8213 15.8694 30.3817 15.9372 29.9535C15.9399 29.9535 15.9399 29.9522 15.9399 29.9522C15.9513 29.879 15.9627 29.8059 15.9721 29.732C15.9976 29.5388 16.013 29.3475 16.0184 29.1542C16.0271 28.9032 16.0184 28.6522 16.003 28.4019C15.9593 27.765 15.9117 26.4456 16.1271 25.0704C16.1372 25.0053 16.1486 24.9409 16.1593 24.8758C16.1707 24.8107 16.1822 24.7463 16.1942 24.6812C16.2184 24.549 16.2479 24.4147 16.2801 24.2825C16.2915 24.2302 16.303 24.1799 16.3184 24.1288C16.3352 24.0544 16.3566 23.9812 16.3761 23.9074C16.411 23.7792 16.4519 23.6537 16.4942 23.5282C16.5392 23.3973 16.5875 23.2658 16.6392 23.1389C16.6573 23.0913 16.6788 23.043 16.6996 22.9967C16.7036 22.9853 16.7083 22.9738 16.7137 22.9631C16.7352 22.9168 16.756 22.8698 16.7788 22.8249C16.8607 22.649 16.9519 22.4799 17.0533 22.3175C17.0801 22.2698 17.1096 22.2229 17.1432 22.1779C17.1727 22.1329 17.2036 22.088 17.2378 22.0423C17.3237 21.9222 17.4197 21.8068 17.5197 21.6987C17.5298 21.6873 17.5405 21.6746 17.5519 21.6638C17.5841 21.6303 17.617 21.5974 17.6492 21.5652C17.6566 21.5578 17.6647 21.5497 17.672 21.5423C17.709 21.5074 17.7465 21.4719 17.7848 21.4383C17.8284 21.4001 17.8707 21.3652 17.9143 21.3296C18.0016 21.2605 18.0935 21.1974 18.1861 21.1363C18.2297 21.1081 18.2747 21.0813 18.3203 21.0544C18.3667 21.0276 18.4163 21.0007 18.468 20.9752C18.5116 20.9524 18.5566 20.9316 18.6022 20.9122C18.6217 20.9021 18.6418 20.894 18.6599 20.8867C18.6626 20.884 18.6626 20.884 18.6653 20.884C18.7036 20.8672 18.7411 20.8518 18.7807 20.8377C18.8358 20.8148 18.8935 20.7967 18.9525 20.7773C18.9552 20.7759 18.9579 20.7759 18.9626 20.7746C18.9713 20.7719 18.9821 20.7692 18.9921 20.7659C19.015 20.7571 19.0398 20.7518 19.0639 20.7451C19.0713 20.7437 19.0807 20.741 19.0881 20.7377C19.0955 20.7363 19.1009 20.735 19.1049 20.7336C19.1317 20.7283 19.1559 20.7209 19.1827 20.7155C19.2123 20.7081 19.2418 20.7014 19.2727 20.6961C19.5404 20.6437 19.8183 20.6283 20.0941 20.6424C16.2566 21.8296 16.6674 26.8892 16.6674 26.8892Z" fill="white"/>
<path d="M24.4859 25.5489C24.4859 25.5489 24.41 26.7073 23.9966 28.424C23.994 28.4368 23.9893 28.4509 23.9866 28.465C23.9778 28.5019 23.9685 28.5381 23.9584 28.5764C20.6451 29.9193 17.9378 28.9515 15.966 27.4885C15.9586 26.816 15.9888 25.955 16.1264 25.0698C16.1365 25.0047 16.1479 24.9402 16.1586 24.8751C16.17 24.81 16.1814 24.7456 16.1935 24.6805C16.2177 24.5483 16.2472 24.4141 16.2794 24.2819C16.2908 24.2295 16.3022 24.1792 16.3177 24.1282C16.3344 24.0537 16.3559 23.9805 16.3754 23.9067C16.4103 23.7785 16.4512 23.653 16.4935 23.5275C16.5385 23.3967 16.5868 23.2651 16.6385 23.1383C16.6566 23.0906 16.6781 23.0423 16.6989 22.996C16.7029 22.9846 16.7076 22.9732 16.713 22.9624C16.7344 22.9161 16.7552 22.8692 16.7781 22.8242C16.8599 22.6484 16.9512 22.4792 17.0525 22.3168C17.0794 22.2692 17.1089 22.2222 17.1425 22.1772C17.172 22.1323 17.2029 22.0873 17.2371 22.0417C17.323 21.9215 17.419 21.8061 17.519 21.698C17.529 21.6866 17.5398 21.6739 17.5512 21.6631C17.5834 21.6296 17.6163 21.5967 17.6485 21.5645C17.6559 21.5571 17.6639 21.5491 17.6713 21.5417C17.7082 21.5068 17.7458 21.4712 17.7841 21.4376C17.8277 21.3994 17.87 21.3645 17.9136 21.3289C18.0008 21.2598 18.0928 21.1967 18.1854 21.1356C18.229 21.1075 18.274 21.0806 18.3196 21.0538C18.3659 21.0269 18.4156 21.0001 18.4673 20.9746C18.5109 20.9518 18.5559 20.931 18.6015 20.9115C18.621 20.9014 18.6411 20.8934 18.6592 20.886C18.6619 20.8833 18.6619 20.8833 18.6646 20.8833C18.7028 20.8665 18.7404 20.8511 18.78 20.837C18.835 20.8142 18.8928 20.7961 18.9518 20.7766C18.9545 20.7752 18.9572 20.7753 18.9619 20.7739C18.9706 20.7712 18.9813 20.7685 18.9914 20.7652C19.0142 20.7565 19.0391 20.7511 19.0632 20.7444C19.0706 20.743 19.08 20.7404 19.0874 20.737C19.0948 20.7357 19.1001 20.7343 19.1042 20.733C19.131 20.7276 19.1552 20.7202 19.182 20.7149C19.2115 20.7075 19.2411 20.7008 19.2719 20.6954C19.5397 20.643 19.8176 20.6276 20.0934 20.6417C20.1652 20.643 20.237 20.6491 20.3088 20.6558C20.4397 20.6712 20.5907 20.694 20.7571 20.7249C20.7907 20.7323 20.8249 20.7377 20.8598 20.7457C20.9377 20.7612 21.0162 20.7793 21.0967 20.8008H21.0981C21.1632 20.8162 21.2303 20.8343 21.2994 20.8544C21.3444 20.8672 21.3907 20.8813 21.4363 20.8954C21.4685 20.9054 21.4994 20.9148 21.5323 20.9263C21.7692 21.0041 22.0141 21.1041 22.2578 21.2276C23.4618 21.841 24.6188 23.0732 24.4859 25.5489Z" fill="url(#paint22_radial_6_60)"/>
<path opacity="0.2" d="M24.4859 25.5496C24.4859 25.5496 24.41 26.708 23.9966 28.4247C23.9939 28.4375 23.9899 28.4515 23.9866 28.4656C23.9778 28.5026 23.9684 28.5388 23.9584 28.577C23.9288 28.6985 23.898 28.8233 23.8637 28.9502C23.8396 29.0388 23.8161 29.1307 23.7906 29.2233C23.7369 29.4079 23.6852 29.5965 23.6255 29.7898C23.596 29.8871 23.5664 29.9844 23.5342 30.083C23.506 30.173 23.4765 30.2663 23.4456 30.3582C23.3302 30.7079 23.2007 31.0683 23.0584 31.436C23.0161 31.5461 22.9725 31.6575 22.9242 31.7702C22.8765 31.8917 22.8242 32.0125 22.7718 32.1353C22.7208 32.2581 22.6665 32.3803 22.6128 32.5031C22.5577 32.6273 22.5 32.7514 22.441 32.8749C22.3832 32.9991 22.3228 33.1232 22.2604 33.2481C21.3276 35.1238 20.0142 37.0587 18.1565 38.6969C17.7002 39.1029 17.2109 39.4888 16.6854 39.8512L17.827 38.6969C23.4913 33.3044 24.1959 26.1691 24.1959 26.1691C24.7389 22.1188 21.7396 20.9967 21.4605 20.9021C21.486 20.9095 21.5101 20.9175 21.5349 20.9263C21.7719 21.0041 22.0168 21.1041 22.2604 21.2276C23.4611 21.8417 24.6181 23.0738 24.4859 25.5496Z" fill="white"/>
<path opacity="0.18" d="M15.7854 45.4947C12.7553 45.743 13.7841 46.9973 13.7841 46.9973L13.7828 47H13.256C12.6768 47 12.3781 46.2866 12.8009 45.892C12.8009 45.892 12.8023 45.892 12.8036 45.8906C13.1318 45.5846 13.7835 45.2792 15.0089 45.0605C15.0089 45.0605 18.3733 44.4417 18.3733 42.2417L18.3155 41.3002L18.282 40.7505L18.1565 38.6969C18.3216 38.5506 18.4833 38.4023 18.6397 38.2533L18.8578 41.7652C19.4101 44.6296 15.7854 45.4947 15.7854 45.4947Z" fill="white"/>
<path d="M35.6165 39.2727V39.2794C35.6178 39.2808 35.6178 39.2821 35.6165 39.2835C35.6178 39.2848 35.6178 39.2861 35.6165 39.2888V39.3385L35.6138 39.3767C35.5782 40.7083 35.2091 41.9586 34.5877 43.0451C34.3145 43.5256 33.9904 43.9739 33.6206 44.3826C26.6966 43.8048 22.7658 40.0405 20.5391 36.0842C20.5391 36.0842 20.5391 36.0842 20.5391 36.0829C20.8706 35.6319 21.1746 35.1755 21.4525 34.7158C21.7498 34.2279 22.0175 33.7366 22.2598 33.2487C22.3216 33.1232 22.3826 32.9991 22.4403 32.8756C22.4994 32.7514 22.5571 32.6273 22.6122 32.5038C22.6685 32.3796 22.7222 32.2575 22.7712 32.136C22.8262 32.0132 22.8766 31.8924 22.9236 31.7709C22.9712 31.6582 23.0148 31.5468 23.0578 31.4367C23.2001 31.0689 23.3296 30.7079 23.445 30.3589C23.4759 30.2669 23.5054 30.1743 23.5336 30.0837C23.5658 29.9851 23.5954 29.8878 23.6249 29.7904C23.6839 29.5972 23.7363 29.4086 23.79 29.224C23.8155 29.1307 23.8396 29.0395 23.8631 28.9509C23.8745 28.9086 23.8859 28.8663 23.8953 28.8254C23.9276 28.7026 23.9571 28.5831 23.9853 28.4657C23.988 28.4516 23.992 28.4375 23.9953 28.4247C24.0289 28.4375 24.0631 28.4516 24.098 28.4657C24.143 28.4838 24.1893 28.5039 24.239 28.5234C24.2853 28.5428 24.3349 28.5643 24.3873 28.5865C24.49 28.6301 24.6 28.6811 24.7141 28.7348C24.755 28.7529 24.796 28.773 24.8383 28.7925C25.0571 28.8965 25.298 29.018 25.5638 29.1589C25.751 29.2589 25.9496 29.3676 26.1624 29.4871C26.2188 29.5193 26.2778 29.5522 26.3342 29.5858C26.3946 29.6193 26.4557 29.6549 26.5161 29.6898C26.8221 29.8676 27.153 30.0676 27.5113 30.2884C27.5483 30.3112 27.5845 30.3334 27.6214 30.3575C27.7033 30.4085 27.7852 30.4602 27.8711 30.5139C28.3402 30.8112 28.8475 31.1468 29.4046 31.5233C29.4824 31.5756 29.561 31.6286 29.6401 31.6837C29.6401 31.6837 29.6609 31.6951 29.6992 31.7172C29.7059 31.7199 29.712 31.7246 29.7173 31.73C29.726 31.734 29.7341 31.7387 29.7428 31.7441C29.7737 31.7635 29.8106 31.7864 29.8556 31.8145C29.8864 31.834 29.9207 31.8555 29.9569 31.8783C29.9797 31.8924 30.0046 31.9078 30.0287 31.926C30.0737 31.9528 30.12 31.9837 30.1697 32.0159C30.271 32.0823 30.3811 32.1568 30.5039 32.2414C30.5334 32.2608 30.5656 32.2823 30.5985 32.3045C30.8804 32.5018 31.2133 32.7441 31.5669 33.0246C31.6065 33.0541 31.6461 33.0863 31.6851 33.1192C31.7246 33.1501 31.7642 33.1823 31.8052 33.2165C31.8461 33.2487 31.8857 33.283 31.9267 33.3165C31.9676 33.3501 32.0085 33.3843 32.0495 33.4205C32.13 33.487 32.2085 33.5561 32.2891 33.6266C32.3723 33.7011 32.4609 33.7789 32.5454 33.8588C32.5877 33.8957 32.63 33.9346 32.6723 33.9742C32.7541 34.0521 32.8387 34.1319 32.9219 34.2138C33.1293 34.4165 33.336 34.6292 33.5353 34.852C33.5763 34.8957 33.6159 34.9406 33.6535 34.9856C33.6917 35.0279 33.7293 35.0702 33.7635 35.1138C33.7649 35.1151 33.7675 35.1165 33.7675 35.1178L33.7702 35.1218C33.8024 35.1587 33.8353 35.195 33.8635 35.2332C33.8816 35.254 33.9018 35.2769 33.9172 35.2983C33.9467 35.3332 33.9763 35.3688 34.0018 35.4037C34.0414 35.45 34.0776 35.497 34.1132 35.5446C34.1501 35.5923 34.1863 35.6406 34.2219 35.6883C34.2588 35.7359 34.2937 35.7856 34.3273 35.8346C34.3622 35.8842 34.3977 35.9332 34.4313 35.9829C34.534 36.1312 34.6313 36.2829 34.7219 36.4379C34.7541 36.4903 34.7856 36.5406 34.8132 36.5929C34.8427 36.6453 34.8709 36.697 34.9004 36.7506C34.9299 36.803 34.9568 36.8547 34.9836 36.9084C35.0091 36.9621 35.0373 37.0157 35.0615 37.0688C35.091 37.1278 35.1178 37.1869 35.1433 37.2466C35.1883 37.3479 35.2319 37.4506 35.2715 37.5553V37.5567C35.3084 37.6567 35.3433 37.7567 35.3756 37.858C35.3964 37.9271 35.4178 37.9962 35.4346 38.0654C35.4514 38.1177 35.4641 38.1694 35.4769 38.2217C35.4782 38.2258 35.4796 38.2305 35.4796 38.2332C35.4896 38.2714 35.4964 38.3077 35.5051 38.3459C35.5151 38.3855 35.5232 38.4251 35.5306 38.464C35.5346 38.4821 35.5373 38.5009 35.5406 38.5177C35.5474 38.5533 35.5534 38.5868 35.5574 38.6204C35.5641 38.6613 35.5702 38.7023 35.5755 38.7432C35.5823 38.7922 35.5883 38.8419 35.5937 38.8909C35.599 38.9499 35.6024 39.009 35.6078 39.07C35.6111 39.1398 35.6138 39.2063 35.6165 39.2727Z" fill="url(#paint23_radial_6_60)"/>
<path d="M13.411 16.3546C13.2318 16.7063 12.8198 17.2687 11.9084 17.6948C11.7547 17.7666 11.6091 17.8532 11.4815 17.9646C11.252 18.1646 10.9654 18.5002 11.0285 18.8874C11.0514 19.027 11.1252 19.1518 11.2232 19.2532C11.5372 19.578 12.5365 20.7028 11.9198 21.2927L11.9184 21.2914C11.9453 21.2504 11.9661 21.2068 11.9835 21.1591C11.9876 21.1464 11.9923 21.135 11.9949 21.1222C11.9976 21.1135 11.999 21.1055 12.0003 21.0967C12.0218 21.0122 12.0258 20.9175 12.009 20.8095C12.0064 20.78 12.0003 20.7491 11.9923 20.7175C11.9835 20.6853 11.9755 20.6525 11.9641 20.6189C11.96 20.6035 11.954 20.588 11.9486 20.5712C11.9446 20.5585 11.9386 20.5444 11.9332 20.5316C11.9231 20.5075 11.9137 20.484 11.9023 20.4585C11.8909 20.4343 11.8795 20.4122 11.8674 20.3894C11.856 20.3666 11.8433 20.3457 11.8305 20.3263C11.8218 20.3122 11.8137 20.2981 11.8037 20.284C11.7896 20.2632 11.7755 20.2417 11.7601 20.2223C11.7601 20.2209 11.7587 20.2196 11.7574 20.2182C11.7406 20.1941 11.7205 20.1706 11.701 20.1464C11.6856 20.1256 11.6674 20.1055 11.6473 20.0874C11.6406 20.0773 11.6305 20.0679 11.6205 20.0578C11.5896 20.0256 11.5567 19.9961 11.5231 19.9666C11.4359 19.8948 11.3232 19.7948 11.2144 19.6746C11.2003 19.6592 11.1876 19.6451 11.1748 19.6297C11.152 19.6042 11.1326 19.5787 11.1118 19.5525C11.0963 19.533 11.0809 19.5115 11.0654 19.4907C11.0601 19.4854 11.0554 19.478 11.0514 19.4726C11.05 19.4699 11.0473 19.4672 11.046 19.4639C11.0319 19.4444 11.0178 19.4243 11.005 19.4035C10.9923 19.3854 10.9809 19.3652 10.9701 19.3458C10.9574 19.3277 10.9473 19.3075 10.9366 19.2867C10.8816 19.1827 10.8379 19.0699 10.8151 18.9525C10.8084 18.923 10.8037 18.8921 10.801 18.8612C10.797 18.8304 10.7957 18.7981 10.7957 18.7653C10.7957 18.682 10.8071 18.5975 10.8326 18.5102C10.8426 18.4767 10.8554 18.4411 10.8695 18.4062C10.8748 18.3948 10.8795 18.3834 10.8849 18.3727C10.8889 18.3612 10.895 18.3485 10.9017 18.3378C10.9071 18.3263 10.9131 18.3136 10.9198 18.3029C10.9285 18.2874 10.9366 18.272 10.9467 18.2565C10.948 18.2539 10.9493 18.2525 10.9507 18.2492C10.9735 18.2143 10.997 18.1787 11.0238 18.1438C11.0379 18.1257 11.052 18.1089 11.0675 18.0901C11.097 18.0552 11.1312 18.0183 11.1661 17.9827C11.1842 17.9646 11.203 17.9478 11.2225 17.929C11.248 17.9049 11.2762 17.8814 11.3044 17.8572C11.3312 17.8344 11.3594 17.8123 11.3889 17.7894C11.4211 17.7666 11.4554 17.7431 11.4889 17.719C11.5211 17.6962 11.5554 17.674 11.5903 17.6512C11.5916 17.6499 11.5929 17.6499 11.5956 17.6485C11.6325 17.6243 11.6701 17.6022 11.7097 17.5794C11.7366 17.5626 11.7648 17.5472 11.7929 17.5317C11.803 17.5264 11.8137 17.5203 11.8252 17.515C11.848 17.5022 11.8715 17.4895 11.8956 17.478C11.9198 17.4653 11.9433 17.4525 11.9674 17.4411C12.0137 17.417 12.0621 17.3948 12.1111 17.372C12.1151 17.3707 12.1198 17.368 12.1238 17.3646C12.5043 17.1888 12.8399 16.9224 13.0694 16.5754C13.1244 16.4922 13.1748 16.4022 13.2177 16.3089C13.2278 16.2895 13.2359 16.2694 13.2432 16.2499C13.2499 16.2331 13.2573 16.215 13.264 16.1962C13.2681 16.1821 13.2741 16.168 13.2781 16.1526C13.2869 16.1257 13.2949 16.0975 13.301 16.0707C13.3083 16.0479 13.3124 16.0257 13.3164 16.0029C13.3204 15.9774 13.3251 15.9519 13.3265 15.9284C13.3533 15.6747 13.2768 15.4157 13.0164 15.1855C12.9741 15.1472 12.9265 15.111 12.8728 15.0754C12.8379 15.0513 12.7996 15.0278 12.7587 15.005C12.7177 14.9808 12.6755 14.9587 12.6292 14.9372C12.5842 14.9144 12.5359 14.8936 12.4855 14.8721C12.46 14.862 12.4332 14.8513 12.4063 14.8412C12.3527 14.8204 12.2963 14.8003 12.2372 14.7821C12.2077 14.7721 12.1768 14.764 12.146 14.754C12.0842 14.7358 12.0191 14.717 11.95 14.7003C11.9164 14.6915 11.8809 14.6835 11.846 14.6748H11.8023L11.8151 14.6607C11.8151 14.6607 13.264 14.6707 13.5103 15.6211C13.5721 15.866 13.5264 16.1271 13.411 16.3546Z" fill="url(#paint24_radial_6_60)"/>
<path opacity="0.3" d="M16.4747 23.5826C16.4506 23.6544 16.4284 23.7289 16.4069 23.8027C16.3955 23.8376 16.3855 23.8732 16.3761 23.9081C16.3553 23.9812 16.3351 24.0544 16.317 24.1295C16.3029 24.1805 16.2902 24.2309 16.2788 24.2832C16.2465 24.4154 16.2183 24.5496 16.1928 24.6819C16.1801 24.747 16.1687 24.8114 16.1579 24.8765C16.1465 24.9416 16.1351 25.006 16.1257 25.0711C15.8821 24.3906 15.1251 23.2604 12.7882 23.2416C12.3567 23.2376 11.9259 23.2121 11.5017 23.1403C10.5943 22.9879 9.20446 22.6443 8.55884 21.9101C9.31989 22.2215 10.9266 22.7329 12.8419 22.4813C12.8413 22.4806 15.0432 22.39 16.4747 23.5826Z" fill="url(#paint25_linear_6_60)"/>
<path d="M13.3264 15.9257C13.3251 15.9499 13.3211 15.9754 13.3164 16.0002C13.3123 16.0231 13.3076 16.0452 13.3009 16.068C13.2956 16.0949 13.2868 16.123 13.2781 16.1499C13.2741 16.1653 13.268 16.1794 13.264 16.1935C13.2573 16.2116 13.2499 16.2304 13.2432 16.2472C13.2365 16.2667 13.2278 16.2868 13.2177 16.3063C13.1754 16.3995 13.1244 16.4895 13.0701 16.5727C12.8405 16.9197 12.505 17.1854 12.1244 17.3619C12.1204 17.3646 12.1157 17.3673 12.1117 17.3693C12.0627 17.3921 12.0144 17.4143 11.9681 17.4384C11.9439 17.4499 11.9204 17.4626 11.8963 17.4754C11.8721 17.4868 11.8486 17.4995 11.8258 17.5123C11.8144 17.5176 11.803 17.5237 11.7936 17.529C11.7654 17.5445 11.7372 17.5599 11.7104 17.5767C11.6708 17.5995 11.6325 17.6217 11.5963 17.6458C11.5936 17.6472 11.5922 17.6472 11.5909 17.6485C11.556 17.6713 11.5218 17.6935 11.4896 17.7163C11.456 17.7405 11.4218 17.7639 11.3896 17.7868C11.36 17.8096 11.3319 17.8317 11.305 17.8545C11.2768 17.8787 11.2486 17.9022 11.2231 17.9264C11.2037 17.9445 11.1849 17.9612 11.1668 17.98C11.1319 18.0149 11.0976 18.0519 11.0681 18.0874C11.0527 18.1055 11.0386 18.1223 11.0245 18.1411C10.9976 18.176 10.9735 18.2116 10.9513 18.2465C10.95 18.2492 10.9486 18.2505 10.9473 18.2539C10.9372 18.2693 10.9292 18.2847 10.9205 18.3002C10.9137 18.3116 10.9077 18.3243 10.9023 18.3351C10.8956 18.3465 10.8896 18.3592 10.8856 18.37C10.8802 18.3814 10.8755 18.3928 10.8701 18.4035C10.856 18.4384 10.8433 18.474 10.8332 18.5075C10.8077 18.5948 10.7963 18.6794 10.7963 18.7626C10.7963 18.7948 10.7976 18.8277 10.8017 18.8585C10.8044 18.8894 10.8084 18.9203 10.8158 18.9498C10.8386 19.0666 10.8822 19.1793 10.9372 19.284C10.9486 19.3048 10.958 19.325 10.9708 19.3431C10.9822 19.3626 10.9936 19.3827 11.0057 19.4008C11.0184 19.4216 11.0325 19.4417 11.0466 19.4612C11.048 19.4639 11.0507 19.4666 11.052 19.4699C11.056 19.4753 11.0607 19.4827 11.0661 19.4881C11.0815 19.5095 11.097 19.5303 11.1124 19.5498C11.1332 19.5766 11.1533 19.6021 11.1762 19.627C11.1889 19.6424 11.2017 19.6565 11.2157 19.6719C11.3245 19.7914 11.4372 19.8921 11.5245 19.9639C11.558 19.9934 11.5909 20.0229 11.6218 20.0551C11.65 20.0833 11.6768 20.1129 11.7023 20.1437C11.7218 20.1679 11.7406 20.1914 11.7587 20.2155C11.76 20.2169 11.7614 20.2182 11.7614 20.2196C11.7768 20.239 11.7909 20.2605 11.805 20.2813C11.8151 20.2954 11.8231 20.3095 11.8318 20.3236C11.8446 20.3431 11.8573 20.3645 11.8688 20.3867C11.8815 20.4095 11.8929 20.4316 11.9036 20.4558C11.9151 20.4813 11.9245 20.5048 11.9345 20.529C11.9459 20.5585 11.9553 20.588 11.9654 20.6162C11.9768 20.6498 11.9849 20.6826 11.9936 20.7149C12.0003 20.7457 12.0063 20.7766 12.0104 20.8068C12.0271 20.9155 12.0231 21.0095 12.0016 21.094C12.0003 21.1028 11.9989 21.1108 11.9963 21.1195C11.9936 21.1323 11.9896 21.1437 11.9849 21.1565C11.9681 21.2041 11.9466 21.2497 11.9198 21.29C11.903 21.3169 11.8828 21.3424 11.862 21.3658C11.7701 21.4732 11.6493 21.545 11.5365 21.594C11.5171 21.6028 11.4969 21.6108 11.4775 21.6168C11.3366 21.6679 11.1869 21.69 11.0352 21.69H8.4165C8.4165 21.69 8.40979 21.6887 8.3957 21.686C8.3957 21.686 8.39167 21.686 8.38429 21.6846C8.37892 21.6833 8.37422 21.6819 8.36885 21.6819C8.24201 21.6591 7.87692 21.5793 7.4823 21.3846L9.76814 14.6707L9.77217 14.6566L11.8453 14.6707C11.8802 14.6795 11.9157 14.6875 11.9493 14.6962C12.0184 14.713 12.0835 14.7311 12.1453 14.7499C12.1761 14.76 12.207 14.7681 12.2365 14.7781C12.2956 14.7976 12.352 14.8177 12.4056 14.8372C12.4325 14.8472 12.4593 14.8587 12.4848 14.868C12.5358 14.8895 12.5835 14.9103 12.6285 14.9331C12.6748 14.956 12.717 14.9781 12.758 15.0009C12.7989 15.0237 12.8372 15.0472 12.8721 15.0714C12.9258 15.1063 12.9734 15.1446 13.0157 15.1815C13.2768 15.4123 13.3533 15.6721 13.3264 15.9257Z" fill="url(#paint26_linear_6_60)"/>
<path d="M10.5908 14.6727L8.62041 21.6927H8.41572C8.41572 21.6927 8.40901 21.6913 8.39491 21.6886C8.39491 21.6886 8.39357 21.6886 8.38954 21.6873H8.38417C8.37881 21.686 8.37411 21.6846 8.36874 21.6846C8.2419 21.6618 7.87681 21.5819 7.48219 21.3873C7.27615 21.2873 7.06206 21.1551 6.8708 20.9813C6.85133 20.9658 6.83254 20.9491 6.81442 20.9303C6.60033 20.7242 6.41846 20.4679 6.31444 20.1451C6.22451 19.8672 6.18894 19.5431 6.2386 19.1625C6.25135 19.0552 6.27215 18.9458 6.299 18.8297C6.299 18.8297 6.50638 17.4203 7.58151 16.9217C8.0466 16.7062 8.4325 16.3438 8.65933 15.8828C8.89624 15.4009 9.03315 14.8627 8.60565 14.6721H10.5908V14.6727Z" fill="url(#paint27_radial_6_60)"/>
<path d="M6.46678 18.8954C6.45202 19.0142 6.43121 19.1317 6.41242 19.2498C6.12518 21.0383 8.2627 21.6517 8.38954 21.6873H8.38417C8.37881 21.686 8.37411 21.6846 8.36874 21.6846C8.2419 21.6618 7.87681 21.5819 7.48219 21.3873C7.27615 21.2873 7.06206 21.1551 6.8708 20.9813C6.85133 20.9658 6.83254 20.9491 6.81442 20.9303C6.60033 20.7242 6.41846 20.4679 6.31444 20.1451C6.22451 19.8672 6.18894 19.5431 6.2386 19.1625C6.25135 19.0552 6.27215 18.9458 6.299 18.8297C6.299 18.8297 6.50638 17.4203 7.58151 16.9217C8.0466 16.7062 8.4325 16.3438 8.65933 15.8828C8.89624 15.4009 9.03315 14.8627 8.60564 14.6721H9.27207C9.78481 16.3264 7.97009 16.9874 7.97009 16.9874C6.76476 17.3485 6.51779 18.4827 6.46678 18.8954Z" fill="url(#paint28_radial_6_60)"/>
<path d="M25.5381 18.176C22.4053 21.0061 18.6691 17.374 18.6691 17.374C13.3881 12.3131 10.1425 13.6057 8.77547 14.6721H8.65399C8.40568 14.6721 8.16072 14.5775 7.99898 14.3889C7.7567 14.1083 7.65201 13.5943 8.54594 12.7426C8.99559 12.3131 9.52242 11.9715 10.0949 11.7279C10.1412 11.7084 10.1909 11.6883 10.2412 11.6675C13.4377 10.3876 17.0779 11.542 19.0718 14.3479C19.2792 14.6412 19.4805 14.9593 19.6664 15.3063C20.3671 16.621 21.5919 17.5962 23.0516 17.8881C23.1193 17.9022 23.1885 17.9149 23.2589 17.9263C23.2603 17.9263 23.2603 17.9263 23.2616 17.9263C23.2643 17.9277 23.269 17.9277 23.2717 17.9277H23.2757C23.6817 17.9351 24.0817 17.9612 24.4764 18.0082C24.8347 18.0492 25.1884 18.1055 25.5381 18.176Z" fill="url(#paint29_radial_6_60)"/>
<path d="M20.4798 20.6793C20.4194 20.6706 20.3631 20.6625 20.3094 20.6565C20.098 20.631 19.9376 20.6243 19.8517 20.6229H19.8389C19.804 20.6216 19.7839 20.6216 19.7839 20.6216C19.7329 20.6256 19.6826 20.6303 19.6315 20.637C19.5074 20.6511 19.3879 20.6692 19.2718 20.6961C19.241 20.7014 19.2114 20.7088 19.1819 20.7155C19.1564 20.7209 19.1309 20.7283 19.104 20.7337C19.1 20.735 19.094 20.7363 19.0886 20.7377C19.0799 20.7404 19.0718 20.7431 19.0631 20.7451C19.0389 20.7518 19.0155 20.7578 18.9913 20.7659C18.9812 20.7686 18.9705 20.7712 18.9618 20.7746C18.9577 20.7759 18.9544 20.7759 18.9517 20.7773C18.8926 20.7967 18.8363 20.8155 18.7799 20.8377C18.7403 20.8518 18.7027 20.8672 18.6645 20.884C18.6631 20.884 18.6618 20.884 18.6604 20.8867C18.641 20.8941 18.6208 20.9021 18.6014 20.9122C18.5551 20.9316 18.5114 20.9531 18.4672 20.9753C18.4161 21.0008 18.3672 21.0263 18.3195 21.0545C18.2732 21.08 18.2296 21.1081 18.1853 21.1363C18.092 21.1967 18.0007 21.2605 17.9135 21.3296C17.8699 21.3645 17.8276 21.4001 17.7853 21.4383C17.7457 21.4719 17.7074 21.5061 17.6712 21.5424C17.6645 21.5497 17.6558 21.5578 17.6484 21.5652C17.6148 21.596 17.5819 21.6303 17.5511 21.6638C17.5397 21.6752 17.5283 21.688 17.5189 21.6987C17.4175 21.8075 17.3242 21.9215 17.237 22.0423C17.2048 22.0873 17.1719 22.1323 17.1424 22.1779C17.1101 22.2229 17.0806 22.2692 17.0524 22.3175C16.9511 22.4792 16.8591 22.6484 16.7779 22.8249C16.7538 22.8698 16.733 22.9168 16.7128 22.9631C16.7075 22.9745 16.7028 22.9859 16.6987 22.9967C16.6779 23.043 16.6565 23.0913 16.6383 23.139C16.586 23.2658 16.5383 23.3967 16.4934 23.5282C16.488 23.5463 16.4806 23.5631 16.4753 23.5819C16.4511 23.6537 16.429 23.7282 16.4075 23.802C16.3961 23.8369 16.386 23.8725 16.3766 23.9074C16.3558 23.9805 16.3357 24.0537 16.3175 24.1289C16.3035 24.1799 16.2907 24.2302 16.2793 24.2826C16.2471 24.4148 16.2189 24.549 16.1934 24.6812C16.1806 24.7463 16.1692 24.8107 16.1585 24.8758C16.1471 24.9409 16.1357 25.0053 16.1263 25.0704C15.8827 24.3899 15.1256 23.2598 12.7888 23.241C12.3573 23.2369 11.9264 23.2114 11.5023 23.1396C10.5949 22.9873 9.205 22.6437 8.55938 21.9095C8.4963 21.839 8.44127 21.7658 8.39429 21.688C8.40838 21.6907 8.41576 21.692 8.41576 21.692H11.0345C11.1868 21.692 11.3358 21.6692 11.4767 21.6189C11.4962 21.6135 11.5163 21.6048 11.5358 21.5961C11.6486 21.5471 11.77 21.4746 11.8613 21.3679C11.8821 21.3437 11.9022 21.3182 11.919 21.292V21.2907C11.9459 21.2498 11.9667 21.2061 11.9841 21.1585C11.9881 21.1457 11.9928 21.1343 11.9955 21.1216C11.9982 21.1128 11.9996 21.1048 12.0009 21.0961C12.0224 21.0115 12.0264 20.9169 12.0096 20.8088C12.0069 20.7793 12.0009 20.7484 11.9928 20.7169C11.9841 20.6847 11.9761 20.6518 11.9647 20.6182C11.9606 20.6028 11.9546 20.5874 11.9492 20.5706C11.9452 20.5578 11.9392 20.5437 11.9338 20.531C11.9237 20.5068 11.9143 20.4833 11.9029 20.4578C11.8915 20.4337 11.8801 20.4115 11.868 20.3887C11.8566 20.3659 11.8439 20.3451 11.8311 20.3256C11.8224 20.3115 11.8143 20.2974 11.8043 20.2833C11.7902 20.2625 11.7761 20.2411 11.7606 20.2216C11.7606 20.2203 11.7593 20.2189 11.7579 20.2176C11.7412 20.1934 11.721 20.1699 11.7016 20.1458C11.6861 20.125 11.668 20.1048 11.6479 20.0867C11.6412 20.0766 11.6311 20.0672 11.621 20.0572C11.5902 20.025 11.5573 19.9954 11.5237 19.9659C11.4365 19.8941 11.3237 19.7941 11.215 19.674C11.2009 19.6585 11.1882 19.6444 11.1754 19.629C11.1526 19.6035 11.1331 19.578 11.1123 19.5518C11.0969 19.5324 11.0815 19.5109 11.066 19.4901C11.0607 19.4847 11.056 19.4773 11.0519 19.4719C11.0506 19.4693 11.0479 19.4666 11.0466 19.4632C11.0325 19.4438 11.0184 19.4236 11.0056 19.4028C10.9929 19.3847 10.9815 19.3646 10.9707 19.3451C10.958 19.327 10.9479 19.3069 10.9372 19.286C10.8821 19.182 10.8385 19.0693 10.8157 18.9518C10.809 18.9223 10.8043 18.8914 10.8016 18.8606C10.7976 18.8297 10.7962 18.7975 10.7962 18.7646C10.7962 18.6814 10.8076 18.5968 10.8331 18.5096C10.8432 18.476 10.856 18.4404 10.8701 18.4055C10.8754 18.3941 10.8801 18.3827 10.8855 18.372C10.8895 18.3606 10.8956 18.3478 10.9023 18.3371C10.9076 18.3257 10.9137 18.3129 10.9204 18.3022C10.9291 18.2867 10.9372 18.2713 10.9472 18.2559C10.9486 18.2532 10.9499 18.2519 10.9513 18.2485C10.9727 18.2163 10.9949 18.1821 11.0204 18.1498C14.1069 18.3284 17.4303 19.0216 20.4798 20.6793Z" fill="url(#paint30_radial_6_60)"/>
<path d="M35.6178 30.5132V31.3206C30.6441 29.2784 27.0577 26.9449 24.4711 24.6134C24.3047 22.7517 23.2974 21.7578 22.2585 21.2283C22.0148 21.1041 21.7692 21.0041 21.533 20.9269C21.5008 20.9155 21.4699 20.9061 21.4383 20.8961C21.392 20.882 21.3451 20.8679 21.3001 20.8551C21.231 20.8357 21.1645 20.8169 21.0988 20.8014L21.0142 20.7806C18.6847 17.5149 18.0405 14.6191 17.8713 13.0211C18.3156 13.4084 18.7196 13.8526 19.072 14.3486C19.2794 14.6419 19.4807 14.96 19.6666 15.307C19.9679 15.8747 20.3699 16.3794 20.8451 16.7922C21.4692 17.3364 22.2222 17.7223 23.0524 17.8888C23.1202 17.9029 23.1893 17.9156 23.2598 17.927C23.2611 17.927 23.2611 17.927 23.2625 17.927C23.2651 17.9284 23.2698 17.9284 23.2725 17.9284H23.2766C23.3289 17.9297 23.3806 17.931 23.4316 17.9324C23.7853 17.9425 24.1336 17.9673 24.4772 18.0082C24.8349 18.0492 25.1886 18.1055 25.5382 18.176C25.655 18.2002 25.7725 18.225 25.8892 18.2518C27.4462 18.6142 28.8925 19.2639 30.1676 20.1444C32.9696 22.0752 34.9494 25.1141 35.4769 28.6274C35.5702 29.2421 35.6178 29.8723 35.6178 30.5132Z" fill="url(#paint31_radial_6_60)"/>
<path d="M30.5218 9.93463H30.3379C29.1037 9.93463 28.038 9.04137 27.8568 7.8206C27.8548 7.80852 27.8534 7.79644 27.8514 7.78436C27.8514 7.78436 27.4058 4.92202 23.8247 3.32677C23.8247 3.32677 22.5113 2.2429 23.5187 0.426178C23.4301 0.459734 20.3731 1.69326 20.8745 5.84347L20.2134 4.77974C20.2134 4.77974 18.9926 7.03069 22.4415 9.9353C22.6476 10.1071 22.8684 10.2823 23.1079 10.4594C23.1079 10.4594 24.9206 11.8265 27.1843 11.5648C27.9159 11.4802 28.6561 11.5238 29.3729 11.6936C29.7494 11.7829 30.1346 11.8279 30.5212 11.8279C30.5876 11.8279 30.652 11.8292 30.7171 11.8352C32.3983 11.9352 33.7345 13.3345 33.7345 15.0412C33.7345 15.96 33.3452 16.7901 32.7238 17.3754C32.15 17.9196 31.3735 18.2532 30.5212 18.2532H25.8884C27.4454 18.6156 28.8917 19.2652 30.1668 20.1457H30.5218C31.699 20.1457 32.7835 19.7471 33.6479 19.076C33.6479 19.076 33.6479 19.076 33.6479 19.0746C34.8512 18.1418 35.6284 16.6801 35.6284 15.0412C35.6277 12.2232 33.3372 9.93463 30.5218 9.93463Z" fill="url(#paint32_linear_6_60)"/>
<path d="M33.648 19.0733C33.648 19.0746 33.648 19.0746 33.648 19.0746C32.7843 19.7458 31.6991 20.1444 30.5219 20.1444H30.1682C28.8924 19.2639 27.4468 18.6136 25.8892 18.2519H30.5219C31.3749 18.2519 32.1514 17.9176 32.7245 17.374C32.9829 17.8485 33.3265 18.4814 33.648 19.0733Z" fill="url(#paint33_linear_6_60)"/>
<path d="M67.12 40H62.41V19H67.12L74.17 31.48L81.19 19H85.9V40H81.19V27.88L75.73 37.75H72.58L67.12 27.88V40ZM94.8986 37.27C92.7986 35.21 91.7486 32.62 91.7486 29.5C91.7486 26.38 92.7986 23.79 94.8986 21.73C97.0186 19.65 99.6386 18.61 102.759 18.61C105.879 18.61 108.499 19.65 110.619 21.73C112.739 23.79 113.799 26.38 113.799 29.5C113.799 32.62 112.739 35.21 110.619 37.27C108.499 39.35 105.879 40.39 102.759 40.39C99.6386 40.39 97.0186 39.35 94.8986 37.27ZM102.759 35.83C104.479 35.83 105.929 35.23 107.109 34.03C108.269 32.81 108.849 31.3 108.849 29.5C108.849 27.68 108.269 26.18 107.109 25C105.949 23.78 104.499 23.17 102.759 23.17C101.039 23.17 99.5986 23.78 98.4386 25C97.2786 26.18 96.6986 27.68 96.6986 29.5C96.6986 31.3 97.2786 32.81 98.4386 34.03C99.5986 35.23 101.039 35.83 102.759 35.83ZM124.203 40H119.613V19H123.843L133.833 31.87V19H138.423V40H134.193L124.203 27.19V40ZM144.684 40V19H149.454V27.49L156.384 19H162.384L154.044 29.26L162.984 40H156.984L149.454 30.97V40H144.684ZM168.056 19H183.746V23.38H172.826V27.22H182.006V31.6H172.826V35.62H183.896V40H168.056V19ZM196.183 31.36L188.323 19H193.783L198.553 26.92L203.473 19H208.903L200.923 31.27V40H196.183V31.36ZM227.569 23.53L222.859 24.64C222.719 24.16 222.389 23.77 221.869 23.47C221.369 23.15 220.769 22.99 220.069 22.99C219.349 22.99 218.749 23.15 218.269 23.47C217.789 23.79 217.549 24.2 217.549 24.7C217.549 25.34 218.129 25.9 219.289 26.38C219.709 26.54 220.759 26.87 222.439 27.37C223.719 27.75 224.769 28.19 225.589 28.69C227.409 29.65 228.369 31.31 228.469 33.67C228.469 35.71 227.739 37.34 226.279 38.56C224.819 39.78 222.929 40.39 220.609 40.39C218.489 40.39 216.659 39.89 215.119 38.89C213.619 37.91 212.639 36.62 212.179 35.02L216.949 33.88C217.109 34.5 217.529 35.01 218.209 35.41C218.889 35.81 219.689 36.01 220.609 36.01C221.469 36.01 222.199 35.83 222.799 35.47C223.399 35.09 223.699 34.63 223.699 34.09C223.699 33.71 223.519 33.37 223.159 33.07C222.699 32.67 221.829 32.26 220.549 31.84L220.249 31.75C219.229 31.45 218.699 31.29 218.659 31.27L217.189 30.73C216.469 30.41 215.989 30.18 215.749 30.04C214.609 29.22 213.899 28.58 213.619 28.12C213.059 27.18 212.779 26.16 212.779 25.06C212.779 23.14 213.439 21.59 214.759 20.41C216.099 19.21 217.839 18.61 219.979 18.61C221.859 18.61 223.499 19.08 224.899 20.02C226.279 20.94 227.169 22.11 227.569 23.53ZM239.016 40H234.246V19H239.016V27.19H248.106V19H252.846V40H248.106V31.57H239.016V40ZM261.842 37.27C259.742 35.21 258.692 32.62 258.692 29.5C258.692 26.38 259.742 23.79 261.842 21.73C263.962 19.65 266.582 18.61 269.702 18.61C272.822 18.61 275.442 19.65 277.562 21.73C279.682 23.79 280.742 26.38 280.742 29.5C280.742 32.62 279.682 35.21 277.562 37.27C275.442 39.35 272.822 40.39 269.702 40.39C266.582 40.39 263.962 39.35 261.842 37.27ZM269.702 35.83C271.422 35.83 272.872 35.23 274.052 34.03C275.212 32.81 275.792 31.3 275.792 29.5C275.792 27.68 275.212 26.18 274.052 25C272.892 23.78 271.442 23.17 269.702 23.17C267.982 23.17 266.542 23.78 265.382 25C264.222 26.18 263.642 27.68 263.642 29.5C263.642 31.3 264.222 32.81 265.382 34.03C266.542 35.23 267.982 35.83 269.702 35.83ZM291.326 33.1V40H286.556V19H296.096C298.236 19 300.036 19.68 301.496 21.04C302.956 22.38 303.686 24.05 303.686 26.05C303.686 28.07 302.956 29.75 301.496 31.09C300.076 32.43 298.276 33.1 296.096 33.1H291.326ZM296.096 23.38H291.326V28.72H296.096C296.856 28.72 297.486 28.47 297.986 27.97C298.486 27.45 298.736 26.81 298.736 26.05C298.736 25.29 298.486 24.66 297.986 24.16C297.486 23.64 296.856 23.38 296.096 23.38Z" fill="black"/>
<defs>
<linearGradient id="paint0_linear_6_60" x1="35.6172" y1="39.1354" x2="35.6186" y2="39.1354" gradientUnits="userSpaceOnUse">
<stop stop-color="#BF27F8"/>
<stop offset="1" stop-color="#6E25EE"/>
</linearGradient>
<linearGradient id="paint1_linear_6_60" x1="9.42134" y1="33.5151" x2="26.3669" y2="41.2846" gradientUnits="userSpaceOnUse">
<stop stop-color="#BF27F8"/>
<stop offset="1" stop-color="#6E25EE"/>
</linearGradient>
<linearGradient id="paint2_linear_6_60" x1="29.4049" y1="31.6208" x2="29.6994" y2="31.6208" gradientUnits="userSpaceOnUse">
<stop stop-color="#BF27F8"/>
<stop offset="1" stop-color="#6E25EE"/>
</linearGradient>
<linearGradient id="paint3_linear_6_60" x1="0.0367558" y1="36.3446" x2="25.8067" y2="32.6273" gradientUnits="userSpaceOnUse">
<stop stop-color="#BF27F8"/>
<stop offset="1" stop-color="#6E25EE"/>
</linearGradient>
<linearGradient id="paint4_linear_6_60" x1="4.91749" y1="30.9462" x2="21.2435" y2="38.2804" gradientUnits="userSpaceOnUse">
<stop stop-color="#BF27F8"/>
<stop offset="1" stop-color="#6E25EE"/>
</linearGradient>
<linearGradient id="paint5_linear_6_60" x1="1.68727" y1="10.257" x2="37.052" y2="32.2929" gradientUnits="userSpaceOnUse">
<stop stop-color="#BF27F8"/>
<stop offset="1" stop-color="#6E25EE"/>
</linearGradient>
<linearGradient id="paint6_linear_6_60" x1="29.4049" y1="31.6208" x2="29.6994" y2="31.6208" gradientUnits="userSpaceOnUse">
<stop stop-color="#BF27F8"/>
<stop offset="1" stop-color="#6E25EE"/>
</linearGradient>
<linearGradient id="paint7_linear_6_60" x1="6.11814" y1="18.1821" x2="18.534" y2="18.1821" gradientUnits="userSpaceOnUse">
<stop stop-color="#BF27F8"/>
<stop offset="1" stop-color="#6E25EE"/>
</linearGradient>
<linearGradient id="paint8_linear_6_60" x1="6.1187" y1="18.1825" x2="18.5345" y2="18.1825" gradientUnits="userSpaceOnUse">
<stop stop-color="#3D0374"/>
<stop offset="1" stop-color="#380179"/>
</linearGradient>
<linearGradient id="paint9_linear_6_60" x1="12.2728" y1="32.539" x2="13.265" y2="32.539" gradientUnits="userSpaceOnUse">
<stop stop-color="#BF27F8"/>
<stop offset="1" stop-color="#6E25EE"/>
</linearGradient>
<linearGradient id="paint10_linear_6_60" x1="49.2665" y1="37.4139" x2="34.4643" y2="37.8158" gradientUnits="userSpaceOnUse">
<stop stop-color="#BF27F8"/>
<stop offset="1" stop-color="#6E25EE"/>
</linearGradient>
<linearGradient id="paint11_linear_6_60" x1="-0.384702" y1="29.6401" x2="12.5087" y2="24.7172" gradientUnits="userSpaceOnUse">
<stop stop-color="#BF27F8"/>
<stop offset="1" stop-color="#6E25EE"/>
</linearGradient>
<linearGradient id="paint12_linear_6_60" x1="6.65327" y1="27.0815" x2="22.9793" y2="34.4157" gradientUnits="userSpaceOnUse">
<stop stop-color="#BF27F8"/>
<stop offset="1" stop-color="#6E25EE"/>
</linearGradient>
<linearGradient id="paint13_linear_6_60" x1="17.4977" y1="47.6339" x2="17.7154" y2="39.4458" gradientUnits="userSpaceOnUse">
<stop stop-color="#3D0374" stop-opacity="0.4"/>
<stop offset="1" stop-color="#380179" stop-opacity="0"/>
</linearGradient>
<linearGradient id="paint14_linear_6_60" x1="27.4641" y1="40.1158" x2="27.9067" y2="23.4676" gradientUnits="userSpaceOnUse">
<stop stop-color="#3D0374"/>
<stop offset="1" stop-color="#380179"/>
</linearGradient>
<linearGradient id="paint15_linear_6_60" x1="21.6581" y1="41.5653" x2="21.9608" y2="30.1806" gradientUnits="userSpaceOnUse">
<stop stop-color="#3D0374"/>
<stop offset="1" stop-color="#380179"/>
</linearGradient>
<linearGradient id="paint16_linear_6_60" x1="35.3177" y1="29.3821" x2="39.3113" y2="31.6175" gradientUnits="userSpaceOnUse">
<stop stop-color="#3D0374" stop-opacity="0.4"/>
<stop offset="1" stop-color="#380179" stop-opacity="0"/>
</linearGradient>
<linearGradient id="paint17_linear_6_60" x1="29.097" y1="45.1913" x2="39.4117" y2="44.4713" gradientUnits="userSpaceOnUse">
<stop stop-color="#3D0374" stop-opacity="0.4"/>
<stop offset="1" stop-color="#380179" stop-opacity="0"/>
</linearGradient>
<linearGradient id="paint18_linear_6_60" x1="16.8011" y1="30.0192" x2="8.79718" y2="32.2965" gradientUnits="userSpaceOnUse">
<stop stop-color="#3D0374" stop-opacity="0.4"/>
<stop offset="1" stop-color="#380179" stop-opacity="0"/>
</linearGradient>
<linearGradient id="paint19_linear_6_60" x1="6.97614" y1="20.449" x2="3.7235" y2="23.4128" gradientUnits="userSpaceOnUse">
<stop stop-color="#3D0374" stop-opacity="0.4"/>
<stop offset="1" stop-color="#380179" stop-opacity="0"/>
</linearGradient>
<radialGradient id="paint20_radial_6_60" cx="0" cy="0" r="1" gradientUnits="userSpaceOnUse" gradientTransform="translate(0.156905 33.3867) scale(11.8347 11.8347)">
<stop stop-color="white"/>
<stop offset="1" stop-color="white" stop-opacity="0"/>
</radialGradient>
<radialGradient id="paint21_radial_6_60" cx="0" cy="0" r="1" gradientUnits="userSpaceOnUse" gradientTransform="translate(46.5731 37.4724) scale(14.7695)">
<stop stop-color="white" stop-opacity="0.9"/>
<stop offset="1" stop-color="white" stop-opacity="0"/>
</radialGradient>
<radialGradient id="paint22_radial_6_60" cx="0" cy="0" r="1" gradientUnits="userSpaceOnUse" gradientTransform="translate(21.4729 17.3286) scale(12.688 12.688)">
<stop stop-color="white" stop-opacity="0.9"/>
<stop offset="1" stop-color="white" stop-opacity="0"/>
</radialGradient>
<radialGradient id="paint23_radial_6_60" cx="0" cy="0" r="1" gradientUnits="userSpaceOnUse" gradientTransform="translate(34.2417 29.5968) scale(16.6396 16.6396)">
<stop stop-color="white" stop-opacity="0.9"/>
<stop offset="1" stop-color="white" stop-opacity="0"/>
</radialGradient>
<radialGradient id="paint24_radial_6_60" cx="0" cy="0" r="1" gradientUnits="userSpaceOnUse" gradientTransform="translate(12.1136 14.5392) scale(9.32486 9.32486)">
<stop stop-color="white" stop-opacity="0.9"/>
<stop offset="1" stop-color="white" stop-opacity="0"/>
</radialGradient>
<linearGradient id="paint25_linear_6_60" x1="8.5586" y1="23.49" x2="16.4748" y2="23.49" gradientUnits="userSpaceOnUse">
<stop stop-color="#3D0374"/>
<stop offset="1" stop-color="#380179"/>
</linearGradient>
<linearGradient id="paint26_linear_6_60" x1="11.7199" y1="18.7677" x2="9.43397" y2="17.9387" gradientUnits="userSpaceOnUse">
<stop stop-color="#3D0374" stop-opacity="0.4"/>
<stop offset="1" stop-color="#380179" stop-opacity="0"/>
</linearGradient>
<radialGradient id="paint27_radial_6_60" cx="0" cy="0" r="1" gradientUnits="userSpaceOnUse" gradientTransform="translate(6.3617 15.749) scale(4.05415)">
<stop stop-color="white" stop-opacity="0.9"/>
<stop offset="1" stop-color="white" stop-opacity="0"/>
</radialGradient>
<radialGradient id="paint28_radial_6_60" cx="0" cy="0" r="1" gradientUnits="userSpaceOnUse" gradientTransform="translate(5.30679 19.0728) scale(5.19168)">
<stop stop-color="white" stop-opacity="0.9"/>
<stop offset="1" stop-color="white" stop-opacity="0"/>
</radialGradient>
<radialGradient id="paint29_radial_6_60" cx="0" cy="0" r="1" gradientUnits="userSpaceOnUse" gradientTransform="translate(14.9517 9.50327) scale(11.5961)">
<stop stop-color="white" stop-opacity="0.9"/>
<stop offset="1" stop-color="white" stop-opacity="0"/>
</radialGradient>
<radialGradient id="paint30_radial_6_60" cx="0" cy="0" r="1" gradientUnits="userSpaceOnUse" gradientTransform="translate(14.0726 17.5407) scale(5.37525)">
<stop stop-color="white" stop-opacity="0.9"/>
<stop offset="1" stop-color="white" stop-opacity="0"/>
</radialGradient>
<radialGradient id="paint31_radial_6_60" cx="0" cy="0" r="1" gradientUnits="userSpaceOnUse" gradientTransform="translate(30.4909 18.4784) scale(10.8974)">
<stop stop-color="white" stop-opacity="0.9"/>
<stop offset="1" stop-color="white" stop-opacity="0"/>
</radialGradient>
<linearGradient id="paint32_linear_6_60" x1="31.3562" y1="3.44753" x2="23.6537" y2="19.2545" gradientUnits="userSpaceOnUse">
<stop stop-color="#BF27F8"/>
<stop offset="1" stop-color="#6E25EE"/>
</linearGradient>
<linearGradient id="paint33_linear_6_60" x1="28.8456" y1="19.1511" x2="32.9313" y2="17.3762" gradientUnits="userSpaceOnUse">
<stop stop-color="#3D0374" stop-opacity="0.4"/>
<stop offset="1" stop-color="#380179" stop-opacity="0"/>
</linearGradient>
</defs>
</svg>
