<svg width="24" height="20" viewBox="0 0 24 20" fill="none" xmlns="http://www.w3.org/2000/svg">
<path id="Path-3" fill-rule="evenodd" clip-rule="evenodd" d="M1.64987 8.63515C8.09231 5.86401 12.3883 4.0371 14.5378 3.15443C20.675 0.63422 21.9503 0.196434 22.7815 0.181978C22.9643 0.178798 23.3731 0.223529 23.6379 0.435644C23.8614 0.614749 23.9229 0.856695 23.9524 1.02651C23.9818 1.19632 24.0185 1.58315 23.9893 1.88542C23.6568 5.33539 22.2177 13.7076 21.4856 17.5716C21.1758 19.2066 20.5658 19.7548 19.9753 19.8085C18.6919 19.9251 17.7174 18.9711 16.4744 18.1667C14.5294 16.9079 13.4305 16.1243 11.5425 14.896C9.36064 13.4765 10.7751 12.6963 12.0185 11.4212C12.344 11.0875 17.9985 6.00974 18.1079 5.54911C18.1216 5.4915 18.1343 5.27676 18.0051 5.16337C17.8759 5.04998 17.6851 5.08875 17.5475 5.11959C17.3524 5.1633 14.2452 7.19093 8.22584 11.2025C7.34386 11.8004 6.545 12.0917 5.82924 12.0764C5.04018 12.0596 3.52233 11.636 2.39397 11.2739C1.00999 10.8297 -0.0899676 10.5949 0.00581423 9.84057C0.0557033 9.44768 0.603723 9.04588 1.64987 8.63515Z" fill="#4F6173"/>
</svg>
