<svg width="152" height="67" viewBox="0 0 152 67" fill="none" xmlns="http://www.w3.org/2000/svg">
<path d="M9.66 12.505L0.805 0.499998H5.495L12.04 9.32L18.55 0.499998H23.24L14.385 12.505L23.59 25H18.9L12.04 15.69L5.145 25H0.455L9.66 12.505ZM38.8333 25H26.4083V0.499998H38.1333C40.21 0.499998 41.9483 1.13 43.3483 2.39C44.7483 3.60333 45.4483 5.155 45.4483 7.045C45.4483 9.09833 44.585 10.7783 42.8583 12.085C44.0017 12.6917 44.9 13.5317 45.5533 14.605C46.2067 15.655 46.5333 16.81 46.5333 18.07C46.5333 20.0533 45.7983 21.71 44.3283 23.04C42.835 24.3467 41.0033 25 38.8333 25ZM38.8333 14.15H30.3283V21.36H38.8333C39.86 21.36 40.7233 21.0217 41.4233 20.345C42.1233 19.645 42.4733 18.7817 42.4733 17.755C42.4733 16.7283 42.1233 15.8767 41.4233 15.2C40.7233 14.5 39.86 14.15 38.8333 14.15ZM38.1333 4.14H30.3283V10.51H38.1333C39.0667 10.51 39.8367 10.2067 40.4433 9.6C41.05 8.99333 41.3533 8.235 41.3533 7.325C41.3533 6.415 41.05 5.65667 40.4433 5.05C39.8367 4.44333 39.0667 4.14 38.1333 4.14ZM61.9948 25.455C58.3782 25.455 55.3565 24.2417 52.9298 21.815C50.5032 19.3883 49.2898 16.3667 49.2898 12.75C49.2898 9.13333 50.5032 6.11167 52.9298 3.685C55.3565 1.25833 58.3782 0.0449979 61.9948 0.0449979C65.6115 0.0449979 68.6332 1.25833 71.0598 3.685C73.5098 6.08833 74.7348 9.11 74.7348 12.75C74.7348 16.39 73.5098 19.4117 71.0598 21.815C68.6332 24.2417 65.6115 25.455 61.9948 25.455ZM55.8348 19.12C57.4682 20.8233 59.5215 21.675 61.9948 21.675C64.4682 21.675 66.5215 20.8233 68.1548 19.12C69.8115 17.3933 70.6398 15.27 70.6398 12.75C70.6398 10.23 69.8115 8.10667 68.1548 6.38C66.5215 4.67667 64.4682 3.825 61.9948 3.825C59.5215 3.825 57.4682 4.67667 55.8348 6.38C54.1782 8.10667 53.3498 10.23 53.3498 12.75C53.3498 15.27 54.1782 17.3933 55.8348 19.12ZM84.8895 12.505L76.0345 0.499998H80.7245L87.2695 9.32L93.7795 0.499998H98.4695L89.6145 12.505L98.8195 25H94.1295L87.2695 15.69L80.3745 25H75.6845L84.8895 12.505ZM19.075 46.505L15.19 47.66C14.98 46.8667 14.4433 46.2017 13.58 45.665C12.7167 45.105 11.7133 44.825 10.57 44.825C9.31 44.825 8.26 45.1283 7.42 45.735C6.58 46.3183 6.16 47.065 6.16 47.975C6.02 48.7683 6.615 49.5617 7.945 50.355C8.17833 50.495 8.63333 50.6817 9.31 50.915C10.1733 51.195 10.675 51.3583 10.815 51.405L12.67 51.93C14.5133 52.42 16.0767 53.05 17.36 53.82C19.0867 54.87 19.95 56.5617 19.95 58.895C19.95 61.1583 19.11 62.99 17.43 64.39C15.7267 65.7667 13.5683 66.455 10.955 66.455C8.575 66.455 6.53333 65.9067 4.83 64.81C3.15 63.69 2.065 62.29 1.575 60.61L5.46 59.385C5.67 60.3183 6.27667 61.1 7.28 61.73C8.30667 62.36 9.53167 62.675 10.955 62.675C12.4017 62.675 13.6033 62.36 14.56 61.73C15.5167 61.0767 15.995 60.2367 15.995 59.21C15.995 58.5333 15.7267 57.95 15.19 57.46C14.7233 56.9933 14.245 56.655 13.755 56.445C13.265 56.2117 12.53 55.9667 11.55 55.71C8.58667 54.8467 6.62667 54.17 5.67 53.68C3.38333 52.4433 2.24 50.635 2.24 48.255C2.24 46.1083 3.01 44.37 4.55 43.04C6.09 41.71 8.07333 41.045 10.5 41.045C12.6467 41.045 14.5017 41.57 16.065 42.62C17.605 43.6233 18.6083 44.9183 19.075 46.505ZM23.9132 41.5H41.7632V45.14H27.8332V51.79H39.9082V55.43H27.8332V62.36H41.9382V66H23.9132V41.5ZM45.6173 41.5H56.8173C59.1506 41.5 61.099 42.235 62.6623 43.705C64.249 45.175 65.0423 47.0183 65.0423 49.235C65.0423 50.845 64.599 52.2917 63.7123 53.575C62.8256 54.835 61.6473 55.7567 60.1773 56.34L65.9873 66H61.5773L56.1173 56.97H49.5373V66H45.6173V41.5ZM56.8173 45.14H49.5373V53.33H56.8173C57.984 53.33 58.964 52.945 59.7573 52.175C60.5506 51.3817 60.9473 50.4017 60.9473 49.235C60.9473 48.0683 60.5506 47.1 59.7573 46.33C58.964 45.5367 57.984 45.14 56.8173 45.14ZM73.2238 66H69.3038V41.5H73.2238V66ZM77.9855 41.5H95.8355V45.14H81.9055V51.79H93.9805V55.43H81.9055V62.36H96.0105V66H77.9855V41.5ZM116.385 46.505L112.5 47.66C112.29 46.8667 111.753 46.2017 110.89 45.665C110.026 45.105 109.023 44.825 107.88 44.825C106.62 44.825 105.57 45.1283 104.73 45.735C103.89 46.3183 103.47 47.065 103.47 47.975C103.33 48.7683 103.925 49.5617 105.255 50.355C105.488 50.495 105.943 50.6817 106.62 50.915C107.483 51.195 107.985 51.3583 108.125 51.405L109.98 51.93C111.823 52.42 113.386 53.05 114.67 53.82C116.396 54.87 117.26 56.5617 117.26 58.895C117.26 61.1583 116.42 62.99 114.74 64.39C113.036 65.7667 110.878 66.455 108.265 66.455C105.885 66.455 103.843 65.9067 102.14 64.81C100.46 63.69 99.3746 62.29 98.8846 60.61L102.77 59.385C102.98 60.3183 103.586 61.1 104.59 61.73C105.616 62.36 106.841 62.675 108.265 62.675C109.711 62.675 110.913 62.36 111.87 61.73C112.826 61.0767 113.305 60.2367 113.305 59.21C113.305 58.5333 113.036 57.95 112.5 57.46C112.033 56.9933 111.555 56.655 111.065 56.445C110.575 56.2117 109.84 55.9667 108.86 55.71C105.896 54.8467 103.936 54.17 102.98 53.68C100.693 52.4433 99.5496 50.635 99.5496 48.255C99.5496 46.1083 100.32 44.37 101.86 43.04C103.4 41.71 105.383 41.045 107.81 41.045C109.956 41.045 111.811 41.57 113.375 42.62C114.915 43.6233 115.918 44.9183 116.385 46.505ZM137.8 53.505L128.945 41.5H133.635L140.18 50.32L146.69 41.5H151.38L142.525 53.505L151.73 66H147.04L140.18 56.69L133.285 66H128.595L137.8 53.505Z" fill="black"/>
</svg>
